<svg viewBox="0 0 890 400" xmlns="http://www.w3.org/2000/svg"><g><g><g><g><g><line x1="51.52000045776367" y1="365.9199981689453" x2="46.52000045776367" y2="365.9199981689453" style="visibility: inherit;" fill="rgb(0, 0, 0)" stroke="rgb(204, 204, 204)" stroke-width="1px"></line><line x1="51.52000045776367" y1="337.7723060021034" x2="46.52000045776367" y2="337.7723060021034" style="visibility: inherit;" fill="rgb(0, 0, 0)" stroke="rgb(204, 204, 204)" stroke-width="1px"></line><line x1="51.52000045776367" y1="309.6246138352614" x2="46.52000045776367" y2="309.6246138352614" style="visibility: inherit;" fill="rgb(0, 0, 0)" stroke="rgb(204, 204, 204)" stroke-width="1px"></line><line x1="51.52000045776367" y1="281.47692166841944" x2="46.52000045776367" y2="281.47692166841944" style="visibility: inherit;" fill="rgb(0, 0, 0)" stroke="rgb(204, 204, 204)" stroke-width="1px"></line><line x1="51.52000045776367" y1="253.32922950157752" x2="46.52000045776367" y2="253.32922950157752" style="visibility: inherit;" fill="rgb(0, 0, 0)" stroke="rgb(204, 204, 204)" stroke-width="1px"></line><line x1="51.52000045776367" y1="225.1815373347356" x2="46.52000045776367" y2="225.1815373347356" style="visibility: inherit;" fill="rgb(0, 0, 0)" stroke="rgb(204, 204, 204)" stroke-width="1px"></line><line x1="51.52000045776367" y1="197.03384516789365" x2="46.52000045776367" y2="197.03384516789365" style="visibility: inherit;" fill="rgb(0, 0, 0)" stroke="rgb(204, 204, 204)" stroke-width="1px"></line><line x1="51.52000045776367" y1="168.8861530010517" x2="46.52000045776367" y2="168.8861530010517" style="visibility: inherit;" fill="rgb(0, 0, 0)" stroke="rgb(204, 204, 204)" stroke-width="1px"></line><line x1="51.52000045776367" y1="140.73846083420977" x2="46.52000045776367" y2="140.73846083420977" style="visibility: inherit;" fill="rgb(0, 0, 0)" stroke="rgb(204, 204, 204)" stroke-width="1px"></line><line x1="51.52000045776367" y1="112.5907686673678" x2="46.52000045776367" y2="112.5907686673678" style="visibility: inherit;" fill="rgb(0, 0, 0)" stroke="rgb(204, 204, 204)" stroke-width="1px"></line><line x1="51.52000045776367" y1="84.44307650052588" x2="46.52000045776367" y2="84.44307650052588" style="visibility: inherit;" fill="rgb(0, 0, 0)" stroke="rgb(204, 204, 204)" stroke-width="1px"></line><line x1="51.52000045776367" y1="56.2953843336839" x2="46.52000045776367" y2="56.2953843336839" style="visibility: inherit;" fill="rgb(0, 0, 0)" stroke="rgb(204, 204, 204)" stroke-width="1px"></line><line x1="51.52000045776367" y1="28.14769216684192" x2="46.52000045776367" y2="28.14769216684192" style="visibility: inherit;" fill="rgb(0, 0, 0)" stroke="rgb(204, 204, 204)" stroke-width="1px"></line><line x1="51.52000045776367" y1="0" x2="46.52000045776367" y2="0" style="visibility: inherit;" fill="rgb(0, 0, 0)" stroke="rgb(204, 204, 204)" stroke-width="1px"></line></g><g transform="translate(41.52000045776367, 0)"><text style="text-anchor: end; visibility: hidden; font-family: &quot;Helvetica Neue&quot;, sans-serif; font-size: 12px; font-weight: 200;" x="0" y="365.9199981689453" dx="0em" dy="0.3em" fill="rgb(50, 49, 63)" stroke="none" stroke-width="1px">-0.1</text><text style="text-anchor: end; visibility: inherit; font-family: &quot;Helvetica Neue&quot;, sans-serif; font-size: 12px; font-weight: 200;" x="0" y="337.7723060021034" dx="0em" dy="0.3em" fill="rgb(50, 49, 63)" stroke="none" stroke-width="1px">0</text><text style="text-anchor: end; visibility: inherit; font-family: &quot;Helvetica Neue&quot;, sans-serif; font-size: 12px; font-weight: 200;" x="0" y="309.6246138352614" dx="0em" dy="0.3em" fill="rgb(50, 49, 63)" stroke="none" stroke-width="1px">0.1</text><text style="text-anchor: end; visibility: inherit; font-family: &quot;Helvetica Neue&quot;, sans-serif; font-size: 12px; font-weight: 200;" x="0" y="281.47692166841944" dx="0em" dy="0.3em" fill="rgb(50, 49, 63)" stroke="none" stroke-width="1px">0.2</text><text style="text-anchor: end; visibility: inherit; font-family: &quot;Helvetica Neue&quot;, sans-serif; font-size: 12px; font-weight: 200;" x="0" y="253.32922950157752" dx="0em" dy="0.3em" fill="rgb(50, 49, 63)" stroke="none" stroke-width="1px">0.3</text><text style="text-anchor: end; visibility: inherit; font-family: &quot;Helvetica Neue&quot;, sans-serif; font-size: 12px; font-weight: 200;" x="0" y="225.1815373347356" dx="0em" dy="0.3em" fill="rgb(50, 49, 63)" stroke="none" stroke-width="1px">0.4</text><text style="text-anchor: end; visibility: inherit; font-family: &quot;Helvetica Neue&quot;, sans-serif; font-size: 12px; font-weight: 200;" x="0" y="197.03384516789365" dx="0em" dy="0.3em" fill="rgb(50, 49, 63)" stroke="none" stroke-width="1px">0.5</text><text style="text-anchor: end; visibility: inherit; font-family: &quot;Helvetica Neue&quot;, sans-serif; font-size: 12px; font-weight: 200;" x="0" y="168.8861530010517" dx="0em" dy="0.3em" fill="rgb(50, 49, 63)" stroke="none" stroke-width="1px">0.6</text><text style="text-anchor: end; visibility: inherit; font-family: &quot;Helvetica Neue&quot;, sans-serif; font-size: 12px; font-weight: 200;" x="0" y="140.73846083420977" dx="0em" dy="0.3em" fill="rgb(50, 49, 63)" stroke="none" stroke-width="1px">0.7</text><text style="text-anchor: end; visibility: inherit; font-family: &quot;Helvetica Neue&quot;, sans-serif; font-size: 12px; font-weight: 200;" x="0" y="112.5907686673678" dx="0em" dy="0.3em" fill="rgb(50, 49, 63)" stroke="none" stroke-width="1px">0.8</text><text style="text-anchor: end; visibility: inherit; font-family: &quot;Helvetica Neue&quot;, sans-serif; font-size: 12px; font-weight: 200;" x="0" y="84.44307650052588" dx="0em" dy="0.3em" fill="rgb(50, 49, 63)" stroke="none" stroke-width="1px">0.9</text><text style="text-anchor: end; visibility: inherit; font-family: &quot;Helvetica Neue&quot;, sans-serif; font-size: 12px; font-weight: 200;" x="0" y="56.2953843336839" dx="0em" dy="0.3em" fill="rgb(50, 49, 63)" stroke="none" stroke-width="1px">1</text><text style="text-anchor: end; visibility: inherit; font-family: &quot;Helvetica Neue&quot;, sans-serif; font-size: 12px; font-weight: 200;" x="0" y="28.14769216684192" dx="0em" dy="0.3em" fill="rgb(50, 49, 63)" stroke="none" stroke-width="1px">1.1</text><text style="text-anchor: end; visibility: hidden; font-family: &quot;Helvetica Neue&quot;, sans-serif; font-size: 12px; font-weight: 200;" x="0" y="0" dx="0em" dy="0.3em" fill="rgb(50, 49, 63)" stroke="none" stroke-width="1px">1.2</text></g><line x1="51.52000045776367" y1="0" x2="51.52000045776367" y2="365.9199981689453" fill="rgb(0, 0, 0)" stroke="rgb(204, 204, 204)" stroke-width="1px"></line></g></g><g transform="translate(51, 0)" clip-path="url(#clip_0)"><clipPath id="clip_0"><rect width="838" height="365"></rect></clipPath><g><g><g><line x1="0" y1="0" x2="0" y2="365.9199981689453" fill="rgb(0, 0, 0)" stroke="rgb(60, 60, 60)" stroke-width="1px" opacity="0.25"></line><line x1="93.1644443935818" y1="0" x2="93.1644443935818" y2="365.9199981689453" fill="rgb(0, 0, 0)" stroke="rgb(60, 60, 60)" stroke-width="1px" opacity="0.25"></line><line x1="186.3288887871636" y1="0" x2="186.3288887871636" y2="365.9199981689453" fill="rgb(0, 0, 0)" stroke="rgb(60, 60, 60)" stroke-width="1px" opacity="0.25"></line><line x1="279.4933331807454" y1="0" x2="279.4933331807454" y2="365.9199981689453" fill="rgb(0, 0, 0)" stroke="rgb(60, 60, 60)" stroke-width="1px" opacity="0.25"></line><line x1="372.6577775743272" y1="0" x2="372.6577775743272" y2="365.9199981689453" fill="rgb(0, 0, 0)" stroke="rgb(60, 60, 60)" stroke-width="1px" opacity="0.25"></line><line x1="465.8222219679091" y1="0" x2="465.8222219679091" y2="365.9199981689453" fill="rgb(0, 0, 0)" stroke="rgb(60, 60, 60)" stroke-width="1px" opacity="0.25"></line><line x1="558.9866663614908" y1="0" x2="558.9866663614908" y2="365.9199981689453" fill="rgb(0, 0, 0)" stroke="rgb(60, 60, 60)" stroke-width="1px" opacity="0.25"></line><line x1="652.1511107550728" y1="0" x2="652.1511107550728" y2="365.9199981689453" fill="rgb(0, 0, 0)" stroke="rgb(60, 60, 60)" stroke-width="1px" opacity="0.25"></line><line x1="745.3155551486544" y1="0" x2="745.3155551486544" y2="365.9199981689453" fill="rgb(0, 0, 0)" stroke="rgb(60, 60, 60)" stroke-width="1px" opacity="0.25"></line><line x1="838.4799995422363" y1="0" x2="838.4799995422363" y2="365.9199981689453" fill="rgb(0, 0, 0)" stroke="rgb(60, 60, 60)" stroke-width="1px" opacity="0.25"></line></g><g><line x1="0" y1="365.9199981689453" x2="838.4799995422363" y2="365.9199981689453" fill="rgb(0, 0, 0)" stroke="rgb(60, 60, 60)" stroke-width="1px" opacity="0.25"></line><line x1="0" y1="337.7723060021034" x2="838.4799995422363" y2="337.7723060021034" fill="rgb(0, 0, 0)" stroke="rgb(60, 60, 60)" stroke-width="1px" opacity="0.25"></line><line x1="0" y1="309.6246138352614" x2="838.4799995422363" y2="309.6246138352614" fill="rgb(0, 0, 0)" stroke="rgb(60, 60, 60)" stroke-width="1px" opacity="0.25"></line><line x1="0" y1="281.47692166841944" x2="838.4799995422363" y2="281.47692166841944" fill="rgb(0, 0, 0)" stroke="rgb(60, 60, 60)" stroke-width="1px" opacity="0.25"></line><line x1="0" y1="253.32922950157752" x2="838.4799995422363" y2="253.32922950157752" fill="rgb(0, 0, 0)" stroke="rgb(60, 60, 60)" stroke-width="1px" opacity="0.25"></line><line x1="0" y1="225.1815373347356" x2="838.4799995422363" y2="225.1815373347356" fill="rgb(0, 0, 0)" stroke="rgb(60, 60, 60)" stroke-width="1px" opacity="0.25"></line><line x1="0" y1="197.03384516789365" x2="838.4799995422363" y2="197.03384516789365" fill="rgb(0, 0, 0)" stroke="rgb(60, 60, 60)" stroke-width="1px" opacity="0.25"></line><line x1="0" y1="168.8861530010517" x2="838.4799995422363" y2="168.8861530010517" fill="rgb(0, 0, 0)" stroke="rgb(60, 60, 60)" stroke-width="1px" opacity="0.25"></line><line x1="0" y1="140.73846083420977" x2="838.4799995422363" y2="140.73846083420977" fill="rgb(0, 0, 0)" stroke="rgb(60, 60, 60)" stroke-width="1px" opacity="0.25"></line><line x1="0" y1="112.5907686673678" x2="838.4799995422363" y2="112.5907686673678" fill="rgb(0, 0, 0)" stroke="rgb(60, 60, 60)" stroke-width="1px" opacity="0.25"></line><line x1="0" y1="84.44307650052588" x2="838.4799995422363" y2="84.44307650052588" fill="rgb(0, 0, 0)" stroke="rgb(60, 60, 60)" stroke-width="1px" opacity="0.25"></line><line x1="0" y1="56.2953843336839" x2="838.4799995422363" y2="56.2953843336839" fill="rgb(0, 0, 0)" stroke="rgb(60, 60, 60)" stroke-width="1px" opacity="0.25"></line><line x1="0" y1="28.14769216684192" x2="838.4799995422363" y2="28.14769216684192" fill="rgb(0, 0, 0)" stroke="rgb(60, 60, 60)" stroke-width="1px" opacity="0.25"></line><line x1="0" y1="0" x2="838.4799995422363" y2="0" fill="rgb(0, 0, 0)" stroke="rgb(60, 60, 60)" stroke-width="1px" opacity="0.25"></line></g></g></g><g><g><line x1="0" y1="337.7723060021034" x2="838.4799995422363" y2="337.7723060021034" fill="rgb(0, 0, 0)" stroke="rgb(153, 153, 153)" stroke-width="1.5px"></line></g></g><g><g><line x1="-13533843.56298164" y1="0" x2="-13533843.56298164" y2="365.9199981689453" fill="rgb(0, 0, 0)" stroke="rgb(153, 153, 153)" stroke-width="1.5px"></line></g></g><g><g><g><g><g><path style="fill: none;" stroke="rgb(0, 119, 187)" stroke-width="2px" d="M789.7598603787114,332.84645985193436L790.1624429208783,316.13376816527085L790.5329613667666,284.80869144877175L790.9766225278413,243.17743556035762L791.4309199629843,209.42928001055384L791.8317254796378,178.68914011370683L792.2086705469218,155.68730072931118L792.5858053936295,135.57763146068436L792.9885000781833,120.31808752752818L793.385285721588,110.27022167916778L793.9052037056664,100.46675290243849L794.2689763556734,93.9022538584008L794.8174130113412,89.54994787949624L795.3450515674317,86.80135311042193L795.7314856059038,83.04150408303582L796.1052130493213,82.1945068100768L796.4518451668275,80.9826539897299L796.9672860817724,79.83341237147971L797.3641148568645,79.00319855642192L797.852865883758,77.37915486673984L798.3518218678478,75.7010562296299L798.7423706692807,75.3979248584082L799.1958831077162,75.3567846717948L799.6183924893786,74.90988714277194L800.0637357862548,74.64174998060747L800.4261195959334,74.19938432687161L800.7806361858634,73.65248847625134L801.2187247329492,74.0280467447941L801.692647085777,73.1274745305455" fill="none"></path></g><g><path style="fill: none;" stroke="rgb(255, 112, 67)" stroke-width="2px" d="M688.7875971959766,336.7167675694399L689.4781355083568,335.61724836874885L690.1789564149701,333.84455414722646L690.8769220038895,331.93062501584234L691.5825995384836,328.8179312230436L692.2798146360453,325.9317949929502L692.9804457632349,324.7231498988182L693.6789289324008,323.44741558669335L694.3789820949816,320.1367465446334L695.0805103612653,318.03023342966884L696.18977109317,314.65574287173337L696.8980106499849,312.49785551166724L697.598089691578,309.3741406345603L698.2928376566309,308.4884665708153L698.980615541029,307.39428757178035L699.6756481752175,304.20410225687556L700.3788758299776,302.7128552935574L701.0822760114866,296.89192189537386L701.7714341098757,292.97749784338527L703.077936047434,291.8956890060624L704.1676581250284,287.86883172510477L705.3096558075325,282.7787088130058L706.933710479074,277.75432413337614L708.6842100048672,274.5989797268421L710.373402150447,270.7354387996377L712.0271055437829,264.7581151837804L714.0837537854584,259.48286253646467L716.1175336065703,257.16214488179946L717.7189268896467,253.65863952401696L719.3267381677812,244.94182761131327L721.7087200998142,238.58583493473986L722.5931353462449,232.66116144565797L723.40619352934,228.96561932064856L724.2118330622336,223.3705708675679L725.0153936478031,215.7913886717997L725.8285208415979,208.99206283318392L726.6749198189135,204.06803405451274L727.4826210464561,200.12845187231224L728.3102318608192,195.3721476590929L729.3686058281426,189.84433357320674L730.9052066906781,185.68321516603362L731.7698158663378,180.37177759019997L732.5946576263814,175.63679009765124L733.4324388925907,170.54398437675798L734.2832890600273,165.5179576610314L735.116627762453,163.4875132737665L735.9739563093101,160.15816838670986L736.8164820611136,157.73834983016587L737.6554106302028,149.24953565446899L738.5526359877376,143.73402881380753L739.8888642841274,140.2839830273566L740.7360655108255,136.5250956361052L741.6030814346319,135.2549348431383L742.5184221007988,132.10028345942635L743.4345391373358,128.23715605658222L744.6099379984224,123.66745967809481L745.783214780498,122.47376679924133L746.765297419468,120.35016780577365L747.6899631564116,116.54271853061309L748.7209053706637,112.28790568196632L750.0444356983362,110.57944793247168L750.9091225110328,108.28773169870135L751.7735332809312,107.33491358281941L752.6285672220283,105.21510447598558L753.4410646931897,102.67657071687893L754.2430121536571,101.29418543256406L755.1037049721174,100.60549594405711L755.9601622588925,97.79972734302214L756.8315431094456,97.1014378241764L757.7301228019592,98.23058235017362L759.011427207844,96.65625583992318L759.7814485934318,94.02280001438623L760.6781132390328,92.44272651906402L761.6089468072489,90.79098743332656L762.5949889351057,89.23699067542191L763.5941258432022,87.46016266098576L764.4996928690452,85.97185422794377L765.4193035722469,83.81222087311221L766.3648709248171,83.78308915521967L767.2669442839954,84.75077505532664L768.8020959218404,83.92400332923529L769.9770375870426,82.44276865180518L770.9813934292926,82.11698115180934L771.9167730773415,84.4548052418246L772.932369037281,81.6353431864344L773.7630853331237,82.47696254321289L774.5236781318855,80.87085590258039L775.4918982465832,80.61088019581223L776.8482862935792,78.76603485236473L777.850787473279,78.36282263484037L779.3028243498525,77.27646534463241L780.396203994523,76.76538594165686L781.6322115024902,77.58464491279585L783.0364584696248,77.65398867109906L784.6718654012423,75.58451667138121L785.6183816509313,76.17243507301919L786.5085765434493,75.39927950107744L787.3687345289879,74.37242614051752L788.2516142873537,75.72665740773198L789.1743304720352,74.99107121982325" fill="none"></path></g><g><path style="fill: none;" stroke="rgb(187, 187, 187)" stroke-width="2px" d="M682.754750851945,335.66122913677646L682.8193793720744,336.1010368170529L682.8810145531106,335.33810502646656L682.9407519399093,334.5164355618448L682.9977892830881,333.7921227105651L683.0583375456065,333.54297171457614L683.1087412352908,332.9667598624685L683.1715323455447,331.34324803301786L683.2361522393365,331.9506540134034L683.2926116179066,331.88637226236864L683.3843268376096,331.00054735366496L683.4402082515709,329.4837951809029L683.495330547837,329.5623174069524L683.5398855807346,328.7642722168197L683.5855189058125,328.70825954714616L683.6308071773927,327.5484432134989L683.6760350646108,327.41581188608797L683.721245699154,326.63248393243043L683.767793416001,325.59955004626096L683.814358385523,323.71313748931993L683.8797460233474,323.98874949592965L683.924810010154,323.8726320527865L683.9700724027219,322.53630636405046L684.0157057277999,322.01599611141273L684.0594067532903,320.29642301200715L684.1034269532663,319.5461594145782L684.1488359935707,320.08117262812306L684.19503865692,318.85405640403314L684.2402579178007,317.69557117757944L684.2868228873226,317.2819570303505L684.352521073295,316.04861934468164L684.399146427179,316.01230936593026L684.4433995382659,316.1312617138649L684.490007639475,314.65450980413056L684.53649497196,312.92402871115905L684.5829909307823,313.15238586588634L684.628054917589,312.4449693534295L684.6734208262062,311.5983044673428L684.7197873899669,310.1051355714659L684.7649203874731,310.4758808550352L684.8344486672705,309.8538972256224L684.8792021059293,306.9474146513951L684.9255514170151,307.45534085085274L684.9705981511469,305.7897574808746L685.016041696801,305.63483825772005L685.0630811148824,304.41597927197637L685.1090249881082,303.68466388057885L685.1551672670954,303.2458746457578L685.199549773244,302.2789094717843L685.2468479814487,301.27651370982517L685.3134864382024,300.8158145792712L685.3588437204822,300.39865677432425L685.40373518054,300.007623764741L685.4495841640542,300.617435596419L685.4944669977743,301.96849182060146L685.5400571911651,299.26066319538717L685.5874847944315,299.0433509641483L685.6322813647774,296.52041039520714L685.6780872166041,297.25846095742486L685.7219176371564,296.5753830040978L685.7897033967903,294.4766746349817L685.8356300173413,291.6693280207409L685.882151855176,292.09599662916304L685.9275263901307,292.6334744474474L685.9725817505998,293.2374377916491L686.0201214962528,292.8961241650924L686.0645902657759,291.56542769850074L686.1121386377664,289.64110152788805L686.1556757628456,288.2050291722894L686.2029394657003,288.04707906974113L686.2677232599037,286.8264007175546L686.3135463644055,286.37547035947375L686.3620005018275,286.10491214462525L686.4088070087979,285.94257721571614L686.4563122491012,286.54886956918165L686.4993059149214,284.80156672656125L686.5465351124263,283.8939233476046L686.591599099233,280.67530743680186L686.6389404391249,282.1218610845599L686.6825465749037,283.13053159983025L686.747606411905,280.07653406152167L686.7925927616748,279.65152048242527L686.8387264143245,278.97429567738754L686.8833073262343,281.24199235552686L686.9300707015174,277.5360255710509L686.973443926185,278.8309070212206L687.0205609813034,277.07454433450926L687.0643310174935,276.16146504909796L687.1126126281666,274.48770918719356L687.1568312339039,275.1723172671708L687.2238147441554,276.4275120748504L687.2696809803443,273.52142911198746L687.3144602980153,273.3259026047739L687.3628626774129,271.0975101234793L687.4068138666893,270.8863829253602L687.4548798189263,271.46339823956646L687.4988396345402,273.0762540453634L687.5460515793704,273.6217525489949L687.5904168328442,271.41575841662745L687.6387329488671,270.092161937207" fill="none"></path></g><g><path style="fill: none;" stroke="rgb(51, 187, 238)" stroke-width="2px" d="M640.8438197760607,336.7167675694399L640.8949912097776,336.2769598482032L640.9436006212737,334.3471913088668L640.9994992879099,333.0107408052074L641.0496614401458,332.32906757815005L641.0970976697496,331.66039615519446L641.1474582277467,330.26619272736093L641.1960245075556,329.1687906496252L641.251517736332,328.38009455837283L641.3023527428885,327.34561632286426L641.4101992136116,326.16394367639634L641.4595332374529,325.3166444494825L641.51337020944,322.69560862880564L641.5634978563262,320.7026336330427L641.6110030966295,319.2262395822359L641.6606994266435,314.3990581895721L641.7097746603616,312.7704821086452L641.7655094265863,309.11920973939056L641.8157492158592,307.49167211063957L641.864332748343,301.58918727890483L641.9744393194763,297.90709308352723L642.0294753523681,292.883081325543L642.0791285506949,287.8983627814714L642.1270909868826,282.5149922821974L642.1773652815054,280.12941866853413L642.2266734263345,273.91296421806L642.2823650608719,270.1830983344292L642.3332345727785,265.5526248702547L642.3806621760447,264.60394488721823L642.4364832056439,263.89399540791044L642.5484271866527,260.7939972603843L642.5980545059672,256.11922852323937L642.6455338672581,255.7069225412438L642.6966017849256,251.3781206649258L642.7457719083557,247.3734563281617L642.8003248663506,240.60776624461346L642.8506077873108,239.222383816857L642.8978283584784,234.02825951347504L642.9477317205912,233.86729316476703L642.9962376160378,231.94111510732384L643.1128656982787,233.60017480907447L643.1602846752075,228.40312089974248L643.2108781443158,225.00341190243148L643.2587888224789,222.400629842647L643.3121168405568,220.41674562717435L643.3612265796245,220.9152783729811L643.4110436783628,218.25888980594164L643.4587041927401,218.9168732471474L643.5083573910669,214.9487684757877L643.5624962848644,212.14569063315597L643.6725769769855,206.94538240671915L643.7198406798403,209.31399891982855L643.7702616221997,207.63892228667578L643.8240382098246,204.94501303193118L643.8742348674103,202.34349919277676L643.9250181159423,199.09373096989785L643.9732652212657,196.72165170085816L644.0242555018964,197.12800574090352L644.0776093989865,196.52738820523732L644.1291086335264,193.0707677873625L644.2373432894343,189.16720064610186L644.287634836732,188.23244362750108L644.3413596663322,183.30869793579203L644.3915304449057,182.88774039984662L644.4418392448782,180.6648293056616L644.4907937098722,181.58289587499948L644.5420427806259,182.4152124698333L644.594361517223,176.72210934471647L644.645670972339,176.68397401935243L644.6958503772499,177.78699943705837L644.8040160224583,175.77478312652008L644.8565762965037,174.42671836904793L644.9070835022375,169.95867631162744L644.956460657766,166.85563945279492L645.0098318075311,167.66784218772455L645.0577856173815,167.310733868989L645.1148833449223,167.8001638662918L645.1632943506572,167.53086855821127L645.2134737555681,165.1174714365813L645.2632994806438,164.3731281521475L645.3762958748208,161.95618560886945L645.42594044681,162.05414503114005L645.4764303998691,159.5796240944897L645.5276018335859,160.2059897871992L645.575279600638,159.0336842545874L645.6329811718,159.0339959235645L645.6822548112792,154.81202641555132L645.7351428861474,153.96770463013013L645.7879015659541,151.63151666834156L645.8354068062573,152.05939878180425L645.9536911452874,151.04948646580823L646.0025852259192,146.78433587327345L646.0515828226003,147.60297206745864L646.0994331164013,145.98307552927005L646.1539515690464,146.13704421928136L646.2040188315705,145.80721380890787L646.2537065352471,145.75005053383293L646.3019708932454,142.47876770116383L646.3535995228469,143.33077124480624L646.407419242159,140.74572347451672" fill="none"></path></g><g><path style="fill: none;" stroke="rgb(0, 153, 136)" stroke-width="2px" d="M507.4247787328507,333.90199835013425L508.1318882394605,333.2422867887593L508.82389302920626,331.9632541697671L509.51082553253485,330.7521991932178L510.20657415273115,328.9136453216914L510.90454836798796,326.2826017064064L511.59905479559234,324.9295926601621L512.2976069754579,322.7110147118039L512.9967112409198,319.6979047294455L513.6881208133818,316.63523855799883L514.7714335222555,313.5382761594922L515.4632744115896,311.12312300073194L516.1708324877466,306.7180267924487L516.8612586577401,302.38846800917815L517.5508739520137,295.8503749478782L518.2552489096539,290.0993708790925L518.9536716944579,284.53837299113593L519.6504813541598,275.9945263966044L520.3484987011036,269.4613014225263L521.0543832677965,266.2453385988881L522.1582007807741,261.07878027924255L522.8527244610534,251.50486623272013L523.6414304935447,245.6198590159985L524.4997424428702,242.9333183914855L525.353741223474,239.21031790733434L526.1843971349547,230.3618050456313L526.8855199633784,223.78606075280464L527.5761531654706,220.2628337235729L528.2715136004819,215.33412796583593L528.9695827054505,210.40656866523497L530.0628415813969,202.94640002204952L530.7607381596167,200.58137789216306L531.4585312217872,195.08094971248158L532.1536587456876,193.3288179653658L532.8474405609467,185.09987410204315L533.5445521424591,181.28841449912235L534.2573895371316,176.89046049476576L534.9528621145297,173.8294764836229L535.6393115429615,171.9928860842115L536.339261189493,166.66877533214L537.4506008687216,164.45948052801742L538.1447363638159,158.48953551066322L538.8324021058273,157.44085838190085L539.5326450478318,154.9820505030516L540.225029396425,151.6771708852887L540.9088736709489,147.30168820677076L541.6032075718043,144.9578752530763L542.2998619574323,143.12936914559324L542.9814633842207,140.34340556172026L543.6751675624428,139.37552239997038L544.770893570898,135.5578076352856L545.478900216602,131.0153588396984L546.1735532919429,130.40096781705788L546.8699833927973,127.78051997762304L547.567741949618,125.50455628541931L548.2541223673503,122.8723364860239L548.9488444533907,122.41891121931201L549.6413064390209,118.48765285634721L550.326634443585,117.53628110472437L551.0182855534955,116.82472308260154L552.1118808566022,115.13113997432146L552.8091994702132,115.38163840435979L553.4982626788906,114.40603084945838L554.1914320241912,112.69475970359309L554.9981929809524,111.94947366930506L555.8581698134046,108.96900545871944L556.7371763462581,107.18072453236812L557.551045405073,104.70037271040178L558.2373913174555,102.64920831075972L558.935960749996,101.69998632420555L560.0451783502134,99.86380483726674L560.750243414849,99.6065259047968L561.4471393379254,99.31142357416559L562.140213793514,97.58623722754953L562.8351084063033,95.84743714196838L563.5238524404953,96.07079867469332L564.2297628862004,94.65669735702357L564.923337669361,93.80823656642173L565.6192674426436,93.86211339852287L566.3182164340315,93.19074450923938L567.4183677535955,92.22496986920703L568.1170579548601,91.7862400563368L568.82146741785,91.10079054423443L569.5186652627368,89.98582584842882L570.2278105849834,88.33168210010297L570.9425889055809,87.90214915756962L571.6445226097245,88.20738269851188L572.3462147764195,89.0942111006886L573.0525737916718,87.937448222608L573.7557669410821,86.96191384252853L574.8571777059128,86.79881154979392L575.5623980446226,86.27873183884009L576.2602169858054,85.26299573465639L576.9613656932414,84.79428904329535L577.6696225027314,84.09085340409837L578.3690545690162,83.80952699172946L579.071091789209,82.79630118461472L579.7682033707215,83.03279566003926L580.472216022189,82.61173903883179L581.1684994753067,82.49984003725643" fill="none"></path></g><g><path style="fill: none;" stroke="rgb(0, 119, 187)" stroke-width="2px" d="M453.8089946641795,333.90199835013425L453.8645051456307,333.6820945509563L453.9156765793477,333.61477706141204L453.9648725817899,334.2318541693726L454.0138011677715,334.24139192936843L454.06309205992557,333.8037384751678L454.1133232228612,331.8170905373754L454.16598701295584,330.37501682900944L454.21566609029503,329.5254320475738L454.2655263207204,328.738005113074L454.37484789514633,326.5735962130461L454.42638163503597,324.01057795408553L454.4753274736923,320.5034272990739L454.5236349633779,318.9654655838442L454.5716836629402,316.49460957451635L454.6200256579755,314.3089486574031L454.6739230143246,312.2941351935441L454.72298962170527,311.92998197101656L454.7718319443123,310.86703145040036L454.82082091465594,308.9626105029021L454.9329029170639,310.3533496284391L454.98198677711946,309.498890590397L455.0303373984922,309.6899195557985L455.0794988955847,310.6489707693362L455.128229075805,312.06883178837415L455.1811171506733,312.4985301162313L455.23054606422653,312.7563486438335L455.2784998740769,312.6295619265634L455.32903295882295,310.44241259122435L455.3774180855455,310.9597238339898L455.4909061809568,310.2849412506035L455.5397830089136,310.5837642858045L455.5894448335779,309.2149347472741L455.63839067223427,310.08249871149684L455.69095957261715,309.8993445900808L455.7399571692982,307.6783755205052L455.7885061964322,308.4568706834522L455.83761593549997,305.12402875107415L455.88644100543223,304.67244771238757L455.939087542852,303.8385449437382L456.0508762497869,303.61967993671885L456.1027809221866,302.92540762588646L456.1514075863575,299.97555100432305L456.20453719867425,299.3315453227828L456.2547683616097,296.8340653367441L456.3038177163155,294.49114570780785L456.3528498183463,291.53727065997737L456.4022614792247,290.60937726879536L456.4552789491546,287.6600880038696L456.505216816617,285.609036113973L456.6158927260217,279.452560193011L456.6650542231141,278.1512278706574L456.71786466094534,275.96304353335654L456.767630001659,273.24274798708825L456.8159633703569,271.46983233271345L456.86489195633834,267.45057472569516L456.9139930690688,268.41674503345877L456.96335297192246,268.1520155806902L457.0165429686012,268.2746545622602L457.066584352113,267.9260229713555L457.1748103816835,264.19838249595733L457.22270380717185,260.41367661794743L457.27458260055914,260.81688129683704L457.32361470259,257.2588659300844L457.37134422766684,253.5759351172618L457.42019517661134,248.6921450684063L457.46705344160637,245.19891773263078L457.5214424991898,241.2733797296969L457.5698880102745,238.3551036214743L457.6194721979017,232.24124647599223L457.72811229166956,231.8099170563271L457.7813712990479,231.551119404528L457.8296874150709,232.94396240621967L457.8793492397352,229.69825337991722L457.92804491460566,229.72116789221988L457.9766025680771,227.76457667151732L458.03001684952943,226.16840695924913L458.0777463746063,228.0254750196657L458.1279171531797,225.05830102859815L458.17598310541683,223.70021161380433L458.28983350700076,222.46314298508133L458.3379684699374,218.06170196037675L458.3869660666185,217.10969726494062L458.43466971268305,216.538494447679L458.4838484624504,215.49208112424424L458.5370643381415,214.30127982372116L458.586536383382,208.94242755416124L458.63587903356085,210.23074935505582L458.6880683750961,209.87783246720173L458.7371436088141,206.5698391489471L458.85018313467833,203.45913318960348L458.8986027667507,199.62236968591316L458.94742783668295,197.88326489016117L458.9964599387137,198.6694036141786L459.0465875856,197.7337035824335L459.10016576746375,196.04637695046202L459.1491374851324,196.44136423743467L459.1989718365456,195.55244999669384L459.24884069330847,194.87835977016738L459.298235101512,192.92578739694682" fill="none"></path></g><g><path style="fill: none;" stroke="rgb(51, 187, 238)" stroke-width="2px" d="M362.7979773920558,332.84645985193436L363.0921700042409,333.5061714133093L363.3853274559327,333.3490973211948L363.67496536194744,328.9140616538101L363.964620520637,324.97326139681763L364.25368908838044,319.5667239169359L364.5450695145588,313.1586806118454L364.8294022230455,306.42462518187943L365.118237879678,302.03080192369686L365.4068665042118,293.61763998638185L365.90998038294947,283.6586365610567L366.27393418604294,278.6937279156987L366.6370426080669,268.9574292614195L367.007362648194,258.6166297068469L367.37489638132666,248.3340038916574L367.75259193996817,237.24028869280738L368.1008975669385,227.63005432644712L368.44774534288086,216.93860643281204L368.747691722141,211.93190505301257L369.04108208494375,202.45387304624256L369.4520149217565,192.40428843625764L369.74377490678233,182.7154273981312L370.0328521008632,176.76145631023687L370.3241203846548,170.79653750581866L370.6168551458119,166.79538477652218L370.9096675440059,160.59475576311024L371.20326493890735,152.23001223718907L371.49145362023154,146.3667411225766L371.7822474554637,142.28582724430848L372.0695821293809,138.85210802010593L372.48959849952195,135.66597020914253L372.7818933174694,128.96918430728434L373.0727647897385,124.81037141847042L373.3635327459584,122.3150838122807L373.65471476637555,119.97348132011268L373.94503415304837,116.31670660149922L374.23956319239375,112.9967284636453L374.5310212556091,111.98991323951591L374.82206525462715,111.94877741514739L375.1134801861553,108.12415774141891L375.53133134559795,107.09603423647627L375.8230309462618,101.41257366250744L376.1159468605051,99.26914561524865L376.4082675574649,98.54604209384934L376.6987508445491,97.54922667456913L376.9925293925368,94.69931748614528L377.28510025328245,95.10045022798334L377.5767998539463,94.4966999133643L377.8711649928802,92.58632477634325L378.16144124786575,91.8623180294635L378.57882658508646,91.00569564602438L378.86767949439377,91.19541720450974L379.1588356357986,90.32407849782356L379.4491895278212,87.97168038327516L379.73928462972043,87.2639297921595L380.03185549046606,86.98002111957237L380.3237448705536,85.96524595632667L380.61350354529253,83.80825591014167L380.90363315254154,83.21775016004227L381.19815356554943,82.15975843237129L381.6201108616154,82.22865167338011L381.9091362976716,83.25515925976077L382.2001457913399,82.46368054543353L382.49370868089153,81.425840010375L382.7843127367,81.6475656490332L383.07823793242426,80.65469441930361L383.3701876968739,80.19970665261508L383.6627758102944,80.06745567468391L383.9544926636331,79.7066284346941L384.2452174881658,78.64570213100689L384.65633147806477,78.14988131994369L384.9475221248194,77.57091218007469L385.24006710655266,77.78648400261545L385.53351785371757,76.64918551206637L385.82391487742734,76.10754138888609L386.1075488525811,76.76772655675319L386.3939863874042,76.46014266892934L386.67952678313304,77.40149894915936L386.96542948503463,76.98114778645493L387.25173762479596,77.99557867290588L387.66794978012433,75.6487289903834L387.9600634449854,76.35169743556963L388.2492010234284,75.64757188975688L388.5416252364375,73.95844826726295L388.8369306461528,73.22645074699761L389.1291909587504,74.19464221192675L389.42323692319894,74.3533387555712L389.71415152715537,73.88560337529566L390.004410529466,73.74569711827951L390.29177108239554,73.80249504615176L390.70551610521494,73.55509714964398L390.99670675196955,73.40665841173933L391.286689711482,74.02129015754065L391.5798989211985,73.12342091001511L391.87473850869185,74.41430096296835L392.16725761141277,73.78143901765202L392.45833611578064,74.52763517431936L392.7496734102718,75.25682952155097L393.044452613403,73.72400284633937L393.3355742494581,74.4931734715318" fill="none"></path></g><g><path style="fill: none;" stroke="rgb(204, 51, 17)" stroke-width="2px" d="M86.2613127438526,335.3093829270189L86.29529188704393,335.08947912784095L86.3198769487589,335.02216163829667L86.34883556355791,334.6690746854117L86.3805459800015,334.9467933883988L86.41669896022867,333.91791823848655L86.45181677996258,332.6082415190937L86.48502817912141,332.9914421186178L86.5101480737579,332.5063451529136L86.54244508114768,331.36886693889346L86.61498395271302,330.8320488824975L86.64691002759271,328.39552482984567L86.67858593868652,328.7690021014624L86.70328314278827,327.16174102703786L86.7281183682891,326.4798003334789L86.77466608513612,327.47862285888567L86.79921664150132,324.8402035508757L86.8225250052746,323.96120134340566L86.8458765007351,322.16713418871365L86.86925387520795,321.79448164687165L86.91361050234423,319.17829270569524L86.93707414019148,319.71972043552756L86.96042563565199,319.20013504518016L86.98287999201834,317.0587778439922L87.00605033439253,315.91470874384055L87.03011781586086,315.36900793212067L87.05357282737069,312.7897708325482L87.07682943311931,312.36813840549803L87.10079339853831,310.1448201386429L87.12450720017146,308.38861379076127L87.16757850302861,306.63119850409475L87.1921290593938,304.5915802777043L87.21630005691148,303.5085477790949L87.23887518200203,303.28094330497174L87.26246821491095,300.04813403043613L87.28604399514501,296.70106522061036L87.30938686426806,295.53725392172896L87.33187572598418,293.99453718418073L87.35531348481912,291.94299885215196L87.37786273089735,293.2453674160595L87.42114969219058,294.1675268800182L87.44488937283607,291.06162270868833L87.4687411958683,289.05734188019085L87.49144571602052,286.72886677034325L87.51444353164582,286.03547333784377L87.53827810200319,285.47869895176586L87.56220756207243,280.35952618183387L87.58495521391185,278.41393081068014L87.60815143529837,278.23174187433807L87.63181347890685,276.15209026216746L87.67482439740189,276.59316089200394L87.6980810031505,278.40592654041325L87.72217436363118,277.523247679101L87.74538783769258,275.3047787651931L87.7681699948818,273.69222076361854L87.79146110598018,272.161732656212L87.81534743436221,269.55457819464823L87.83795706480254,269.2569304572505L87.86180888783478,264.4339736810319L87.88537604173139,265.480876116003L87.9294048680448,265.82754092375455L87.95278224251763,264.90963319548104L87.97566791575616,260.9811653642772L87.99962325483773,260.5944212381727L88.02203447951686,258.9549914963544L88.04529971160292,258.8157636109568L88.06840966961501,259.5766568394116L88.09170078071338,253.6999613678517L88.11500914448668,250.03320575830026L88.13862805640794,254.30712212781762L88.18094886790746,251.66415050928615L88.203834541146,251.34501247770726L88.22679785142152,248.33875977098245L88.25104648597619,243.57949993255457L88.27320754686944,241.00542403819532L88.29700761187702,239.46097850157975L88.32007443820189,239.2380028126882L88.34333967028795,237.97830743096245L88.36580265299173,239.05209180339557L88.38907651141524,237.1630691923091L88.43210468258516,235.74817897242608L88.45500760849859,237.010323095196L88.47884217885594,235.2343163343116L88.50248696978953,231.35394239000345L88.52608862903591,231.27753460473386L88.5489052915749,232.21685821988095L88.57204975493674,231.3730691228137L88.5991882125351,230.5853190113422L88.62172020593843,228.70528232283738L88.64498543802449,228.1402136161967L88.68826377298029,226.81600410590343L88.71082164539597,225.03631011341858L88.73418176719392,223.546278738081L88.75697255072056,222.08930660641627L88.78112629556334,219.94847503241104L88.80426213258774,224.85646917002504L88.82745835397427,224.70501911158487L88.85098237618364,220.95494922905L88.87403194983361,218.00121566645126L88.89735756628178,218.90300709005393" fill="none"></path></g></g></g></g><g opacity="0.2"><g><g><g><path style="fill: none;" stroke="rgb(0, 119, 187)" stroke-width="2px" d="M789.7598603787114,332.84645985193436L790.1624429208783,306.10615315327277L790.5329613667666,254.73661780093266L790.9766225278413,194.21907863558255L791.4309199629843,165.36768812473008L791.8317254796378,136.16446018600465L792.2086705469218,122.79430238019506L792.5858053936295,106.2575406142015L792.9885000781833,97.81322423993629L793.385285721588,95.35031191283008L793.9052037056664,85.85046647761419L794.2689763556734,84.09122900625374L794.8174130113412,83.03569994530307L795.3450515674317,82.6838457400982L795.7314856059038,77.40615010334892L796.1052130493213,80.92460826873781L796.4518451668275,79.16538757470931L796.9672860817724,78.10984173642674L797.3641148568645,77.75800430855378L797.852865883758,74.94323777624271L798.3518218678478,73.18400030488232L798.7423706692807,74.94323777624271L799.1958831077162,75.29507520411562L799.6183924893786,74.23954614316494L800.0637357862548,74.23954614316494L800.4261195959334,73.53583773275523L800.7806361858634,72.83214609967746L801.2187247329492,74.59138357103785L801.692647085777,71.77661703872678" fill="none"></path></g><g><path style="fill: none;" stroke="rgb(255, 112, 67)" stroke-width="2px" d="M688.7875971959766,336.7167675694399L689.4781355083568,334.95753684833414L690.1789564149701,332.14276769456495L690.8769220038895,329.6798443573347L691.5825995384836,324.75399820716564L692.2798146360453,321.9392295776881L692.9804457632349,322.994768075888L693.6789289324008,321.58738271256595L694.3789820949816,315.25415277194975L695.0805103612653,314.9023069554109L696.18977109317,309.6246134158281L696.8980106499849,309.27276759928924L697.598089691578,304.69876778995075L698.2928376566309,307.16169060288945L698.980615541029,305.75430523956743L699.6756481752175,299.42107425036795L700.3788758299776,300.4766158943176L701.0822760114866,288.1619997324577L701.7714341098757,287.106458088508L703.077936047434,290.273074631691L704.1676581250284,281.82876664609176L705.3096558075325,275.14369193752L706.933710479074,270.2178463116426L708.6842100048672,269.86600049510366L710.373402150447,264.9401548692263L712.0271055437829,255.7921552505493L714.0837537854584,251.56999706341674L716.1175336065703,253.68107196265004L717.7189268896467,248.40338471456676L719.3267381677812,231.8666145599072L721.7087200998142,229.0518480275961L722.5931353462449,223.77415239084687L723.40619352934,223.42230657430798L724.2118330622336,214.97799858870874L725.0153936478031,204.4226157038762L725.8285208415979,198.79307425058806L726.6749198189135,196.6819909626888L727.4826210464561,194.21907863558255L728.3102318608192,188.23769136575555L729.3686058281426,181.55261246285073L730.9052066906781,179.44153756361743L731.7698158663378,172.4046212328397L732.5946576263814,168.534308862246L733.4324388925907,162.9047757976238L734.2832890600273,157.9789175887475L735.116627762453,160.44184669318565L735.9739563093101,155.16415105643642L736.8164820611136,154.10862199548575L737.6554106302028,136.5163143912095L738.5526359877376,135.46076855292688L739.8888642841274,135.10891434772202L740.7360655108255,130.88676454925542L741.6030814346319,133.34969365369358L742.5184221007988,127.36830638386658L743.4345391373358,122.44246495232215L744.6099379984224,116.81291511036807L745.783214780498,120.68322748096176L746.765297419468,117.16476931557293L747.6899631564116,110.83154461787296L748.7209053706637,105.90568640899664L750.0444356983362,108.01676130822995L750.9091225110328,104.85015734804591L751.7735332809312,105.90568640899664L752.6285672220283,102.03539081573484L753.4410646931897,98.86877007821892L754.2430121536571,99.22060750609182L755.1037049721174,99.57246171129668L755.9601622588925,93.59107444146969L756.8315431094456,96.05400354590785L757.7301228019592,99.92429913916959L759.011427207844,94.29476607454745L759.7814485934318,90.0726162760808L760.6781132390328,90.0726162760808L761.6089468072489,88.3133788047204L762.5949889351057,86.90599553856487L763.5941258432022,84.79492063933156L764.4996928690452,83.73939157838083L765.4193035722469,80.5727708408649L766.3648709248171,83.73939157838083L767.2669442839954,86.2023039054871L768.8020959218404,82.6838457400982L769.9770375870426,80.22091663566005L770.9813934292926,81.62829990181558L771.9167730773415,87.96154137684749L772.932369037281,77.40615010334892L773.7630853331237,83.73939157838083L774.5236781318855,78.46169594163155L775.4918982465832,80.22091663566005L776.8482862935792,75.99876683719339L777.850787473279,77.75800430855378L779.3028243498525,75.64692940932048L780.396203994523,75.99876683719339L781.6322115024902,78.81353336950451L783.0364584696248,77.75800430855378L784.6718654012423,72.48030867180455L785.6183816509313,77.05431267547601L786.5085765434493,74.23954614316494L787.3687345289879,72.83214609967746L788.2516142873537,77.75800430855378L789.1743304720352,73.88769193796008" fill="none"></path></g><g><path style="fill: none;" stroke="rgb(187, 187, 187)" stroke-width="2px" d="M682.754750851945,335.66122913677646L682.8193793720744,336.36492142521877L682.8810145531106,334.60569050750365L682.9407519399093,333.5501522714496L682.9977892830881,332.84645985193436L683.0583375456065,333.19830619276485L683.1087412352908,332.14276769456495L683.1715323455447,328.97615219996527L683.2361522393365,332.84645985193436L683.2926116179066,331.79092135373446L683.3843268376096,329.6798443573347L683.4402082515709,327.21692102010434L683.495330547837,329.6798443573347L683.5398855807346,327.56876788522646L683.5855189058125,328.62430638342636L683.6308071773927,325.80953670536553L683.6760350646108,327.21692102010434L683.721245699154,325.4576908888267L683.767793416001,324.05030657408787L683.814358385523,320.8836910794882L683.8797460233474,324.4021523906268L683.924810010154,323.69845970896574L683.9700724027219,320.53184421436606L684.0157057277999,321.23553689602704L684.0594067532903,317.71707558488845L684.1034269532663,318.4207672179662L684.1488359935707,320.8836910794882L684.19503865692,317.0133839518107L684.2402579178007,315.9578444050276L684.2868228873226,316.6615360381053L684.352521073295,314.1986132251666L684.399146427179,315.9578444050276L684.4433995382659,316.3096902215664L684.490007639475,312.4393820453057L684.53649497196,310.32830714607235L684.5829909307823,313.4949215920889L684.628054917589,311.383844595689L684.6734208262062,310.32830714607235L684.7197873899669,307.8653822359672L684.7649203874731,311.0319987791502L684.8344486672705,308.9209217827504L684.8792021059293,302.5876907935509L684.9255514170151,308.21723014967256L684.9705981511469,303.29138242662873L685.016041696801,305.4024594230285L685.0630811148824,302.5876907935509L685.1090249881082,302.5876907935509L685.1551672670954,302.5876907935509L685.199549773244,300.8284617108565L685.2468479814487,299.77292006690686L685.3134864382024,300.1247658834458L685.3588437204822,299.77292006690686L685.40373518054,299.42107425036795L685.4495841640542,301.5321533439343L685.4944669977743,303.995076156873L685.5400571911651,295.1989202575684L685.5874847944315,298.71738261729024L685.6322813647774,292.73599954179616L685.6780872166041,298.36553680075133L685.7219176371564,295.5507660741073L685.7897033967903,291.32861208130765L685.8356300173413,287.4583080993799L685.882151855176,292.73599954179616L685.9275263901307,293.43969117487393L685.9725817505998,294.14338280795175L686.0201214962528,292.3841537252573L686.0645902657759,289.5693829986132L686.1121386377664,286.75461227196917L686.1556757628456,286.0509206388914L686.2029394657003,287.8101539159188L686.2677232599037,284.9953831892747L686.3135463644055,285.6990748223525L686.3620005018275,285.6990748223525L686.4088070087979,285.6990748223525L686.4563122491012,287.4583080993799L686.4993059149214,282.1806124626307L686.5465351124263,282.53245827916953L686.591599099233,275.84738357059774L686.6389404391249,284.29169155619695L686.6825465749037,284.64353737273586L686.747606411905,275.49553775405883L686.7925927616748,279.0140001137807L686.8387264143245,277.95845846983104L686.8833073262343,284.64353737273586L686.9300707015174,271.977075394337L686.973443926185,280.7732291964751L687.0205609813034,274.4400003044422L687.0643310174935,274.79184612098106L687.1126126281666,271.977075394337L687.1568312339039,276.1992293871366L687.2238147441554,278.31030428636996L687.2696809803443,269.162304667693L687.3144602980153,273.03261284395364L687.3628626774129,267.7549214015374L687.4068138666893,270.5696921281815L687.4548798189263,272.32892121087593L687.4988396345402,275.49553775405883L687.5460515793704,274.4400003044422L687.5904168328442,268.10676721807624L687.6387329488671,268.10676721807624" fill="none"></path></g><g><path style="fill: none;" stroke="rgb(51, 187, 238)" stroke-width="2px" d="M640.8438197760607,336.7167675694399L640.8949912097776,336.0130752154612L640.9436006212737,332.49461351110386L640.9994992879099,331.43907501290397L641.0496614401458,331.43907501290397L641.0970976697496,330.73538285553457L641.1474582277467,328.27245951830423L641.1960245075556,327.56876788522646L641.251517736332,327.21692102010434L641.3023527428885,325.80953670536553L641.4101992136116,324.4021523906268L641.4595332374529,324.05030657408787L641.51337020944,318.7726130345051L641.5634978563262,317.71707558488845L641.6110030966295,317.0133839518107L641.6606994266435,307.16169060288945L641.7097746603616,310.32830714607235L641.7655094265863,303.6432282431676L641.8157492158592,305.0506136064896L641.864332748343,292.73599954179616L641.9744393194763,292.3841537252573L642.0294753523681,285.34722900581363L642.0791285506949,280.42138337993623L642.1270909868826,274.4400003044422L642.1773652815054,276.5510752036755L642.2266734263345,264.58830905268746L642.2823650608719,264.58830905268746L642.3332345727785,258.6069217828604L642.3806621760447,263.1809257865319L642.4364832056439,262.82907158132707L642.5484271866527,256.1440010670882L642.5980545059672,249.10707634764452L642.6455338672581,255.08846361747155L642.6966017849256,244.88491816051192L642.7457719083557,241.36645999512308L642.8003248663506,230.45923129375166L642.8506077873108,237.14431019665645L642.8978283584784,226.23707310661905L642.9477317205912,233.6258436426016L642.9962376160378,229.0518480275961L643.1128656982787,236.08876435837382L643.1602846752075,220.60754004199688L643.2108781443158,219.90384840891912L643.2587888224789,218.4964567540976L643.3121168405568,217.44091930448096L643.3612265796245,221.66307749161354L643.4110436783628,214.27430695563098L643.4587041927401,219.90384840891912L643.5083573910669,208.99661131888172L643.5624962848644,207.94107386926507L643.6725769769855,199.14492006712698L643.7198406798403,212.86692368947544L643.7702616221997,205.12630733695397L643.8240382098246,200.9041491498214L643.8742348674103,198.44122843404918L643.9250181159423,194.21907863558255L643.9732652212657,193.16353279729995L644.0242555018964,197.7375368009714L644.0776093989865,195.6264619017381L644.1291086335264,187.8858371605507L644.2373432894343,183.31184993421112L644.287634836732,186.8303080996L644.3413596663322,175.9230793982286L644.3915304449057,182.2563040959285L644.4418392448782,177.33046266438413L644.4907937098722,182.95999572900627L644.5420427806259,183.66368736208406L644.594361517223,168.18245465704115L644.645670972339,176.62677103130636L644.6958503772499,179.44153756361743L644.8040160224583,172.7564586607126L644.8565762965037,172.4046212328397L644.9070835022375,163.25661322549678L644.956460657766,162.20108416454605L645.0098318075311,168.88614629011892L645.0577856173815,166.7750713908856L645.1148833449223,168.534308862246L645.1632943506572,167.12692559609047L645.2134737555681,161.49737575413639L645.2632994806438,163.25661322549678L645.3762958748208,158.33077179395235L645.42594044681,162.20108416454605L645.4764303998691,155.8678426895142L645.5276018335859,161.14553832626342L645.575279600638,157.27522595566973L645.6329811718,159.03446342703012L645.6822548112792,148.4790721535316L645.7351428861474,152.70122195199826L645.7879015659541,148.1272347256587L645.8354068062573,152.70122195199826L645.9536911452874,149.53461799181423L646.0025852259192,140.3866099844713L646.0515828226003,148.83092635873646L646.0994331164013,143.55323072198723L646.1539515690464,146.3679972542983L646.2040188315705,145.31246819334763L646.2537065352471,145.66430562122054L646.3019708932454,137.57184345216018L646.3535995228469,144.60877656026986L646.407419242159,136.8681518190824" fill="none"></path></g><g><path style="fill: none;" stroke="rgb(0, 153, 136)" stroke-width="2px" d="M507.4247787328507,333.90199835013425L508.1318882394605,332.84645985193436L508.82389302920626,330.73538285553457L509.51082553253485,329.32799854079576L510.20657415273115,326.51322938702657L510.90454836798796,322.64292121076585L511.59905479559234,322.994768075888L512.2976069754579,319.4763067647494L512.9967112409198,315.25415277194975L513.6881208133818,312.0875362287668L514.7714335222555,308.9209217827504L515.4632744115896,307.5135364194283L516.1708324877466,300.1247658834458L516.8612586577401,295.90261189064614L517.5508739520137,286.0509206388914L518.2552489096539,281.4769208295529L518.9536716944579,276.1992293871366L519.6504813541598,263.1809257865319L520.3484987011036,259.6624592324771L521.0543832677965,261.4216883151715L522.1582007807741,253.32922614611115L522.8527244610534,237.14431019665645L523.6414304935447,236.79246438011756L524.4997424428702,238.90353927935087L525.353741223474,233.6258436426016L526.1843971349547,217.08907348794207L526.8855199633784,213.9224611390921L527.5761531654706,214.97799858870874L528.2715136004819,207.94107386926507L528.9695827054505,203.01523243772067L530.0628415813969,191.7561495311444L530.7607381596167,197.03384516789365L531.4585312217872,186.8303080996L532.1536587456876,190.7006204701937L532.8474405609467,172.7564586607126L533.5445521424591,175.57122519302374L534.2573895371316,170.29352955627445L534.9528621145297,169.23800049532377L535.6393115429615,169.23800049532377L536.339261189493,158.68260922182526L537.4506008687216,161.14553832626342L538.1447363638159,149.53461799181423L538.8324021058273,155.8678426895142L539.5326450478318,151.29383868584273L540.225029396425,146.71985145950316L540.9088736709489,140.73846418967617L541.6032075718043,141.44215582275393L542.2998619574323,140.3866099844713L542.9814633842207,136.16446018600465L543.6751675624428,137.92369765736504L544.770893570898,129.83123548830474L545.478900216602,124.2016856463506L546.1735532919429,129.47938128309988L546.8699833927973,123.84984821847769L547.567741949618,122.0906107471173L548.2541223673503,118.92400678693332L548.9488444533907,121.73877331924439L549.6413064390209,112.59076531190141L550.326634443585,116.1092234772903L551.0182855534955,115.75738604941733L552.1118808566022,112.59076531190141L552.8091994702132,115.75738604941733L553.4982626788906,112.94261951710627L554.1914320241912,110.1278529847952L554.9981929809524,110.83154461787296L555.8581698134046,104.49830314284111L556.7371763462581,104.49830314284111L557.551045405073,100.97984497745222L558.2373913174555,99.57246171129668L558.935960749996,100.27615334437445L560.0451783502134,97.10953260685852L560.750243414849,99.22060750609182L561.4471393379254,98.86877007821892L562.140213793514,94.99845770762522L562.8351084063033,93.23923701359672L563.5238524404953,96.40584097378076L564.2297628862004,92.53554538051895L564.923337669361,92.53554538051895L565.6192674426436,93.94292864667449L566.3182164340315,92.1836911753141L567.4183677535955,90.77630790915856L568.1170579548601,91.12814533703153L568.82146741785,90.0726162760808L569.5186652627368,88.3133788047204L570.2278105849834,85.85046647761419L570.9425889055809,87.25784974376973L571.6445226097245,88.66523300992526L572.3462147764195,90.4244537039537L573.0525737916718,86.2023039054871L573.7557669410821,85.49861227240933L574.8571777059128,86.55415811069196L575.5623980446226,85.49861227240933L576.2602169858054,83.73939157838083L576.9613656932414,84.09122900625374L577.6696225027314,83.03569994530307L578.3690545690162,83.38753737317597L579.071091789209,81.27646247394267L579.7682033707215,83.38753737317597L580.472216022189,81.98015410702044L581.1684994753067,82.33199153489335" fill="none"></path></g><g><path style="fill: none;" stroke="rgb(0, 119, 187)" stroke-width="2px" d="M453.8089946641795,333.90199835013425L453.8645051456307,333.5501522714496L453.9156765793477,333.5501522714496L453.9648725817899,334.95753684833414L454.0138011677715,334.253844428819L454.06309205992557,333.19830619276485L454.1133232228612,328.97615219996527L454.16598701295584,328.27245951830423L454.21566609029503,328.27245951830423L454.2655263207204,327.56876788522646L454.37484789514633,323.34661389242683L454.42638163503597,320.17999839782715L454.4753274736923,315.25415277194975L454.5236349633779,316.6615360381053L454.5716836629402,312.79122995901105L454.6200256579755,311.0319987791502L454.6739230143246,309.27276759928924L454.72298962170527,311.383844595689L454.7718319443123,309.27276759928924L454.82082091465594,306.10615315327277L454.9329029170639,312.4393820453057L454.98198677711946,308.21723014967256L455.0303373984922,309.976459232367L455.0794988955847,312.0875362287668L455.128229075805,314.1986132251666L455.1811171506733,313.14307577554996L455.23054606422653,313.14307577554996L455.2784998740769,312.4393820453057L455.32903295882295,307.16169060288945L455.3774180855455,311.73569041222794L455.4909061809568,309.27276759928924L455.5397830089136,311.0319987791502L455.5894448335779,307.16169060288945L455.63839067223427,311.383844595689L455.69095957261715,309.6246134158281L455.7399571692982,304.34692197341184L455.7885061964322,309.6246134158281L455.83761593549997,300.1247658834458L455.88644100543223,303.995076156873L455.939087542852,302.5876907935509L456.0508762497869,303.29138242662873L456.1027809221866,301.8839991604732L456.1514075863575,295.5507660741073L456.20453719867425,298.36553680075133L456.2547683616097,293.0878453583351L456.3038177163155,290.9767662647688L456.3528498183463,287.106458088508L456.4022614792247,289.21753718207435L456.4552789491546,283.23615410658033L456.505216816617,282.53245827916953L456.6158927260217,270.2178463116426L456.6650542231141,276.1992293871366L456.71786466094534,272.6807670274148L456.767630001659,269.162304667693L456.8159633703569,268.81045885115407L456.86489195633834,261.4216883151715L456.9139930690688,269.86600049510366L456.96335297192246,267.7549214015374L457.0165429686012,268.45861303461515L457.066584352113,267.40307558499853L457.1748103816835,258.6069217828604L457.22270380717185,254.73661780093266L457.27458260055914,261.4216883151715L457.32361470259,251.92184287995562L457.37134422766684,248.05153889802787L457.42019517661134,241.36645999512308L457.46705344160637,239.95907672896752L457.5214424991898,235.38507272529606L457.5698880102745,233.97768945914052L457.6194721979017,223.0704607577691L457.72811229166956,231.16292292682942L457.7813712990479,231.16292292682942L457.8296874150709,235.03322690875717L457.8793492397352,224.82968984046352L457.92804491460566,229.7555396606739L457.9766025680771,224.82968984046352L458.03001684952943,223.77415239084687L458.0777463746063,230.81107711029054L458.1279171531797,220.60754004199688L458.17598310541683,221.66307749161354L458.28983350700076,220.60754004199688L458.3379684699374,211.45954042331988L458.3869660666185,215.6816902217865L458.43466971268305,215.6816902217865L458.4838484624504,213.9224611390921L458.5370643381415,212.51507787293656L458.586536383382,200.9041491498214L458.63587903356085,212.16323205639767L458.6880683750961,209.3484571354206L458.7371436088141,201.60784917156514L458.85018313467833,198.79307425058806L458.8986027667507,193.86722443037772L458.94742783668295,195.27460769653325L458.9964599387137,199.84861170020474L459.0465875856,196.33015353481588L459.10016576746375,193.51538700250478L459.1491374851324,197.03384516789365L459.1989718365456,194.21907863558255L459.24884069330847,193.86722443037772L459.298235101512,189.99692883711595" fill="none"></path></g><g><path style="fill: none;" stroke="rgb(51, 187, 238)" stroke-width="2px" d="M362.7979773920558,332.84645985193436L363.0921700042409,333.90199835013425L363.3853274559327,333.19830619276485L363.67496536194744,323.69845970896574L363.964620520637,319.82815258128824L364.25368908838044,312.0875362287668L364.5450695145588,303.995076156873L364.8294022230455,296.6063077180569L365.118237879678,295.5507660741073L365.4068665042118,281.125075013014L365.90998038294947,268.81045885115407L366.27393418604294,271.2733837612592L366.6370426080669,254.38477198439378L367.007362648194,243.1256890778175L367.37489638132666,232.92215200952384L367.75259193996817,220.60754004199688L368.1008975669385,213.21876950601433L368.44774534288086,200.9041491498214L368.747691722141,204.4226157038762L369.04108208494375,188.23769136575555L369.4520149217565,177.33046266438413L369.74377490678233,168.18245465704115L370.0328521008632,167.83061722916824L370.3241203846548,161.8492299593412L370.6168551458119,160.79368412105862L370.9096675440059,151.29383868584273L371.20326493890735,139.68291835139354L371.49145362023154,137.57184345216018L371.7822474554637,136.16446018600465L372.0695821293809,133.7015310815665L372.48959849952195,130.88676454925542L372.7818933174694,118.92400678693332L373.0727647897385,118.57215258172846L373.3635327459584,118.57215258172846L373.65471476637555,116.46107768249516L373.94503415304837,110.83154461787296L374.23956319239375,108.01676130822995L374.5310212556091,110.4796904126681L374.82206525462715,111.88707367882364L375.1134801861553,102.38722824360775L375.53133134559795,105.55384898112374L375.8230309462618,92.88738280839192L376.1159468605051,96.05400354590785L376.4082675574649,97.46138681206338L376.6987508445491,96.05400354590785L376.9925293925368,90.4244537039537L377.28510025328245,95.70214934070299L377.5767998539463,93.59107444146969L377.8711649928802,89.72076207087594L378.16144124786575,90.77630790915856L378.57882658508646,89.72076207087594L378.86767949439377,91.47999954223633L379.1588356357986,89.01707043779817L379.4491895278212,84.44308321145866L379.73928462972043,86.2023039054871L380.03185549046606,86.55415811069196L380.3237448705536,84.44308321145866L380.61350354529253,80.5727708408649L380.90363315254154,82.33199153489335L381.19815356554943,80.5727708408649L381.6201108616154,82.33199153489335L381.9091362976716,84.79492063933156L382.2001457913399,81.27646247394267L382.49370868089153,79.86907920778714L382.7843127367,81.98015410702044L383.07823793242426,79.16538757470931L383.3701876968739,79.51722500258228L383.6627758102944,79.86907920778714L383.9544926636331,79.16538757470931L384.2452174881658,77.05431267547601L384.65633147806477,77.40615010334892L384.9475221248194,76.70245847027115L385.24006710655266,78.10984173642674L385.53351785371757,74.94323777624271L385.82391487742734,75.29507520411562L386.1075488525811,77.75800430855378L386.3939863874042,75.99876683719339L386.67952678313304,78.81353336950451L386.96542948503463,76.35062104239825L387.25173762479596,79.51722500258228L387.66794978012433,72.12845446659969L387.9600634449854,77.40615010334892L388.2492010234284,74.59138357103785L388.5416252364375,71.42476283352192L388.8369306461528,72.12845446659969L389.1291909587504,75.64692940932048L389.42323692319894,74.59138357103785L389.71415152715537,73.18400030488232L390.004410529466,73.53583773275523L390.29177108239554,73.88769193796008L390.70551610521494,73.18400030488232L390.99670675196955,73.18400030488232L391.286689711482,74.94323777624271L391.5798989211985,71.77661703872678L391.87473850869185,76.35062104239825L392.16725761141277,72.83214609967746L392.45833611578064,75.64692940932048L392.7496734102718,76.35062104239825L393.044452613403,71.42476283352192L393.3355742494581,75.64692940932048" fill="none"></path></g><g><path style="fill: none;" stroke="rgb(204, 51, 17)" stroke-width="2px" d="M86.2613127438526,335.3093829270189L86.29529188704393,334.95753684833414L86.3198769487589,334.95753684833414L86.34883556355791,334.253844428819L86.3805459800015,335.3093829270189L86.41669896022867,332.49461351110386L86.45181677996258,330.73538285553457L86.48502817912141,333.5501522714496L86.5101480737579,331.79092135373446L86.54244508114768,329.6798443573347L86.61498395271302,330.03169069816516L86.64691002759271,324.75399820716564L86.67858593868652,329.32799854079576L86.70328314278827,324.75399820716564L86.7281183682891,325.4576908888267L86.77466608513612,328.97615219996527L86.79921664150132,320.8836910794882L86.8225250052746,322.64292121076585L86.8458765007351,319.4763067647494L86.86925387520795,321.23553689602704L86.91361050234423,315.25415277194975L86.93707414019148,320.53184421436606L86.96042563565199,318.4207672179662L86.98287999201834,313.8467674086277L87.00605033439253,314.1986132251666L87.03011781586086,314.5504590417055L87.05357282737069,308.9209217827504L87.07682943311931,311.73569041222794L87.10079339853831,306.80984478635054L87.12450720017146,305.75430523956743L87.16757850302861,303.995076156873L87.1921290593938,301.5321533439343L87.21630005691148,301.8839991604732L87.23887518200203,302.9395366100898L87.26246821491095,295.1989202575684L87.28604399514501,291.68046209217954L87.30938686426806,293.79153699141284L87.33187572598418,291.68046209217954L87.35531348481912,288.86569136553544L87.37786273089735,295.1989202575684L87.42114969219058,295.5507660741073L87.44488937283607,286.40276645543025L87.4687411958683,286.0509206388914L87.49144571602052,283.23615410658033L87.51444353164582,284.9953831892747L87.53827810200319,284.64353737273586L87.56220756207243,272.6807670274148L87.58495521391185,275.49553775405883L87.60815143529837,277.95845846983104L87.63181347890685,273.03261284395364L87.67482439740189,277.2547668367533L87.6980810031505,281.125075013014L87.72217436363118,276.1992293871366L87.74538783769258,271.977075394337L87.7681699948818,271.2733837612592L87.79146110598018,269.86600049510366L87.81534743436221,265.6438465023041L87.83795706480254,268.81045885115407L87.86180888783478,257.1995385167048L87.88537604173139,267.0512297684596L87.9294048680448,266.34753813538185L87.95278224251763,263.5327716030707L87.97566791575616,255.08846361747155L87.99962325483773,260.01430504901595L88.02203447951686,256.4958468836271L88.04529971160292,258.6069217828604L88.06840966961501,260.7179966820937L88.09170078071338,244.88491816051192L88.11500914448668,244.53307234397303L88.13862805640794,260.7179966820937L88.18094886790746,247.699693081489L88.203834541146,250.86630543033894L88.22679785142152,243.82938071089526L88.25104648597619,236.4406101749127L88.27320754686944,237.14431019665645L88.29700761187702,237.14431019665645L88.32007443820189,238.90353927935087L88.34333967028795,236.08876435837382L88.36580265299173,240.6627683620453L88.38907651141524,234.3295352756794L88.43210468258516,233.6258436426016L88.45500760849859,238.90353927935087L88.47884217885594,232.57030619298496L88.50248696978953,225.53338147354128L88.52608862903591,231.16292292682942L88.5489052915749,233.6258436426016L88.57204975493674,230.10738547721277L88.5991882125351,229.403693844135L88.62172020593843,225.88522729008017L88.64498543802449,227.2926105562357L88.68826377298029,224.82968984046352L88.71082164539597,222.3667691246913L88.73418176719392,221.31123167507465L88.75697255072056,219.90384840891912L88.78112629556334,216.7372276714032L88.80426213258774,232.21846037644607L88.82745835397427,224.47784402392463L88.85098237618364,215.32984440524763L88.87403194983361,213.5706153225532L88.89735756628178,220.255694225458" fill="none"></path></g></g></g></g></g></g><g transform="translate(51, 365)" clip-path="url(#clip_1)"><clipPath id="clip_1"><rect width="838" height="34"></rect></clipPath><g><g visibility="inherit"><g><g transform="translate(0,0)" style="visibility: inherit;"><text transform="translate(3,14.040000915527344)" style="text-anchor: start; font-family: &quot;Helvetica Neue&quot;, sans-serif; font-size: 12px; font-weight: 200;" fill="rgb(50, 49, 63)" stroke="none" stroke-width="1px">03 PM</text></g><g transform="translate(93.1644443935818,0)" style="visibility: inherit;"><text transform="translate(3,14.040000915527344)" style="text-anchor: start; font-family: &quot;Helvetica Neue&quot;, sans-serif; font-size: 12px; font-weight: 200;" fill="rgb(50, 49, 63)" stroke="none" stroke-width="1px">06 PM</text></g><g transform="translate(186.3288887871636,0)" style="visibility: inherit;"><text transform="translate(3,14.040000915527344)" style="text-anchor: start; font-family: &quot;Helvetica Neue&quot;, sans-serif; font-size: 12px; font-weight: 200;" fill="rgb(50, 49, 63)" stroke="none" stroke-width="1px">09 PM</text></g><g transform="translate(279.4933331807454,0)" style="visibility: inherit;"><text transform="translate(3,14.040000915527344)" style="text-anchor: start; font-family: &quot;Helvetica Neue&quot;, sans-serif; font-size: 12px; font-weight: 200;" fill="rgb(50, 49, 63)" stroke="none" stroke-width="1px">12 AM</text></g><g transform="translate(372.6577775743272,0)" style="visibility: inherit;"><text transform="translate(3,14.040000915527344)" style="text-anchor: start; font-family: &quot;Helvetica Neue&quot;, sans-serif; font-size: 12px; font-weight: 200;" fill="rgb(50, 49, 63)" stroke="none" stroke-width="1px">03 AM</text></g><g transform="translate(465.8222219679091,0)" style="visibility: inherit;"><text transform="translate(3,14.040000915527344)" style="text-anchor: start; font-family: &quot;Helvetica Neue&quot;, sans-serif; font-size: 12px; font-weight: 200;" fill="rgb(50, 49, 63)" stroke="none" stroke-width="1px">06 AM</text></g><g transform="translate(558.9866663614908,0)" style="visibility: inherit;"><text transform="translate(3,14.040000915527344)" style="text-anchor: start; font-family: &quot;Helvetica Neue&quot;, sans-serif; font-size: 12px; font-weight: 200;" fill="rgb(50, 49, 63)" stroke="none" stroke-width="1px">09 AM</text></g><g transform="translate(652.1511107550728,0)" style="visibility: inherit;"><text transform="translate(3,14.040000915527344)" style="text-anchor: start; font-family: &quot;Helvetica Neue&quot;, sans-serif; font-size: 12px; font-weight: 200;" fill="rgb(50, 49, 63)" stroke="none" stroke-width="1px">12 PM</text></g><g transform="translate(745.3155551486544,0)" style="visibility: inherit;"><text transform="translate(3,14.040000915527344)" style="text-anchor: start; font-family: &quot;Helvetica Neue&quot;, sans-serif; font-size: 12px; font-weight: 200;" fill="rgb(50, 49, 63)" stroke="none" stroke-width="1px">03 PM</text></g><g transform="translate(838.4799995422363,0)" style="visibility: hidden;"><text transform="translate(3,14.040000915527344)" style="text-anchor: start; font-family: &quot;Helvetica Neue&quot;, sans-serif; font-size: 12px; font-weight: 200;" fill="rgb(50, 49, 63)" stroke="none" stroke-width="1px">06 PM</text></g></g><g><line x1="0" y1="0" x2="0" y2="17.040000915527344" fill="rgb(0, 0, 0)" stroke="rgb(204, 204, 204)" stroke-width="1px"></line><line x1="93.1644443935818" y1="0" x2="93.1644443935818" y2="17.040000915527344" fill="rgb(0, 0, 0)" stroke="rgb(204, 204, 204)" stroke-width="1px"></line><line x1="186.3288887871636" y1="0" x2="186.3288887871636" y2="17.040000915527344" fill="rgb(0, 0, 0)" stroke="rgb(204, 204, 204)" stroke-width="1px"></line><line x1="279.4933331807454" y1="0" x2="279.4933331807454" y2="17.040000915527344" fill="rgb(0, 0, 0)" stroke="rgb(204, 204, 204)" stroke-width="1px"></line><line x1="372.6577775743272" y1="0" x2="372.6577775743272" y2="17.040000915527344" fill="rgb(0, 0, 0)" stroke="rgb(204, 204, 204)" stroke-width="1px"></line><line x1="465.8222219679091" y1="0" x2="465.8222219679091" y2="17.040000915527344" fill="rgb(0, 0, 0)" stroke="rgb(204, 204, 204)" stroke-width="1px"></line><line x1="558.9866663614908" y1="0" x2="558.9866663614908" y2="17.040000915527344" fill="rgb(0, 0, 0)" stroke="rgb(204, 204, 204)" stroke-width="1px"></line><line x1="652.1511107550728" y1="0" x2="652.1511107550728" y2="17.040000915527344" fill="rgb(0, 0, 0)" stroke="rgb(204, 204, 204)" stroke-width="1px"></line><line x1="745.3155551486544" y1="0" x2="745.3155551486544" y2="17.040000915527344" fill="rgb(0, 0, 0)" stroke="rgb(204, 204, 204)" stroke-width="1px"></line><line x1="838.4799995422363" y1="0" x2="838.4799995422363" y2="17.040000915527344" fill="rgb(0, 0, 0)" stroke="rgb(204, 204, 204)" stroke-width="1px"></line></g><line style="visibility: inherit;" x1="0" y1="0" x2="838.4799995422363" y2="0" fill="rgb(0, 0, 0)" stroke="rgb(204, 204, 204)" stroke-width="1px"></line></g><g visibility="inherit"><g><g transform="translate(46.5822221967909,0)" style="visibility: hidden;"><text transform="translate(0,31.080001831054688)" style="text-anchor: middle; font-family: &quot;Helvetica Neue&quot;, sans-serif; font-size: 12px; font-weight: 200;" fill="rgb(50, 49, 63)" stroke="none" stroke-width="1px">September 19, 2019</text></g><g transform="translate(139.7466665903727,0)" style="visibility: hidden;"><text transform="translate(0,31.080001831054688)" style="text-anchor: middle; font-family: &quot;Helvetica Neue&quot;, sans-serif; font-size: 12px; font-weight: 200;" fill="rgb(50, 49, 63)" stroke="none" stroke-width="1px">September 19, 2019</text></g><g transform="translate(232.91111098395456,0)" style="visibility: hidden;"><text transform="translate(0,31.080001831054688)" style="text-anchor: middle; font-family: &quot;Helvetica Neue&quot;, sans-serif; font-size: 12px; font-weight: 200;" fill="rgb(50, 49, 63)" stroke="none" stroke-width="1px">September 19, 2019</text></g><g transform="translate(326.0755553775364,0)" style="visibility: hidden;"><text transform="translate(0,31.080001831054688)" style="text-anchor: middle; font-family: &quot;Helvetica Neue&quot;, sans-serif; font-size: 12px; font-weight: 200;" fill="rgb(50, 49, 63)" stroke="none" stroke-width="1px">September 20, 2019</text></g><g transform="translate(419.23999977111816,0)" style="visibility: hidden;"><text transform="translate(0,31.080001831054688)" style="text-anchor: middle; font-family: &quot;Helvetica Neue&quot;, sans-serif; font-size: 12px; font-weight: 200;" fill="rgb(50, 49, 63)" stroke="none" stroke-width="1px">September 20, 2019</text></g><g transform="translate(512.4044441647001,0)" style="visibility: hidden;"><text transform="translate(0,31.080001831054688)" style="text-anchor: middle; font-family: &quot;Helvetica Neue&quot;, sans-serif; font-size: 12px; font-weight: 200;" fill="rgb(50, 49, 63)" stroke="none" stroke-width="1px">September 20, 2019</text></g><g transform="translate(605.5688885582817,0)" style="visibility: hidden;"><text transform="translate(0,31.080001831054688)" style="text-anchor: middle; font-family: &quot;Helvetica Neue&quot;, sans-serif; font-size: 12px; font-weight: 200;" fill="rgb(50, 49, 63)" stroke="none" stroke-width="1px">September 20, 2019</text></g><g transform="translate(698.7333329518636,0)" style="visibility: hidden;"><text transform="translate(0,31.080001831054688)" style="text-anchor: middle; font-family: &quot;Helvetica Neue&quot;, sans-serif; font-size: 12px; font-weight: 200;" fill="rgb(50, 49, 63)" stroke="none" stroke-width="1px">September 20, 2019</text></g><g transform="translate(791.8977773454454,0)" style="visibility: hidden;"><text transform="translate(0,31.080001831054688)" style="text-anchor: middle; font-family: &quot;Helvetica Neue&quot;, sans-serif; font-size: 12px; font-weight: 200;" fill="rgb(50, 49, 63)" stroke="none" stroke-width="1px">September 20, 2019</text></g></g><g><line x1="0" y1="17.040000915527344" x2="0" y2="34.08000183105469" fill="rgb(0, 0, 0)" stroke="rgb(204, 204, 204)" stroke-width="1px"></line><line x1="93.1644443935818" y1="17.040000915527344" x2="93.1644443935818" y2="34.08000183105469" fill="rgb(0, 0, 0)" stroke="rgb(204, 204, 204)" stroke-width="1px"></line><line x1="186.3288887871636" y1="17.040000915527344" x2="186.3288887871636" y2="34.08000183105469" fill="rgb(0, 0, 0)" stroke="rgb(204, 204, 204)" stroke-width="1px"></line><line x1="279.4933331807454" y1="17.040000915527344" x2="279.4933331807454" y2="34.08000183105469" fill="rgb(0, 0, 0)" stroke="rgb(204, 204, 204)" stroke-width="1px"></line><line x1="372.6577775743272" y1="17.040000915527344" x2="372.6577775743272" y2="34.08000183105469" fill="rgb(0, 0, 0)" stroke="rgb(204, 204, 204)" stroke-width="1px"></line><line x1="465.8222219679091" y1="17.040000915527344" x2="465.8222219679091" y2="34.08000183105469" fill="rgb(0, 0, 0)" stroke="rgb(204, 204, 204)" stroke-width="1px"></line><line x1="558.9866663614908" y1="17.040000915527344" x2="558.9866663614908" y2="34.08000183105469" fill="rgb(0, 0, 0)" stroke="rgb(204, 204, 204)" stroke-width="1px"></line><line x1="652.1511107550728" y1="17.040000915527344" x2="652.1511107550728" y2="34.08000183105469" fill="rgb(0, 0, 0)" stroke="rgb(204, 204, 204)" stroke-width="1px"></line><line x1="745.3155551486544" y1="17.040000915527344" x2="745.3155551486544" y2="34.08000183105469" fill="rgb(0, 0, 0)" stroke="rgb(204, 204, 204)" stroke-width="1px"></line><line x1="838.4799995422363" y1="17.040000915527344" x2="838.4799995422363" y2="34.08000183105469" fill="rgb(0, 0, 0)" stroke="rgb(204, 204, 204)" stroke-width="1px"></line></g><line style="visibility: inherit;" x1="0" y1="17.040000915527344" x2="838.4799995422363" y2="17.040000915527344" fill="rgb(0, 0, 0)" stroke="rgb(204, 204, 204)" stroke-width="1px"></line></g></g></g></g></g></svg>