<?xml version="1.0" encoding="utf-8" standalone="no"?>
<!DOCTYPE svg PUBLIC "-//W3C//DTD SVG 1.1//EN"
  "http://www.w3.org/Graphics/SVG/1.1/DTD/svg11.dtd">
<!-- Created with matplotlib (https://matplotlib.org/) -->
<svg height="406.159687pt" version="1.1" viewBox="0 0 850.709375 406.159687" width="850.709375pt" xmlns="http://www.w3.org/2000/svg" xmlns:xlink="http://www.w3.org/1999/xlink">
 <defs>
  <style type="text/css">
*{stroke-linecap:butt;stroke-linejoin:round;}
  </style>
 </defs>
 <g id="figure_1">
  <g id="patch_1">
   <path d="M 0 406.159687 
L 850.709375 406.159687 
L 850.709375 0 
L 0 0 
z
" style="fill:#ffffff;"/>
  </g>
  <g id="axes_1">
   <g id="patch_2">
    <path d="M 30.103125 354.958125 
L 699.703125 354.958125 
L 699.703125 22.318125 
L 30.103125 22.318125 
z
" style="fill:#ffffff;"/>
   </g>
   <g id="PolyCollection_1">
    <defs>
     <path d="M 30.103125 -51.201563 
L 30.103125 -362.494158 
L 51.028125 -362.494158 
L 51.028125 -336.379604 
L 71.953125 -336.379604 
L 71.953125 -361.05271 
L 92.878125 -361.05271 
L 92.878125 -292.112647 
L 113.803125 -292.112647 
L 113.803125 -252.339489 
L 134.728125 -252.339489 
L 134.728125 -262.152809 
L 155.653125 -262.152809 
L 155.653125 -301.466952 
L 176.578125 -301.466952 
L 176.578125 -321.098794 
L 197.503125 -321.098794 
L 197.503125 -178.130651 
L 218.428125 -178.130651 
L 218.428125 -372.680811 
L 239.353125 -372.680811 
L 239.353125 -344.482292 
L 260.278125 -344.482292 
L 260.278125 -347.203265 
L 281.203125 -347.203265 
L 281.203125 -343.902618 
L 302.128125 -343.902618 
L 302.128125 -309.168181 
L 323.053125 -309.168181 
L 323.053125 -264.542141 
L 343.978125 -264.542141 
L 343.978125 -281.235217 
L 364.903125 -281.235217 
L 364.903125 -315.307991 
L 385.828125 -315.307991 
L 385.828125 -305.432894 
L 406.753125 -305.432894 
L 406.753125 -358.343947 
L 427.678125 -358.343947 
L 427.678125 -302.021031 
L 448.603125 -302.021031 
L 448.603125 -264.156496 
L 469.528125 -264.156496 
L 469.528125 -341.079312 
L 490.453125 -341.079312 
L 490.453125 -303.418304 
L 511.378125 -303.418304 
L 511.378125 -310.649609 
L 532.303125 -310.649609 
L 532.303125 -327.367353 
L 553.228125 -327.367353 
L 553.228125 -358.769714 
L 574.153125 -358.769714 
L 574.153125 -361.185535 
L 595.078125 -361.185535 
L 595.078125 -320.974817 
L 616.003125 -320.974817 
L 616.003125 -327.406312 
L 636.928125 -327.406312 
L 636.928125 -177.519709 
L 657.853125 -177.519709 
L 657.853125 -350.171679 
L 678.778125 -350.171679 
L 678.778125 -362.623364 
L 699.703125 -362.623364 
L 699.703125 -106.641562 
L 699.703125 -51.201563 
L 699.703125 -51.201563 
L 699.703125 -51.201563 
L 678.778125 -51.201563 
L 678.778125 -51.201563 
L 657.853125 -51.201563 
L 657.853125 -51.201563 
L 636.928125 -51.201563 
L 636.928125 -51.201563 
L 616.003125 -51.201563 
L 616.003125 -51.201563 
L 595.078125 -51.201563 
L 595.078125 -51.201563 
L 574.153125 -51.201563 
L 574.153125 -51.201563 
L 553.228125 -51.201563 
L 553.228125 -51.201563 
L 532.303125 -51.201563 
L 532.303125 -51.201563 
L 511.378125 -51.201563 
L 511.378125 -51.201563 
L 490.453125 -51.201563 
L 490.453125 -51.201563 
L 469.528125 -51.201563 
L 469.528125 -51.201563 
L 448.603125 -51.201563 
L 448.603125 -51.201563 
L 427.678125 -51.201563 
L 427.678125 -51.201563 
L 406.753125 -51.201563 
L 406.753125 -51.201563 
L 385.828125 -51.201563 
L 385.828125 -51.201563 
L 364.903125 -51.201563 
L 364.903125 -51.201563 
L 343.978125 -51.201563 
L 343.978125 -51.201563 
L 323.053125 -51.201563 
L 323.053125 -51.201563 
L 302.128125 -51.201563 
L 302.128125 -51.201563 
L 281.203125 -51.201563 
L 281.203125 -51.201563 
L 260.278125 -51.201563 
L 260.278125 -51.201563 
L 239.353125 -51.201563 
L 239.353125 -51.201563 
L 218.428125 -51.201563 
L 218.428125 -51.201563 
L 197.503125 -51.201563 
L 197.503125 -51.201563 
L 176.578125 -51.201563 
L 176.578125 -51.201563 
L 155.653125 -51.201563 
L 155.653125 -51.201563 
L 134.728125 -51.201563 
L 134.728125 -51.201563 
L 113.803125 -51.201563 
L 113.803125 -51.201563 
L 92.878125 -51.201563 
L 92.878125 -51.201563 
L 71.953125 -51.201563 
L 71.953125 -51.201563 
L 51.028125 -51.201563 
L 51.028125 -51.201563 
L 30.103125 -51.201563 
z
" id="me43e91ba36"/>
    </defs>
    <g clip-path="url(#p8bbb56455a)">
     <use style="fill:#349e35;" x="0" xlink:href="#me43e91ba36" y="406.159687"/>
    </g>
   </g>
   <g id="PolyCollection_2">
    <defs>
     <path d="M 30.103125 -362.494158 
L 30.103125 -382.51328 
L 51.028125 -382.51328 
L 51.028125 -363.01001 
L 71.953125 -363.01001 
L 71.953125 -361.12996 
L 92.878125 -361.12996 
L 92.878125 -293.698085 
L 113.803125 -293.698085 
L 113.803125 -276.479364 
L 134.728125 -276.479364 
L 134.728125 -282.446304 
L 155.653125 -282.446304 
L 155.653125 -317.576577 
L 176.578125 -317.576577 
L 176.578125 -330.715748 
L 197.503125 -330.715748 
L 197.503125 -195.668744 
L 218.428125 -195.668744 
L 218.428125 -372.730414 
L 239.353125 -372.730414 
L 239.353125 -360.442657 
L 260.278125 -360.442657 
L 260.278125 -359.749648 
L 281.203125 -359.749648 
L 281.203125 -357.426498 
L 302.128125 -357.426498 
L 302.128125 -326.052786 
L 323.053125 -326.052786 
L 323.053125 -282.109308 
L 343.978125 -282.109308 
L 343.978125 -291.072397 
L 364.903125 -291.072397 
L 364.903125 -324.267792 
L 385.828125 -324.267792 
L 385.828125 -306.415928 
L 406.753125 -306.415928 
L 406.753125 -370.46948 
L 427.678125 -370.46948 
L 427.678125 -311.090683 
L 448.603125 -311.090683 
L 448.603125 -283.362429 
L 469.528125 -283.362429 
L 469.528125 -345.204612 
L 490.453125 -345.204612 
L 490.453125 -312.518389 
L 511.378125 -312.518389 
L 511.378125 -323.336215 
L 532.303125 -323.336215 
L 532.303125 -336.515856 
L 553.228125 -336.515856 
L 553.228125 -366.079819 
L 574.153125 -366.079819 
L 574.153125 -363.671778 
L 595.078125 -363.671778 
L 595.078125 -326.903184 
L 616.003125 -326.903184 
L 616.003125 -333.988539 
L 636.928125 -333.988539 
L 636.928125 -186.224431 
L 657.853125 -186.224431 
L 657.853125 -352.10885 
L 678.778125 -352.10885 
L 678.778125 -377.501667 
L 699.703125 -377.501667 
L 699.703125 -162.081562 
L 699.703125 -106.641562 
L 699.703125 -106.641562 
L 699.703125 -362.623364 
L 678.778125 -362.623364 
L 678.778125 -350.171679 
L 657.853125 -350.171679 
L 657.853125 -177.519709 
L 636.928125 -177.519709 
L 636.928125 -327.406312 
L 616.003125 -327.406312 
L 616.003125 -320.974817 
L 595.078125 -320.974817 
L 595.078125 -361.185535 
L 574.153125 -361.185535 
L 574.153125 -358.769714 
L 553.228125 -358.769714 
L 553.228125 -327.367353 
L 532.303125 -327.367353 
L 532.303125 -310.649609 
L 511.378125 -310.649609 
L 511.378125 -303.418304 
L 490.453125 -303.418304 
L 490.453125 -341.079312 
L 469.528125 -341.079312 
L 469.528125 -264.156496 
L 448.603125 -264.156496 
L 448.603125 -302.021031 
L 427.678125 -302.021031 
L 427.678125 -358.343947 
L 406.753125 -358.343947 
L 406.753125 -305.432894 
L 385.828125 -305.432894 
L 385.828125 -315.307991 
L 364.903125 -315.307991 
L 364.903125 -281.235217 
L 343.978125 -281.235217 
L 343.978125 -264.542141 
L 323.053125 -264.542141 
L 323.053125 -309.168181 
L 302.128125 -309.168181 
L 302.128125 -343.902618 
L 281.203125 -343.902618 
L 281.203125 -347.203265 
L 260.278125 -347.203265 
L 260.278125 -344.482292 
L 239.353125 -344.482292 
L 239.353125 -372.680811 
L 218.428125 -372.680811 
L 218.428125 -178.130651 
L 197.503125 -178.130651 
L 197.503125 -321.098794 
L 176.578125 -321.098794 
L 176.578125 -301.466952 
L 155.653125 -301.466952 
L 155.653125 -262.152809 
L 134.728125 -262.152809 
L 134.728125 -252.339489 
L 113.803125 -252.339489 
L 113.803125 -292.112647 
L 92.878125 -292.112647 
L 92.878125 -361.05271 
L 71.953125 -361.05271 
L 71.953125 -336.379604 
L 51.028125 -336.379604 
L 51.028125 -362.494158 
L 30.103125 -362.494158 
z
" id="m587c0497c4"/>
    </defs>
    <g clip-path="url(#p8bbb56455a)">
     <use style="fill:#98dd8b;" x="0" xlink:href="#m587c0497c4" y="406.159687"/>
    </g>
   </g>
   <g id="PolyCollection_3">
    <defs>
     <path d="M 30.103125 -382.51328 
L 30.103125 -382.608157 
L 51.028125 -382.608157 
L 51.028125 -363.046946 
L 71.953125 -363.046946 
L 71.953125 -361.20721 
L 92.878125 -361.20721 
L 92.878125 -293.773582 
L 113.803125 -293.773582 
L 113.803125 -276.520913 
L 134.728125 -276.520913 
L 134.728125 -282.518523 
L 155.653125 -282.518523 
L 155.653125 -317.613107 
L 176.578125 -317.613107 
L 176.578125 -330.722786 
L 197.503125 -330.722786 
L 197.503125 -195.694125 
L 218.428125 -195.694125 
L 218.428125 -372.780018 
L 239.353125 -372.780018 
L 239.353125 -360.514876 
L 260.278125 -360.514876 
L 260.278125 -359.785392 
L 281.203125 -359.785392 
L 281.203125 -357.505585 
L 302.128125 -357.505585 
L 302.128125 -326.097102 
L 323.053125 -326.097102 
L 323.053125 -282.196707 
L 343.978125 -282.196707 
L 343.978125 -291.137544 
L 364.903125 -291.137544 
L 364.903125 -324.327128 
L 385.828125 -324.327128 
L 385.828125 -306.462739 
L 406.753125 -306.462739 
L 406.753125 -370.507254 
L 427.678125 -370.507254 
L 427.678125 -311.12296 
L 448.603125 -311.12296 
L 448.603125 -283.418752 
L 469.528125 -283.418752 
L 469.528125 -345.305229 
L 490.453125 -345.305229 
L 490.453125 -312.551968 
L 511.378125 -312.551968 
L 511.378125 -323.342853 
L 532.303125 -323.342853 
L 532.303125 -336.526482 
L 553.228125 -336.526482 
L 553.228125 -366.140233 
L 574.153125 -366.140233 
L 574.153125 -363.682541 
L 595.078125 -363.682541 
L 595.078125 -326.968331 
L 616.003125 -326.968331 
L 616.003125 -334.011159 
L 636.928125 -334.011159 
L 636.928125 -186.290879 
L 657.853125 -186.290879 
L 657.853125 -352.201097 
L 678.778125 -352.201097 
L 678.778125 -377.552795 
L 699.703125 -377.552795 
L 699.703125 -217.521562 
L 699.703125 -162.081562 
L 699.703125 -162.081562 
L 699.703125 -377.501667 
L 678.778125 -377.501667 
L 678.778125 -352.10885 
L 657.853125 -352.10885 
L 657.853125 -186.224431 
L 636.928125 -186.224431 
L 636.928125 -333.988539 
L 616.003125 -333.988539 
L 616.003125 -326.903184 
L 595.078125 -326.903184 
L 595.078125 -363.671778 
L 574.153125 -363.671778 
L 574.153125 -366.079819 
L 553.228125 -366.079819 
L 553.228125 -336.515856 
L 532.303125 -336.515856 
L 532.303125 -323.336215 
L 511.378125 -323.336215 
L 511.378125 -312.518389 
L 490.453125 -312.518389 
L 490.453125 -345.204612 
L 469.528125 -345.204612 
L 469.528125 -283.362429 
L 448.603125 -283.362429 
L 448.603125 -311.090683 
L 427.678125 -311.090683 
L 427.678125 -370.46948 
L 406.753125 -370.46948 
L 406.753125 -306.415928 
L 385.828125 -306.415928 
L 385.828125 -324.267792 
L 364.903125 -324.267792 
L 364.903125 -291.072397 
L 343.978125 -291.072397 
L 343.978125 -282.109308 
L 323.053125 -282.109308 
L 323.053125 -326.052786 
L 302.128125 -326.052786 
L 302.128125 -357.426498 
L 281.203125 -357.426498 
L 281.203125 -359.749648 
L 260.278125 -359.749648 
L 260.278125 -360.442657 
L 239.353125 -360.442657 
L 239.353125 -372.730414 
L 218.428125 -372.730414 
L 218.428125 -195.668744 
L 197.503125 -195.668744 
L 197.503125 -330.715748 
L 176.578125 -330.715748 
L 176.578125 -317.576577 
L 155.653125 -317.576577 
L 155.653125 -282.446304 
L 134.728125 -282.446304 
L 134.728125 -276.479364 
L 113.803125 -276.479364 
L 113.803125 -293.698085 
L 92.878125 -293.698085 
L 92.878125 -361.12996 
L 71.953125 -361.12996 
L 71.953125 -363.01001 
L 51.028125 -363.01001 
L 51.028125 -382.51328 
L 30.103125 -382.51328 
z
" id="m37e48c80c0"/>
    </defs>
    <g clip-path="url(#p8bbb56455a)">
     <use style="fill:#df802e;" x="0" xlink:href="#m37e48c80c0" y="406.159687"/>
    </g>
   </g>
   <g id="PolyCollection_4">
    <defs>
     <path d="M 30.103125 -382.608157 
L 30.103125 -382.703034 
L 51.028125 -382.703034 
L 51.028125 -363.083881 
L 71.953125 -363.083881 
L 71.953125 -361.284461 
L 92.878125 -361.284461 
L 92.878125 -293.84908 
L 113.803125 -293.84908 
L 113.803125 -276.562462 
L 134.728125 -276.562462 
L 134.728125 -282.590742 
L 155.653125 -282.590742 
L 155.653125 -317.649636 
L 176.578125 -317.649636 
L 176.578125 -330.723426 
L 197.503125 -330.723426 
L 197.503125 -195.719505 
L 218.428125 -195.719505 
L 218.428125 -372.829621 
L 239.353125 -372.829621 
L 239.353125 -360.587094 
L 260.278125 -360.587094 
L 260.278125 -359.821137 
L 281.203125 -359.821137 
L 281.203125 -357.584672 
L 302.128125 -357.584672 
L 302.128125 -326.141419 
L 323.053125 -326.141419 
L 323.053125 -282.284106 
L 343.978125 -282.284106 
L 343.978125 -291.202691 
L 364.903125 -291.202691 
L 364.903125 -324.386464 
L 385.828125 -324.386464 
L 385.828125 -306.50955 
L 406.753125 -306.50955 
L 406.753125 -370.545028 
L 427.678125 -370.545028 
L 427.678125 -311.155236 
L 448.603125 -311.155236 
L 448.603125 -283.475074 
L 469.528125 -283.475074 
L 469.528125 -345.405846 
L 490.453125 -345.405846 
L 490.453125 -312.585548 
L 511.378125 -312.585548 
L 511.378125 -323.349492 
L 532.303125 -323.349492 
L 532.303125 -336.537107 
L 553.228125 -336.537107 
L 553.228125 -366.200647 
L 574.153125 -366.200647 
L 574.153125 -363.693304 
L 595.078125 -363.693304 
L 595.078125 -327.033478 
L 616.003125 -327.033478 
L 616.003125 -334.033778 
L 636.928125 -334.033778 
L 636.928125 -186.357328 
L 657.853125 -186.357328 
L 657.853125 -352.293343 
L 678.778125 -352.293343 
L 678.778125 -377.603923 
L 699.703125 -377.603923 
L 699.703125 -272.961562 
L 699.703125 -217.521562 
L 699.703125 -217.521562 
L 699.703125 -377.552795 
L 678.778125 -377.552795 
L 678.778125 -352.201097 
L 657.853125 -352.201097 
L 657.853125 -186.290879 
L 636.928125 -186.290879 
L 636.928125 -334.011159 
L 616.003125 -334.011159 
L 616.003125 -326.968331 
L 595.078125 -326.968331 
L 595.078125 -363.682541 
L 574.153125 -363.682541 
L 574.153125 -366.140233 
L 553.228125 -366.140233 
L 553.228125 -336.526482 
L 532.303125 -336.526482 
L 532.303125 -323.342853 
L 511.378125 -323.342853 
L 511.378125 -312.551968 
L 490.453125 -312.551968 
L 490.453125 -345.305229 
L 469.528125 -345.305229 
L 469.528125 -283.418752 
L 448.603125 -283.418752 
L 448.603125 -311.12296 
L 427.678125 -311.12296 
L 427.678125 -370.507254 
L 406.753125 -370.507254 
L 406.753125 -306.462739 
L 385.828125 -306.462739 
L 385.828125 -324.327128 
L 364.903125 -324.327128 
L 364.903125 -291.137544 
L 343.978125 -291.137544 
L 343.978125 -282.196707 
L 323.053125 -282.196707 
L 323.053125 -326.097102 
L 302.128125 -326.097102 
L 302.128125 -357.505585 
L 281.203125 -357.505585 
L 281.203125 -359.785392 
L 260.278125 -359.785392 
L 260.278125 -360.514876 
L 239.353125 -360.514876 
L 239.353125 -372.780018 
L 218.428125 -372.780018 
L 218.428125 -195.694125 
L 197.503125 -195.694125 
L 197.503125 -330.722786 
L 176.578125 -330.722786 
L 176.578125 -317.613107 
L 155.653125 -317.613107 
L 155.653125 -282.518523 
L 134.728125 -282.518523 
L 134.728125 -276.520913 
L 113.803125 -276.520913 
L 113.803125 -293.773582 
L 92.878125 -293.773582 
L 92.878125 -361.20721 
L 71.953125 -361.20721 
L 71.953125 -363.046946 
L 51.028125 -363.046946 
L 51.028125 -382.608157 
L 30.103125 -382.608157 
z
" id="m8b7818f6ec"/>
    </defs>
    <g clip-path="url(#p8bbb56455a)">
     <use style="fill:#feba7c;" x="0" xlink:href="#m8b7818f6ec" y="406.159687"/>
    </g>
   </g>
   <g id="PolyCollection_5">
    <defs>
     <path d="M 30.103125 -382.703034 
L 30.103125 -383.746685 
L 51.028125 -383.746685 
L 51.028125 -375.309491 
L 71.953125 -375.309491 
L 71.953125 -368.314242 
L 92.878125 -368.314242 
L 92.878125 -342.997659 
L 113.803125 -342.997659 
L 113.803125 -302.36429 
L 134.728125 -302.36429 
L 134.728125 -310.82831 
L 155.653125 -310.82831 
L 155.653125 -357.503605 
L 176.578125 -357.503605 
L 176.578125 -357.640787 
L 197.503125 -357.640787 
L 197.503125 -198.790575 
L 218.428125 -198.790575 
L 218.428125 -381.311792 
L 239.353125 -381.311792 
L 239.353125 -367.159009 
L 260.278125 -367.159009 
L 260.278125 -371.29518 
L 281.203125 -371.29518 
L 281.203125 -383.762475 
L 302.128125 -383.762475 
L 302.128125 -348.344009 
L 323.053125 -348.344009 
L 323.053125 -310.339135 
L 343.978125 -310.339135 
L 343.978125 -332.310376 
L 364.903125 -332.310376 
L 364.903125 -355.894106 
L 385.828125 -355.894106 
L 385.828125 -341.66472 
L 406.753125 -341.66472 
L 406.753125 -375.871197 
L 427.678125 -375.871197 
L 427.678125 -319.902125 
L 448.603125 -319.902125 
L 448.603125 -295.922321 
L 469.528125 -295.922321 
L 469.528125 -383.740945 
L 490.453125 -383.740945 
L 490.453125 -351.907317 
L 511.378125 -351.907317 
L 511.378125 -358.01028 
L 532.303125 -358.01028 
L 532.303125 -361.198752 
L 553.228125 -361.198752 
L 553.228125 -376.531457 
L 574.153125 -376.531457 
L 574.153125 -381.14006 
L 595.078125 -381.14006 
L 595.078125 -362.277943 
L 616.003125 -362.277943 
L 616.003125 -368.211599 
L 636.928125 -368.211599 
L 636.928125 -192.404119 
L 657.853125 -192.404119 
L 657.853125 -374.524691 
L 678.778125 -374.524691 
L 678.778125 -383.279152 
L 699.703125 -383.279152 
L 699.703125 -328.401562 
L 699.703125 -272.961562 
L 699.703125 -272.961562 
L 699.703125 -377.603923 
L 678.778125 -377.603923 
L 678.778125 -352.293343 
L 657.853125 -352.293343 
L 657.853125 -186.357328 
L 636.928125 -186.357328 
L 636.928125 -334.033778 
L 616.003125 -334.033778 
L 616.003125 -327.033478 
L 595.078125 -327.033478 
L 595.078125 -363.693304 
L 574.153125 -363.693304 
L 574.153125 -366.200647 
L 553.228125 -366.200647 
L 553.228125 -336.537107 
L 532.303125 -336.537107 
L 532.303125 -323.349492 
L 511.378125 -323.349492 
L 511.378125 -312.585548 
L 490.453125 -312.585548 
L 490.453125 -345.405846 
L 469.528125 -345.405846 
L 469.528125 -283.475074 
L 448.603125 -283.475074 
L 448.603125 -311.155236 
L 427.678125 -311.155236 
L 427.678125 -370.545028 
L 406.753125 -370.545028 
L 406.753125 -306.50955 
L 385.828125 -306.50955 
L 385.828125 -324.386464 
L 364.903125 -324.386464 
L 364.903125 -291.202691 
L 343.978125 -291.202691 
L 343.978125 -282.284106 
L 323.053125 -282.284106 
L 323.053125 -326.141419 
L 302.128125 -326.141419 
L 302.128125 -357.584672 
L 281.203125 -357.584672 
L 281.203125 -359.821137 
L 260.278125 -359.821137 
L 260.278125 -360.587094 
L 239.353125 -360.587094 
L 239.353125 -372.829621 
L 218.428125 -372.829621 
L 218.428125 -195.719505 
L 197.503125 -195.719505 
L 197.503125 -330.723426 
L 176.578125 -330.723426 
L 176.578125 -317.649636 
L 155.653125 -317.649636 
L 155.653125 -282.590742 
L 134.728125 -282.590742 
L 134.728125 -276.562462 
L 113.803125 -276.562462 
L 113.803125 -293.84908 
L 92.878125 -293.84908 
L 92.878125 -361.284461 
L 71.953125 -361.284461 
L 71.953125 -363.083881 
L 51.028125 -363.083881 
L 51.028125 -382.703034 
L 30.103125 -382.703034 
z
" id="m404de01d13"/>
    </defs>
    <g clip-path="url(#p8bbb56455a)">
     <use style="fill:#d33134;" x="0" xlink:href="#m404de01d13" y="406.159687"/>
    </g>
   </g>
   <g id="PolyCollection_6">
    <defs>
     <path d="M 30.103125 -383.746685 
L 30.103125 -383.841562 
L 51.028125 -383.841562 
L 51.028125 -383.841562 
L 71.953125 -383.841562 
L 71.953125 -383.841562 
L 92.878125 -383.841562 
L 92.878125 -383.841562 
L 113.803125 -383.841562 
L 113.803125 -383.841562 
L 134.728125 -383.841562 
L 134.728125 -383.841562 
L 155.653125 -383.841562 
L 155.653125 -383.841562 
L 176.578125 -383.841562 
L 176.578125 -383.841562 
L 197.503125 -383.841562 
L 197.503125 -383.841562 
L 218.428125 -383.841562 
L 218.428125 -383.841562 
L 239.353125 -383.841562 
L 239.353125 -383.841562 
L 260.278125 -383.841562 
L 260.278125 -383.841562 
L 281.203125 -383.841562 
L 281.203125 -383.841562 
L 302.128125 -383.841562 
L 302.128125 -383.841562 
L 323.053125 -383.841562 
L 323.053125 -383.841562 
L 343.978125 -383.841562 
L 343.978125 -383.841562 
L 364.903125 -383.841562 
L 364.903125 -383.841562 
L 385.828125 -383.841562 
L 385.828125 -383.841562 
L 406.753125 -383.841562 
L 406.753125 -383.841562 
L 427.678125 -383.841562 
L 427.678125 -383.841562 
L 448.603125 -383.841562 
L 448.603125 -383.841562 
L 469.528125 -383.841562 
L 469.528125 -383.841562 
L 490.453125 -383.841562 
L 490.453125 -383.841562 
L 511.378125 -383.841562 
L 511.378125 -383.841562 
L 532.303125 -383.841562 
L 532.303125 -383.841563 
L 553.228125 -383.841563 
L 553.228125 -383.841562 
L 574.153125 -383.841562 
L 574.153125 -383.841563 
L 595.078125 -383.841563 
L 595.078125 -383.841562 
L 616.003125 -383.841562 
L 616.003125 -383.841563 
L 636.928125 -383.841563 
L 636.928125 -383.841562 
L 657.853125 -383.841562 
L 657.853125 -383.841562 
L 678.778125 -383.841562 
L 678.778125 -383.841562 
L 699.703125 -383.841562 
L 699.703125 -383.841562 
L 699.703125 -328.401562 
L 699.703125 -328.401562 
L 699.703125 -383.279152 
L 678.778125 -383.279152 
L 678.778125 -374.524691 
L 657.853125 -374.524691 
L 657.853125 -192.404119 
L 636.928125 -192.404119 
L 636.928125 -368.211599 
L 616.003125 -368.211599 
L 616.003125 -362.277943 
L 595.078125 -362.277943 
L 595.078125 -381.14006 
L 574.153125 -381.14006 
L 574.153125 -376.531457 
L 553.228125 -376.531457 
L 553.228125 -361.198752 
L 532.303125 -361.198752 
L 532.303125 -358.01028 
L 511.378125 -358.01028 
L 511.378125 -351.907317 
L 490.453125 -351.907317 
L 490.453125 -383.740945 
L 469.528125 -383.740945 
L 469.528125 -295.922321 
L 448.603125 -295.922321 
L 448.603125 -319.902125 
L 427.678125 -319.902125 
L 427.678125 -375.871197 
L 406.753125 -375.871197 
L 406.753125 -341.66472 
L 385.828125 -341.66472 
L 385.828125 -355.894106 
L 364.903125 -355.894106 
L 364.903125 -332.310376 
L 343.978125 -332.310376 
L 343.978125 -310.339135 
L 323.053125 -310.339135 
L 323.053125 -348.344009 
L 302.128125 -348.344009 
L 302.128125 -383.762475 
L 281.203125 -383.762475 
L 281.203125 -371.29518 
L 260.278125 -371.29518 
L 260.278125 -367.159009 
L 239.353125 -367.159009 
L 239.353125 -381.311792 
L 218.428125 -381.311792 
L 218.428125 -198.790575 
L 197.503125 -198.790575 
L 197.503125 -357.640787 
L 176.578125 -357.640787 
L 176.578125 -357.503605 
L 155.653125 -357.503605 
L 155.653125 -310.82831 
L 134.728125 -310.82831 
L 134.728125 -302.36429 
L 113.803125 -302.36429 
L 113.803125 -342.997659 
L 92.878125 -342.997659 
L 92.878125 -368.314242 
L 71.953125 -368.314242 
L 71.953125 -375.309491 
L 51.028125 -375.309491 
L 51.028125 -383.746685 
L 30.103125 -383.746685 
z
" id="m73f30bab58"/>
    </defs>
    <g clip-path="url(#p8bbb56455a)">
     <use style="fill:#fe9897;" x="0" xlink:href="#m73f30bab58" y="406.159687"/>
    </g>
   </g>
   <g id="matplotlib.axis_1">
    <g id="xtick_1">
     <g id="line2d_1">
      <defs>
       <path d="M 0 0 
L 0 3.5 
" id="madfbc8aed4" style="stroke:#000000;stroke-width:0.8;"/>
      </defs>
      <g>
       <use style="stroke:#000000;stroke-width:0.8;" x="40.565625" xlink:href="#madfbc8aed4" y="354.958125"/>
      </g>
     </g>
     <g id="text_1">
      <!-- com.au -->
      <defs>
       <path d="M 48.78125 52.59375 
L 48.78125 44.1875 
Q 44.96875 46.296875 41.140625 47.34375 
Q 37.3125 48.390625 33.40625 48.390625 
Q 24.65625 48.390625 19.8125 42.84375 
Q 14.984375 37.3125 14.984375 27.296875 
Q 14.984375 17.28125 19.8125 11.734375 
Q 24.65625 6.203125 33.40625 6.203125 
Q 37.3125 6.203125 41.140625 7.25 
Q 44.96875 8.296875 48.78125 10.40625 
L 48.78125 2.09375 
Q 45.015625 0.34375 40.984375 -0.53125 
Q 36.96875 -1.421875 32.421875 -1.421875 
Q 20.0625 -1.421875 12.78125 6.34375 
Q 5.515625 14.109375 5.515625 27.296875 
Q 5.515625 40.671875 12.859375 48.328125 
Q 20.21875 56 33.015625 56 
Q 37.15625 56 41.109375 55.140625 
Q 45.0625 54.296875 48.78125 52.59375 
z
" id="DejaVuSans-99"/>
       <path d="M 30.609375 48.390625 
Q 23.390625 48.390625 19.1875 42.75 
Q 14.984375 37.109375 14.984375 27.296875 
Q 14.984375 17.484375 19.15625 11.84375 
Q 23.34375 6.203125 30.609375 6.203125 
Q 37.796875 6.203125 41.984375 11.859375 
Q 46.1875 17.53125 46.1875 27.296875 
Q 46.1875 37.015625 41.984375 42.703125 
Q 37.796875 48.390625 30.609375 48.390625 
z
M 30.609375 56 
Q 42.328125 56 49.015625 48.375 
Q 55.71875 40.765625 55.71875 27.296875 
Q 55.71875 13.875 49.015625 6.21875 
Q 42.328125 -1.421875 30.609375 -1.421875 
Q 18.84375 -1.421875 12.171875 6.21875 
Q 5.515625 13.875 5.515625 27.296875 
Q 5.515625 40.765625 12.171875 48.375 
Q 18.84375 56 30.609375 56 
z
" id="DejaVuSans-111"/>
       <path d="M 52 44.1875 
Q 55.375 50.25 60.0625 53.125 
Q 64.75 56 71.09375 56 
Q 79.640625 56 84.28125 50.015625 
Q 88.921875 44.046875 88.921875 33.015625 
L 88.921875 0 
L 79.890625 0 
L 79.890625 32.71875 
Q 79.890625 40.578125 77.09375 44.375 
Q 74.3125 48.1875 68.609375 48.1875 
Q 61.625 48.1875 57.5625 43.546875 
Q 53.515625 38.921875 53.515625 30.90625 
L 53.515625 0 
L 44.484375 0 
L 44.484375 32.71875 
Q 44.484375 40.625 41.703125 44.40625 
Q 38.921875 48.1875 33.109375 48.1875 
Q 26.21875 48.1875 22.15625 43.53125 
Q 18.109375 38.875 18.109375 30.90625 
L 18.109375 0 
L 9.078125 0 
L 9.078125 54.6875 
L 18.109375 54.6875 
L 18.109375 46.1875 
Q 21.1875 51.21875 25.484375 53.609375 
Q 29.78125 56 35.6875 56 
Q 41.65625 56 45.828125 52.96875 
Q 50 49.953125 52 44.1875 
z
" id="DejaVuSans-109"/>
       <path d="M 10.6875 12.40625 
L 21 12.40625 
L 21 0 
L 10.6875 0 
z
" id="DejaVuSans-46"/>
       <path d="M 34.28125 27.484375 
Q 23.390625 27.484375 19.1875 25 
Q 14.984375 22.515625 14.984375 16.5 
Q 14.984375 11.71875 18.140625 8.90625 
Q 21.296875 6.109375 26.703125 6.109375 
Q 34.1875 6.109375 38.703125 11.40625 
Q 43.21875 16.703125 43.21875 25.484375 
L 43.21875 27.484375 
z
M 52.203125 31.203125 
L 52.203125 0 
L 43.21875 0 
L 43.21875 8.296875 
Q 40.140625 3.328125 35.546875 0.953125 
Q 30.953125 -1.421875 24.3125 -1.421875 
Q 15.921875 -1.421875 10.953125 3.296875 
Q 6 8.015625 6 15.921875 
Q 6 25.140625 12.171875 29.828125 
Q 18.359375 34.515625 30.609375 34.515625 
L 43.21875 34.515625 
L 43.21875 35.40625 
Q 43.21875 41.609375 39.140625 45 
Q 35.0625 48.390625 27.6875 48.390625 
Q 23 48.390625 18.546875 47.265625 
Q 14.109375 46.140625 10.015625 43.890625 
L 10.015625 52.203125 
Q 14.9375 54.109375 19.578125 55.046875 
Q 24.21875 56 28.609375 56 
Q 40.484375 56 46.34375 49.84375 
Q 52.203125 43.703125 52.203125 31.203125 
z
" id="DejaVuSans-97"/>
       <path d="M 8.5 21.578125 
L 8.5 54.6875 
L 17.484375 54.6875 
L 17.484375 21.921875 
Q 17.484375 14.15625 20.5 10.265625 
Q 23.53125 6.390625 29.59375 6.390625 
Q 36.859375 6.390625 41.078125 11.03125 
Q 45.3125 15.671875 45.3125 23.6875 
L 45.3125 54.6875 
L 54.296875 54.6875 
L 54.296875 0 
L 45.3125 0 
L 45.3125 8.40625 
Q 42.046875 3.421875 37.71875 1 
Q 33.40625 -1.421875 27.6875 -1.421875 
Q 18.265625 -1.421875 13.375 4.4375 
Q 8.5 10.296875 8.5 21.578125 
z
M 31.109375 56 
z
" id="DejaVuSans-117"/>
      </defs>
      <g transform="translate(43.325 398.959687)rotate(-90)scale(0.1 -0.1)">
       <use xlink:href="#DejaVuSans-99"/>
       <use x="54.980469" xlink:href="#DejaVuSans-111"/>
       <use x="116.162109" xlink:href="#DejaVuSans-109"/>
       <use x="213.574219" xlink:href="#DejaVuSans-46"/>
       <use x="245.361328" xlink:href="#DejaVuSans-97"/>
       <use x="306.640625" xlink:href="#DejaVuSans-117"/>
      </g>
     </g>
    </g>
    <g id="xtick_2">
     <g id="line2d_2">
      <g>
       <use style="stroke:#000000;stroke-width:0.8;" x="61.490625" xlink:href="#madfbc8aed4" y="354.958125"/>
      </g>
     </g>
     <g id="text_2">
      <!-- com.br -->
      <defs>
       <path d="M 48.6875 27.296875 
Q 48.6875 37.203125 44.609375 42.84375 
Q 40.53125 48.484375 33.40625 48.484375 
Q 26.265625 48.484375 22.1875 42.84375 
Q 18.109375 37.203125 18.109375 27.296875 
Q 18.109375 17.390625 22.1875 11.75 
Q 26.265625 6.109375 33.40625 6.109375 
Q 40.53125 6.109375 44.609375 11.75 
Q 48.6875 17.390625 48.6875 27.296875 
z
M 18.109375 46.390625 
Q 20.953125 51.265625 25.265625 53.625 
Q 29.59375 56 35.59375 56 
Q 45.5625 56 51.78125 48.09375 
Q 58.015625 40.1875 58.015625 27.296875 
Q 58.015625 14.40625 51.78125 6.484375 
Q 45.5625 -1.421875 35.59375 -1.421875 
Q 29.59375 -1.421875 25.265625 0.953125 
Q 20.953125 3.328125 18.109375 8.203125 
L 18.109375 0 
L 9.078125 0 
L 9.078125 75.984375 
L 18.109375 75.984375 
z
" id="DejaVuSans-98"/>
       <path d="M 41.109375 46.296875 
Q 39.59375 47.171875 37.8125 47.578125 
Q 36.03125 48 33.890625 48 
Q 26.265625 48 22.1875 43.046875 
Q 18.109375 38.09375 18.109375 28.8125 
L 18.109375 0 
L 9.078125 0 
L 9.078125 54.6875 
L 18.109375 54.6875 
L 18.109375 46.1875 
Q 20.953125 51.171875 25.484375 53.578125 
Q 30.03125 56 36.53125 56 
Q 37.453125 56 38.578125 55.875 
Q 39.703125 55.765625 41.0625 55.515625 
z
" id="DejaVuSans-114"/>
      </defs>
      <g transform="translate(64.25 396.953437)rotate(-90)scale(0.1 -0.1)">
       <use xlink:href="#DejaVuSans-99"/>
       <use x="54.980469" xlink:href="#DejaVuSans-111"/>
       <use x="116.162109" xlink:href="#DejaVuSans-109"/>
       <use x="213.574219" xlink:href="#DejaVuSans-46"/>
       <use x="245.361328" xlink:href="#DejaVuSans-98"/>
       <use x="308.837891" xlink:href="#DejaVuSans-114"/>
      </g>
     </g>
    </g>
    <g id="xtick_3">
     <g id="line2d_3">
      <g>
       <use style="stroke:#000000;stroke-width:0.8;" x="82.415625" xlink:href="#madfbc8aed4" y="354.958125"/>
      </g>
     </g>
     <g id="text_3">
      <!-- ca -->
      <g transform="translate(85.175 373.584687)rotate(-90)scale(0.1 -0.1)">
       <use xlink:href="#DejaVuSans-99"/>
       <use x="54.980469" xlink:href="#DejaVuSans-97"/>
      </g>
     </g>
    </g>
    <g id="xtick_4">
     <g id="line2d_4">
      <g>
       <use style="stroke:#000000;stroke-width:0.8;" x="103.340625" xlink:href="#madfbc8aed4" y="354.958125"/>
      </g>
     </g>
     <g id="text_4">
      <!-- cc -->
      <g transform="translate(106.1 372.955)rotate(-90)scale(0.1 -0.1)">
       <use xlink:href="#DejaVuSans-99"/>
       <use x="54.980469" xlink:href="#DejaVuSans-99"/>
      </g>
     </g>
    </g>
    <g id="xtick_5">
     <g id="line2d_5">
      <g>
       <use style="stroke:#000000;stroke-width:0.8;" x="124.265625" xlink:href="#madfbc8aed4" y="354.958125"/>
      </g>
     </g>
     <g id="text_5">
      <!-- cn -->
      <defs>
       <path d="M 54.890625 33.015625 
L 54.890625 0 
L 45.90625 0 
L 45.90625 32.71875 
Q 45.90625 40.484375 42.875 44.328125 
Q 39.84375 48.1875 33.796875 48.1875 
Q 26.515625 48.1875 22.3125 43.546875 
Q 18.109375 38.921875 18.109375 30.90625 
L 18.109375 0 
L 9.078125 0 
L 9.078125 54.6875 
L 18.109375 54.6875 
L 18.109375 46.1875 
Q 21.34375 51.125 25.703125 53.5625 
Q 30.078125 56 35.796875 56 
Q 45.21875 56 50.046875 50.171875 
Q 54.890625 44.34375 54.890625 33.015625 
z
" id="DejaVuSans-110"/>
      </defs>
      <g transform="translate(127.025 373.794062)rotate(-90)scale(0.1 -0.1)">
       <use xlink:href="#DejaVuSans-99"/>
       <use x="54.980469" xlink:href="#DejaVuSans-110"/>
      </g>
     </g>
    </g>
    <g id="xtick_6">
     <g id="line2d_6">
      <g>
       <use style="stroke:#000000;stroke-width:0.8;" x="145.190625" xlink:href="#madfbc8aed4" y="354.958125"/>
      </g>
     </g>
     <g id="text_6">
      <!-- com.cn -->
      <g transform="translate(147.95 398.33)rotate(-90)scale(0.1 -0.1)">
       <use xlink:href="#DejaVuSans-99"/>
       <use x="54.980469" xlink:href="#DejaVuSans-111"/>
       <use x="116.162109" xlink:href="#DejaVuSans-109"/>
       <use x="213.574219" xlink:href="#DejaVuSans-46"/>
       <use x="245.361328" xlink:href="#DejaVuSans-99"/>
       <use x="300.341797" xlink:href="#DejaVuSans-110"/>
      </g>
     </g>
    </g>
    <g id="xtick_7">
     <g id="line2d_7">
      <g>
       <use style="stroke:#000000;stroke-width:0.8;" x="166.115625" xlink:href="#madfbc8aed4" y="354.958125"/>
      </g>
     </g>
     <g id="text_7">
      <!-- co -->
      <g transform="translate(168.875 373.575312)rotate(-90)scale(0.1 -0.1)">
       <use xlink:href="#DejaVuSans-99"/>
       <use x="54.980469" xlink:href="#DejaVuSans-111"/>
      </g>
     </g>
    </g>
    <g id="xtick_8">
     <g id="line2d_8">
      <g>
       <use style="stroke:#000000;stroke-width:0.8;" x="187.040625" xlink:href="#madfbc8aed4" y="354.958125"/>
      </g>
     </g>
     <g id="text_8">
      <!-- com -->
      <g transform="translate(189.8 383.315937)rotate(-90)scale(0.1 -0.1)">
       <use xlink:href="#DejaVuSans-99"/>
       <use x="54.980469" xlink:href="#DejaVuSans-111"/>
       <use x="116.162109" xlink:href="#DejaVuSans-109"/>
      </g>
     </g>
    </g>
    <g id="xtick_9">
     <g id="line2d_9">
      <g>
       <use style="stroke:#000000;stroke-width:0.8;" x="207.965625" xlink:href="#madfbc8aed4" y="354.958125"/>
      </g>
     </g>
     <g id="text_9">
      <!-- de -->
      <defs>
       <path d="M 45.40625 46.390625 
L 45.40625 75.984375 
L 54.390625 75.984375 
L 54.390625 0 
L 45.40625 0 
L 45.40625 8.203125 
Q 42.578125 3.328125 38.25 0.953125 
Q 33.9375 -1.421875 27.875 -1.421875 
Q 17.96875 -1.421875 11.734375 6.484375 
Q 5.515625 14.40625 5.515625 27.296875 
Q 5.515625 40.1875 11.734375 48.09375 
Q 17.96875 56 27.875 56 
Q 33.9375 56 38.25 53.625 
Q 42.578125 51.265625 45.40625 46.390625 
z
M 14.796875 27.296875 
Q 14.796875 17.390625 18.875 11.75 
Q 22.953125 6.109375 30.078125 6.109375 
Q 37.203125 6.109375 41.296875 11.75 
Q 45.40625 17.390625 45.40625 27.296875 
Q 45.40625 37.203125 41.296875 42.84375 
Q 37.203125 48.484375 30.078125 48.484375 
Q 22.953125 48.484375 18.875 42.84375 
Q 14.796875 37.203125 14.796875 27.296875 
z
" id="DejaVuSans-100"/>
       <path d="M 56.203125 29.59375 
L 56.203125 25.203125 
L 14.890625 25.203125 
Q 15.484375 15.921875 20.484375 11.0625 
Q 25.484375 6.203125 34.421875 6.203125 
Q 39.59375 6.203125 44.453125 7.46875 
Q 49.3125 8.734375 54.109375 11.28125 
L 54.109375 2.78125 
Q 49.265625 0.734375 44.1875 -0.34375 
Q 39.109375 -1.421875 33.890625 -1.421875 
Q 20.796875 -1.421875 13.15625 6.1875 
Q 5.515625 13.8125 5.515625 26.8125 
Q 5.515625 40.234375 12.765625 48.109375 
Q 20.015625 56 32.328125 56 
Q 43.359375 56 49.78125 48.890625 
Q 56.203125 41.796875 56.203125 29.59375 
z
M 47.21875 32.234375 
Q 47.125 39.59375 43.09375 43.984375 
Q 39.0625 48.390625 32.421875 48.390625 
Q 24.90625 48.390625 20.390625 44.140625 
Q 15.875 39.890625 15.1875 32.171875 
z
" id="DejaVuSans-101"/>
      </defs>
      <g transform="translate(210.725 374.459687)rotate(-90)scale(0.1 -0.1)">
       <use xlink:href="#DejaVuSans-100"/>
       <use x="63.476562" xlink:href="#DejaVuSans-101"/>
      </g>
     </g>
    </g>
    <g id="xtick_10">
     <g id="line2d_10">
      <g>
       <use style="stroke:#000000;stroke-width:0.8;" x="228.890625" xlink:href="#madfbc8aed4" y="354.958125"/>
      </g>
     </g>
     <g id="text_10">
      <!-- edu -->
      <g transform="translate(231.65 380.797187)rotate(-90)scale(0.1 -0.1)">
       <use xlink:href="#DejaVuSans-101"/>
       <use x="61.523438" xlink:href="#DejaVuSans-100"/>
       <use x="125" xlink:href="#DejaVuSans-117"/>
      </g>
     </g>
    </g>
    <g id="xtick_11">
     <g id="line2d_11">
      <g>
       <use style="stroke:#000000;stroke-width:0.8;" x="249.815625" xlink:href="#madfbc8aed4" y="354.958125"/>
      </g>
     </g>
     <g id="text_11">
      <!-- es -->
      <defs>
       <path d="M 44.28125 53.078125 
L 44.28125 44.578125 
Q 40.484375 46.53125 36.375 47.5 
Q 32.28125 48.484375 27.875 48.484375 
Q 21.1875 48.484375 17.84375 46.4375 
Q 14.5 44.390625 14.5 40.28125 
Q 14.5 37.15625 16.890625 35.375 
Q 19.28125 33.59375 26.515625 31.984375 
L 29.59375 31.296875 
Q 39.15625 29.25 43.1875 25.515625 
Q 47.21875 21.78125 47.21875 15.09375 
Q 47.21875 7.46875 41.1875 3.015625 
Q 35.15625 -1.421875 24.609375 -1.421875 
Q 20.21875 -1.421875 15.453125 -0.5625 
Q 10.6875 0.296875 5.421875 2 
L 5.421875 11.28125 
Q 10.40625 8.6875 15.234375 7.390625 
Q 20.0625 6.109375 24.8125 6.109375 
Q 31.15625 6.109375 34.5625 8.28125 
Q 37.984375 10.453125 37.984375 14.40625 
Q 37.984375 18.0625 35.515625 20.015625 
Q 33.0625 21.96875 24.703125 23.78125 
L 21.578125 24.515625 
Q 13.234375 26.265625 9.515625 29.90625 
Q 5.8125 33.546875 5.8125 39.890625 
Q 5.8125 47.609375 11.28125 51.796875 
Q 16.75 56 26.8125 56 
Q 31.78125 56 36.171875 55.265625 
Q 40.578125 54.546875 44.28125 53.078125 
z
" id="DejaVuSans-115"/>
      </defs>
      <g transform="translate(252.575 373.320625)rotate(-90)scale(0.1 -0.1)">
       <use xlink:href="#DejaVuSans-101"/>
       <use x="61.523438" xlink:href="#DejaVuSans-115"/>
      </g>
     </g>
    </g>
    <g id="xtick_12">
     <g id="line2d_12">
      <g>
       <use style="stroke:#000000;stroke-width:0.8;" x="270.740625" xlink:href="#madfbc8aed4" y="354.958125"/>
      </g>
     </g>
     <g id="text_12">
      <!-- fr -->
      <defs>
       <path d="M 37.109375 75.984375 
L 37.109375 68.5 
L 28.515625 68.5 
Q 23.6875 68.5 21.796875 66.546875 
Q 19.921875 64.59375 19.921875 59.515625 
L 19.921875 54.6875 
L 34.71875 54.6875 
L 34.71875 47.703125 
L 19.921875 47.703125 
L 19.921875 0 
L 10.890625 0 
L 10.890625 47.703125 
L 2.296875 47.703125 
L 2.296875 54.6875 
L 10.890625 54.6875 
L 10.890625 58.5 
Q 10.890625 67.625 15.140625 71.796875 
Q 19.390625 75.984375 28.609375 75.984375 
z
" id="DejaVuSans-102"/>
      </defs>
      <g transform="translate(273.5 369.589375)rotate(-90)scale(0.1 -0.1)">
       <use xlink:href="#DejaVuSans-102"/>
       <use x="35.205078" xlink:href="#DejaVuSans-114"/>
      </g>
     </g>
    </g>
    <g id="xtick_13">
     <g id="line2d_13">
      <g>
       <use style="stroke:#000000;stroke-width:0.8;" x="291.665625" xlink:href="#madfbc8aed4" y="354.958125"/>
      </g>
     </g>
     <g id="text_13">
      <!-- gr -->
      <defs>
       <path d="M 45.40625 27.984375 
Q 45.40625 37.75 41.375 43.109375 
Q 37.359375 48.484375 30.078125 48.484375 
Q 22.859375 48.484375 18.828125 43.109375 
Q 14.796875 37.75 14.796875 27.984375 
Q 14.796875 18.265625 18.828125 12.890625 
Q 22.859375 7.515625 30.078125 7.515625 
Q 37.359375 7.515625 41.375 12.890625 
Q 45.40625 18.265625 45.40625 27.984375 
z
M 54.390625 6.78125 
Q 54.390625 -7.171875 48.1875 -13.984375 
Q 42 -20.796875 29.203125 -20.796875 
Q 24.46875 -20.796875 20.265625 -20.09375 
Q 16.0625 -19.390625 12.109375 -17.921875 
L 12.109375 -9.1875 
Q 16.0625 -11.328125 19.921875 -12.34375 
Q 23.78125 -13.375 27.78125 -13.375 
Q 36.625 -13.375 41.015625 -8.765625 
Q 45.40625 -4.15625 45.40625 5.171875 
L 45.40625 9.625 
Q 42.625 4.78125 38.28125 2.390625 
Q 33.9375 0 27.875 0 
Q 17.828125 0 11.671875 7.65625 
Q 5.515625 15.328125 5.515625 27.984375 
Q 5.515625 40.671875 11.671875 48.328125 
Q 17.828125 56 27.875 56 
Q 33.9375 56 38.28125 53.609375 
Q 42.625 51.21875 45.40625 46.390625 
L 45.40625 54.6875 
L 54.390625 54.6875 
z
" id="DejaVuSans-103"/>
      </defs>
      <g transform="translate(294.425 372.4175)rotate(-90)scale(0.1 -0.1)">
       <use xlink:href="#DejaVuSans-103"/>
       <use x="63.476562" xlink:href="#DejaVuSans-114"/>
      </g>
     </g>
    </g>
    <g id="xtick_14">
     <g id="line2d_14">
      <g>
       <use style="stroke:#000000;stroke-width:0.8;" x="312.590625" xlink:href="#madfbc8aed4" y="354.958125"/>
      </g>
     </g>
     <g id="text_14">
      <!-- in -->
      <defs>
       <path d="M 9.421875 54.6875 
L 18.40625 54.6875 
L 18.40625 0 
L 9.421875 0 
z
M 9.421875 75.984375 
L 18.40625 75.984375 
L 18.40625 64.59375 
L 9.421875 64.59375 
z
" id="DejaVuSans-105"/>
      </defs>
      <g transform="translate(315.35 371.07375)rotate(-90)scale(0.1 -0.1)">
       <use xlink:href="#DejaVuSans-105"/>
       <use x="27.783203" xlink:href="#DejaVuSans-110"/>
      </g>
     </g>
    </g>
    <g id="xtick_15">
     <g id="line2d_15">
      <g>
       <use style="stroke:#000000;stroke-width:0.8;" x="333.515625" xlink:href="#madfbc8aed4" y="354.958125"/>
      </g>
     </g>
     <g id="text_15">
      <!-- gov.in -->
      <defs>
       <path d="M 2.984375 54.6875 
L 12.5 54.6875 
L 29.59375 8.796875 
L 46.6875 54.6875 
L 56.203125 54.6875 
L 35.6875 0 
L 23.484375 0 
z
" id="DejaVuSans-118"/>
      </defs>
      <g transform="translate(336.275 392.626875)rotate(-90)scale(0.1 -0.1)">
       <use xlink:href="#DejaVuSans-103"/>
       <use x="63.476562" xlink:href="#DejaVuSans-111"/>
       <use x="124.658203" xlink:href="#DejaVuSans-118"/>
       <use x="183.728516" xlink:href="#DejaVuSans-46"/>
       <use x="215.515625" xlink:href="#DejaVuSans-105"/>
       <use x="243.298828" xlink:href="#DejaVuSans-110"/>
      </g>
     </g>
    </g>
    <g id="xtick_16">
     <g id="line2d_16">
      <g>
       <use style="stroke:#000000;stroke-width:0.8;" x="354.440625" xlink:href="#madfbc8aed4" y="354.958125"/>
      </g>
     </g>
     <g id="text_16">
      <!-- info -->
      <g transform="translate(357.2 380.712812)rotate(-90)scale(0.1 -0.1)">
       <use xlink:href="#DejaVuSans-105"/>
       <use x="27.783203" xlink:href="#DejaVuSans-110"/>
       <use x="91.162109" xlink:href="#DejaVuSans-102"/>
       <use x="126.367188" xlink:href="#DejaVuSans-111"/>
      </g>
     </g>
    </g>
    <g id="xtick_17">
     <g id="line2d_17">
      <g>
       <use style="stroke:#000000;stroke-width:0.8;" x="375.365625" xlink:href="#madfbc8aed4" y="354.958125"/>
      </g>
     </g>
     <g id="text_17">
      <!-- io -->
      <g transform="translate(378.125 370.855)rotate(-90)scale(0.1 -0.1)">
       <use xlink:href="#DejaVuSans-105"/>
       <use x="27.783203" xlink:href="#DejaVuSans-111"/>
      </g>
     </g>
    </g>
    <g id="xtick_18">
     <g id="line2d_18">
      <g>
       <use style="stroke:#000000;stroke-width:0.8;" x="396.290625" xlink:href="#madfbc8aed4" y="354.958125"/>
      </g>
     </g>
     <g id="text_18">
      <!-- ir -->
      <g transform="translate(399.05 368.847187)rotate(-90)scale(0.1 -0.1)">
       <use xlink:href="#DejaVuSans-105"/>
       <use x="27.783203" xlink:href="#DejaVuSans-114"/>
      </g>
     </g>
    </g>
    <g id="xtick_19">
     <g id="line2d_19">
      <g>
       <use style="stroke:#000000;stroke-width:0.8;" x="417.215625" xlink:href="#madfbc8aed4" y="354.958125"/>
      </g>
     </g>
     <g id="text_19">
      <!-- it -->
      <defs>
       <path d="M 18.3125 70.21875 
L 18.3125 54.6875 
L 36.8125 54.6875 
L 36.8125 47.703125 
L 18.3125 47.703125 
L 18.3125 18.015625 
Q 18.3125 11.328125 20.140625 9.421875 
Q 21.96875 7.515625 27.59375 7.515625 
L 36.8125 7.515625 
L 36.8125 0 
L 27.59375 0 
Q 17.1875 0 13.234375 3.875 
Q 9.28125 7.765625 9.28125 18.015625 
L 9.28125 47.703125 
L 2.6875 47.703125 
L 2.6875 54.6875 
L 9.28125 54.6875 
L 9.28125 70.21875 
z
" id="DejaVuSans-116"/>
      </defs>
      <g transform="translate(419.975 368.656562)rotate(-90)scale(0.1 -0.1)">
       <use xlink:href="#DejaVuSans-105"/>
       <use x="27.783203" xlink:href="#DejaVuSans-116"/>
      </g>
     </g>
    </g>
    <g id="xtick_20">
     <g id="line2d_20">
      <g>
       <use style="stroke:#000000;stroke-width:0.8;" x="438.140625" xlink:href="#madfbc8aed4" y="354.958125"/>
      </g>
     </g>
     <g id="text_20">
      <!-- jp -->
      <defs>
       <path d="M 9.421875 54.6875 
L 18.40625 54.6875 
L 18.40625 -0.984375 
Q 18.40625 -11.421875 14.421875 -16.109375 
Q 10.453125 -20.796875 1.609375 -20.796875 
L -1.8125 -20.796875 
L -1.8125 -13.1875 
L 0.59375 -13.1875 
Q 5.71875 -13.1875 7.5625 -10.8125 
Q 9.421875 -8.453125 9.421875 -0.984375 
z
M 9.421875 75.984375 
L 18.40625 75.984375 
L 18.40625 64.59375 
L 9.421875 64.59375 
z
" id="DejaVuSans-106"/>
       <path d="M 18.109375 8.203125 
L 18.109375 -20.796875 
L 9.078125 -20.796875 
L 9.078125 54.6875 
L 18.109375 54.6875 
L 18.109375 46.390625 
Q 20.953125 51.265625 25.265625 53.625 
Q 29.59375 56 35.59375 56 
Q 45.5625 56 51.78125 48.09375 
Q 58.015625 40.1875 58.015625 27.296875 
Q 58.015625 14.40625 51.78125 6.484375 
Q 45.5625 -1.421875 35.59375 -1.421875 
Q 29.59375 -1.421875 25.265625 0.953125 
Q 20.953125 3.328125 18.109375 8.203125 
z
M 48.6875 27.296875 
Q 48.6875 37.203125 44.609375 42.84375 
Q 40.53125 48.484375 33.40625 48.484375 
Q 26.265625 48.484375 22.1875 42.84375 
Q 18.109375 37.203125 18.109375 27.296875 
Q 18.109375 17.390625 22.1875 11.75 
Q 26.265625 6.109375 33.40625 6.109375 
Q 40.53125 6.109375 44.609375 11.75 
Q 48.6875 17.390625 48.6875 27.296875 
z
" id="DejaVuSans-112"/>
      </defs>
      <g transform="translate(440.9 371.084687)rotate(-90)scale(0.1 -0.1)">
       <use xlink:href="#DejaVuSans-106"/>
       <use x="27.783203" xlink:href="#DejaVuSans-112"/>
      </g>
     </g>
    </g>
    <g id="xtick_21">
     <g id="line2d_21">
      <g>
       <use style="stroke:#000000;stroke-width:0.8;" x="459.065625" xlink:href="#madfbc8aed4" y="354.958125"/>
      </g>
     </g>
     <g id="text_21">
      <!-- co.jp -->
      <g transform="translate(461.825 385.878437)rotate(-90)scale(0.1 -0.1)">
       <use xlink:href="#DejaVuSans-99"/>
       <use x="54.980469" xlink:href="#DejaVuSans-111"/>
       <use x="116.146484" xlink:href="#DejaVuSans-46"/>
       <use x="147.933594" xlink:href="#DejaVuSans-106"/>
       <use x="175.716797" xlink:href="#DejaVuSans-112"/>
      </g>
     </g>
    </g>
    <g id="xtick_22">
     <g id="line2d_22">
      <g>
       <use style="stroke:#000000;stroke-width:0.8;" x="479.990625" xlink:href="#madfbc8aed4" y="354.958125"/>
      </g>
     </g>
     <g id="text_22">
      <!-- co.kr -->
      <defs>
       <path d="M 9.078125 75.984375 
L 18.109375 75.984375 
L 18.109375 31.109375 
L 44.921875 54.6875 
L 56.390625 54.6875 
L 27.390625 29.109375 
L 57.625 0 
L 45.90625 0 
L 18.109375 26.703125 
L 18.109375 0 
L 9.078125 0 
z
" id="DejaVuSans-107"/>
      </defs>
      <g transform="translate(482.75 386.653437)rotate(-90)scale(0.1 -0.1)">
       <use xlink:href="#DejaVuSans-99"/>
       <use x="54.980469" xlink:href="#DejaVuSans-111"/>
       <use x="116.146484" xlink:href="#DejaVuSans-46"/>
       <use x="147.933594" xlink:href="#DejaVuSans-107"/>
       <use x="205.84375" xlink:href="#DejaVuSans-114"/>
      </g>
     </g>
    </g>
    <g id="xtick_23">
     <g id="line2d_23">
      <g>
       <use style="stroke:#000000;stroke-width:0.8;" x="500.915625" xlink:href="#madfbc8aed4" y="354.958125"/>
      </g>
     </g>
     <g id="text_23">
      <!-- me -->
      <g transform="translate(503.675 377.851875)rotate(-90)scale(0.1 -0.1)">
       <use xlink:href="#DejaVuSans-109"/>
       <use x="97.412109" xlink:href="#DejaVuSans-101"/>
      </g>
     </g>
    </g>
    <g id="xtick_24">
     <g id="line2d_24">
      <g>
       <use style="stroke:#000000;stroke-width:0.8;" x="521.840625" xlink:href="#madfbc8aed4" y="354.958125"/>
      </g>
     </g>
     <g id="text_24">
      <!-- net -->
      <g transform="translate(524.6 378.369062)rotate(-90)scale(0.1 -0.1)">
       <use xlink:href="#DejaVuSans-110"/>
       <use x="63.378906" xlink:href="#DejaVuSans-101"/>
       <use x="124.902344" xlink:href="#DejaVuSans-116"/>
      </g>
     </g>
    </g>
    <g id="xtick_25">
     <g id="line2d_25">
      <g>
       <use style="stroke:#000000;stroke-width:0.8;" x="542.765625" xlink:href="#madfbc8aed4" y="354.958125"/>
      </g>
     </g>
     <g id="text_25">
      <!-- org -->
      <g transform="translate(545.525 378.534687)rotate(-90)scale(0.1 -0.1)">
       <use xlink:href="#DejaVuSans-111"/>
       <use x="61.181641" xlink:href="#DejaVuSans-114"/>
       <use x="102.279297" xlink:href="#DejaVuSans-103"/>
      </g>
     </g>
    </g>
    <g id="xtick_26">
     <g id="line2d_26">
      <g>
       <use style="stroke:#000000;stroke-width:0.8;" x="563.690625" xlink:href="#madfbc8aed4" y="354.958125"/>
      </g>
     </g>
     <g id="text_26">
      <!-- pl -->
      <defs>
       <path d="M 9.421875 75.984375 
L 18.40625 75.984375 
L 18.40625 0 
L 9.421875 0 
z
" id="DejaVuSans-108"/>
      </defs>
      <g transform="translate(566.45 371.084687)rotate(-90)scale(0.1 -0.1)">
       <use xlink:href="#DejaVuSans-112"/>
       <use x="63.476562" xlink:href="#DejaVuSans-108"/>
      </g>
     </g>
    </g>
    <g id="xtick_27">
     <g id="line2d_27">
      <g>
       <use style="stroke:#000000;stroke-width:0.8;" x="584.615625" xlink:href="#madfbc8aed4" y="354.958125"/>
      </g>
     </g>
     <g id="text_27">
      <!-- ru -->
      <g transform="translate(587.375 372.406562)rotate(-90)scale(0.1 -0.1)">
       <use xlink:href="#DejaVuSans-114"/>
       <use x="41.113281" xlink:href="#DejaVuSans-117"/>
      </g>
     </g>
    </g>
    <g id="xtick_28">
     <g id="line2d_28">
      <g>
       <use style="stroke:#000000;stroke-width:0.8;" x="605.540625" xlink:href="#madfbc8aed4" y="354.958125"/>
      </g>
     </g>
     <g id="text_28">
      <!-- to -->
      <g transform="translate(608.3 371.997187)rotate(-90)scale(0.1 -0.1)">
       <use xlink:href="#DejaVuSans-116"/>
       <use x="39.208984" xlink:href="#DejaVuSans-111"/>
      </g>
     </g>
    </g>
    <g id="xtick_29">
     <g id="line2d_29">
      <g>
       <use style="stroke:#000000;stroke-width:0.8;" x="626.465625" xlink:href="#madfbc8aed4" y="354.958125"/>
      </g>
     </g>
     <g id="text_29">
      <!-- tv -->
      <g transform="translate(629.225 371.797187)rotate(-90)scale(0.1 -0.1)">
       <use xlink:href="#DejaVuSans-116"/>
       <use x="39.208984" xlink:href="#DejaVuSans-118"/>
      </g>
     </g>
    </g>
    <g id="xtick_30">
     <g id="line2d_30">
      <g>
       <use style="stroke:#000000;stroke-width:0.8;" x="647.390625" xlink:href="#madfbc8aed4" y="354.958125"/>
      </g>
     </g>
     <g id="text_30">
      <!-- com.tw -->
      <defs>
       <path d="M 4.203125 54.6875 
L 13.1875 54.6875 
L 24.421875 12.015625 
L 35.59375 54.6875 
L 46.1875 54.6875 
L 57.421875 12.015625 
L 68.609375 54.6875 
L 77.59375 54.6875 
L 63.28125 0 
L 52.6875 0 
L 40.921875 44.828125 
L 29.109375 0 
L 18.5 0 
z
" id="DejaVuSans-119"/>
      </defs>
      <g transform="translate(650.15 398.5925)rotate(-90)scale(0.1 -0.1)">
       <use xlink:href="#DejaVuSans-99"/>
       <use x="54.980469" xlink:href="#DejaVuSans-111"/>
       <use x="116.162109" xlink:href="#DejaVuSans-109"/>
       <use x="213.574219" xlink:href="#DejaVuSans-46"/>
       <use x="245.361328" xlink:href="#DejaVuSans-116"/>
       <use x="284.570312" xlink:href="#DejaVuSans-119"/>
      </g>
     </g>
    </g>
    <g id="xtick_31">
     <g id="line2d_31">
      <g>
       <use style="stroke:#000000;stroke-width:0.8;" x="668.315625" xlink:href="#madfbc8aed4" y="354.958125"/>
      </g>
     </g>
     <g id="text_31">
      <!-- ua -->
      <g transform="translate(671.075 374.42375)rotate(-90)scale(0.1 -0.1)">
       <use xlink:href="#DejaVuSans-117"/>
       <use x="63.378906" xlink:href="#DejaVuSans-97"/>
      </g>
     </g>
    </g>
    <g id="xtick_32">
     <g id="line2d_32">
      <g>
       <use style="stroke:#000000;stroke-width:0.8;" x="689.240625" xlink:href="#madfbc8aed4" y="354.958125"/>
      </g>
     </g>
     <g id="text_32">
      <!-- co.uk -->
      <g transform="translate(692 388.88)rotate(-90)scale(0.1 -0.1)">
       <use xlink:href="#DejaVuSans-99"/>
       <use x="54.980469" xlink:href="#DejaVuSans-111"/>
       <use x="116.146484" xlink:href="#DejaVuSans-46"/>
       <use x="147.933594" xlink:href="#DejaVuSans-117"/>
       <use x="211.3125" xlink:href="#DejaVuSans-107"/>
      </g>
     </g>
    </g>
   </g>
   <g id="matplotlib.axis_2">
    <g id="ytick_1">
     <g id="line2d_33">
      <defs>
       <path d="M 0 0 
L -3.5 0 
" id="m4832c58ed9" style="stroke:#000000;stroke-width:0.8;"/>
      </defs>
      <g>
       <use style="stroke:#000000;stroke-width:0.8;" x="30.103125" xlink:href="#m4832c58ed9" y="354.958125"/>
      </g>
     </g>
     <g id="text_33">
      <!-- 0.0 -->
      <defs>
       <path d="M 31.78125 66.40625 
Q 24.171875 66.40625 20.328125 58.90625 
Q 16.5 51.421875 16.5 36.375 
Q 16.5 21.390625 20.328125 13.890625 
Q 24.171875 6.390625 31.78125 6.390625 
Q 39.453125 6.390625 43.28125 13.890625 
Q 47.125 21.390625 47.125 36.375 
Q 47.125 51.421875 43.28125 58.90625 
Q 39.453125 66.40625 31.78125 66.40625 
z
M 31.78125 74.21875 
Q 44.046875 74.21875 50.515625 64.515625 
Q 56.984375 54.828125 56.984375 36.375 
Q 56.984375 17.96875 50.515625 8.265625 
Q 44.046875 -1.421875 31.78125 -1.421875 
Q 19.53125 -1.421875 13.0625 8.265625 
Q 6.59375 17.96875 6.59375 36.375 
Q 6.59375 54.828125 13.0625 64.515625 
Q 19.53125 74.21875 31.78125 74.21875 
z
" id="DejaVuSans-48"/>
      </defs>
      <g transform="translate(7.2 358.757344)scale(0.1 -0.1)">
       <use xlink:href="#DejaVuSans-48"/>
       <use x="63.623047" xlink:href="#DejaVuSans-46"/>
       <use x="95.410156" xlink:href="#DejaVuSans-48"/>
      </g>
     </g>
    </g>
    <g id="ytick_2">
     <g id="line2d_34">
      <g>
       <use style="stroke:#000000;stroke-width:0.8;" x="30.103125" xlink:href="#m4832c58ed9" y="288.430125"/>
      </g>
     </g>
     <g id="text_34">
      <!-- 0.2 -->
      <defs>
       <path d="M 19.1875 8.296875 
L 53.609375 8.296875 
L 53.609375 0 
L 7.328125 0 
L 7.328125 8.296875 
Q 12.9375 14.109375 22.625 23.890625 
Q 32.328125 33.6875 34.8125 36.53125 
Q 39.546875 41.84375 41.421875 45.53125 
Q 43.3125 49.21875 43.3125 52.78125 
Q 43.3125 58.59375 39.234375 62.25 
Q 35.15625 65.921875 28.609375 65.921875 
Q 23.96875 65.921875 18.8125 64.3125 
Q 13.671875 62.703125 7.8125 59.421875 
L 7.8125 69.390625 
Q 13.765625 71.78125 18.9375 73 
Q 24.125 74.21875 28.421875 74.21875 
Q 39.75 74.21875 46.484375 68.546875 
Q 53.21875 62.890625 53.21875 53.421875 
Q 53.21875 48.921875 51.53125 44.890625 
Q 49.859375 40.875 45.40625 35.40625 
Q 44.1875 33.984375 37.640625 27.21875 
Q 31.109375 20.453125 19.1875 8.296875 
z
" id="DejaVuSans-50"/>
      </defs>
      <g transform="translate(7.2 292.229344)scale(0.1 -0.1)">
       <use xlink:href="#DejaVuSans-48"/>
       <use x="63.623047" xlink:href="#DejaVuSans-46"/>
       <use x="95.410156" xlink:href="#DejaVuSans-50"/>
      </g>
     </g>
    </g>
    <g id="ytick_3">
     <g id="line2d_35">
      <g>
       <use style="stroke:#000000;stroke-width:0.8;" x="30.103125" xlink:href="#m4832c58ed9" y="221.902125"/>
      </g>
     </g>
     <g id="text_35">
      <!-- 0.4 -->
      <defs>
       <path d="M 37.796875 64.3125 
L 12.890625 25.390625 
L 37.796875 25.390625 
z
M 35.203125 72.90625 
L 47.609375 72.90625 
L 47.609375 25.390625 
L 58.015625 25.390625 
L 58.015625 17.1875 
L 47.609375 17.1875 
L 47.609375 0 
L 37.796875 0 
L 37.796875 17.1875 
L 4.890625 17.1875 
L 4.890625 26.703125 
z
" id="DejaVuSans-52"/>
      </defs>
      <g transform="translate(7.2 225.701344)scale(0.1 -0.1)">
       <use xlink:href="#DejaVuSans-48"/>
       <use x="63.623047" xlink:href="#DejaVuSans-46"/>
       <use x="95.410156" xlink:href="#DejaVuSans-52"/>
      </g>
     </g>
    </g>
    <g id="ytick_4">
     <g id="line2d_36">
      <g>
       <use style="stroke:#000000;stroke-width:0.8;" x="30.103125" xlink:href="#m4832c58ed9" y="155.374125"/>
      </g>
     </g>
     <g id="text_36">
      <!-- 0.6 -->
      <defs>
       <path d="M 33.015625 40.375 
Q 26.375 40.375 22.484375 35.828125 
Q 18.609375 31.296875 18.609375 23.390625 
Q 18.609375 15.53125 22.484375 10.953125 
Q 26.375 6.390625 33.015625 6.390625 
Q 39.65625 6.390625 43.53125 10.953125 
Q 47.40625 15.53125 47.40625 23.390625 
Q 47.40625 31.296875 43.53125 35.828125 
Q 39.65625 40.375 33.015625 40.375 
z
M 52.59375 71.296875 
L 52.59375 62.3125 
Q 48.875 64.0625 45.09375 64.984375 
Q 41.3125 65.921875 37.59375 65.921875 
Q 27.828125 65.921875 22.671875 59.328125 
Q 17.53125 52.734375 16.796875 39.40625 
Q 19.671875 43.65625 24.015625 45.921875 
Q 28.375 48.1875 33.59375 48.1875 
Q 44.578125 48.1875 50.953125 41.515625 
Q 57.328125 34.859375 57.328125 23.390625 
Q 57.328125 12.15625 50.6875 5.359375 
Q 44.046875 -1.421875 33.015625 -1.421875 
Q 20.359375 -1.421875 13.671875 8.265625 
Q 6.984375 17.96875 6.984375 36.375 
Q 6.984375 53.65625 15.1875 63.9375 
Q 23.390625 74.21875 37.203125 74.21875 
Q 40.921875 74.21875 44.703125 73.484375 
Q 48.484375 72.75 52.59375 71.296875 
z
" id="DejaVuSans-54"/>
      </defs>
      <g transform="translate(7.2 159.173344)scale(0.1 -0.1)">
       <use xlink:href="#DejaVuSans-48"/>
       <use x="63.623047" xlink:href="#DejaVuSans-46"/>
       <use x="95.410156" xlink:href="#DejaVuSans-54"/>
      </g>
     </g>
    </g>
    <g id="ytick_5">
     <g id="line2d_37">
      <g>
       <use style="stroke:#000000;stroke-width:0.8;" x="30.103125" xlink:href="#m4832c58ed9" y="88.846125"/>
      </g>
     </g>
     <g id="text_37">
      <!-- 0.8 -->
      <defs>
       <path d="M 31.78125 34.625 
Q 24.75 34.625 20.71875 30.859375 
Q 16.703125 27.09375 16.703125 20.515625 
Q 16.703125 13.921875 20.71875 10.15625 
Q 24.75 6.390625 31.78125 6.390625 
Q 38.8125 6.390625 42.859375 10.171875 
Q 46.921875 13.96875 46.921875 20.515625 
Q 46.921875 27.09375 42.890625 30.859375 
Q 38.875 34.625 31.78125 34.625 
z
M 21.921875 38.8125 
Q 15.578125 40.375 12.03125 44.71875 
Q 8.5 49.078125 8.5 55.328125 
Q 8.5 64.0625 14.71875 69.140625 
Q 20.953125 74.21875 31.78125 74.21875 
Q 42.671875 74.21875 48.875 69.140625 
Q 55.078125 64.0625 55.078125 55.328125 
Q 55.078125 49.078125 51.53125 44.71875 
Q 48 40.375 41.703125 38.8125 
Q 48.828125 37.15625 52.796875 32.3125 
Q 56.78125 27.484375 56.78125 20.515625 
Q 56.78125 9.90625 50.3125 4.234375 
Q 43.84375 -1.421875 31.78125 -1.421875 
Q 19.734375 -1.421875 13.25 4.234375 
Q 6.78125 9.90625 6.78125 20.515625 
Q 6.78125 27.484375 10.78125 32.3125 
Q 14.796875 37.15625 21.921875 38.8125 
z
M 18.3125 54.390625 
Q 18.3125 48.734375 21.84375 45.5625 
Q 25.390625 42.390625 31.78125 42.390625 
Q 38.140625 42.390625 41.71875 45.5625 
Q 45.3125 48.734375 45.3125 54.390625 
Q 45.3125 60.0625 41.71875 63.234375 
Q 38.140625 66.40625 31.78125 66.40625 
Q 25.390625 66.40625 21.84375 63.234375 
Q 18.3125 60.0625 18.3125 54.390625 
z
" id="DejaVuSans-56"/>
      </defs>
      <g transform="translate(7.2 92.645344)scale(0.1 -0.1)">
       <use xlink:href="#DejaVuSans-48"/>
       <use x="63.623047" xlink:href="#DejaVuSans-46"/>
       <use x="95.410156" xlink:href="#DejaVuSans-56"/>
      </g>
     </g>
    </g>
    <g id="ytick_6">
     <g id="line2d_38">
      <g>
       <use style="stroke:#000000;stroke-width:0.8;" x="30.103125" xlink:href="#m4832c58ed9" y="22.318125"/>
      </g>
     </g>
     <g id="text_38">
      <!-- 1.0 -->
      <defs>
       <path d="M 12.40625 8.296875 
L 28.515625 8.296875 
L 28.515625 63.921875 
L 10.984375 60.40625 
L 10.984375 69.390625 
L 28.421875 72.90625 
L 38.28125 72.90625 
L 38.28125 8.296875 
L 54.390625 8.296875 
L 54.390625 0 
L 12.40625 0 
z
" id="DejaVuSans-49"/>
      </defs>
      <g transform="translate(7.2 26.117344)scale(0.1 -0.1)">
       <use xlink:href="#DejaVuSans-49"/>
       <use x="63.623047" xlink:href="#DejaVuSans-46"/>
       <use x="95.410156" xlink:href="#DejaVuSans-48"/>
      </g>
     </g>
    </g>
   </g>
   <g id="patch_3">
    <path d="M 30.103125 354.958125 
L 30.103125 22.318125 
" style="fill:none;stroke:#000000;stroke-linecap:square;stroke-linejoin:miter;stroke-width:0.8;"/>
   </g>
   <g id="patch_4">
    <path d="M 699.703125 354.958125 
L 699.703125 22.318125 
" style="fill:none;stroke:#000000;stroke-linecap:square;stroke-linejoin:miter;stroke-width:0.8;"/>
   </g>
   <g id="patch_5">
    <path d="M 30.103125 354.958125 
L 699.703125 354.958125 
" style="fill:none;stroke:#000000;stroke-linecap:square;stroke-linejoin:miter;stroke-width:0.8;"/>
   </g>
   <g id="patch_6">
    <path d="M 30.103125 22.318125 
L 699.703125 22.318125 
" style="fill:none;stroke:#000000;stroke-linecap:square;stroke-linejoin:miter;stroke-width:0.8;"/>
   </g>
   <g id="text_39">
    <!-- 100% stacked area chart -->
    <defs>
     <path d="M 72.703125 32.078125 
Q 68.453125 32.078125 66.03125 28.46875 
Q 63.625 24.859375 63.625 18.40625 
Q 63.625 12.0625 66.03125 8.421875 
Q 68.453125 4.78125 72.703125 4.78125 
Q 76.859375 4.78125 79.265625 8.421875 
Q 81.6875 12.0625 81.6875 18.40625 
Q 81.6875 24.8125 79.265625 28.4375 
Q 76.859375 32.078125 72.703125 32.078125 
z
M 72.703125 38.28125 
Q 80.421875 38.28125 84.953125 32.90625 
Q 89.5 27.546875 89.5 18.40625 
Q 89.5 9.28125 84.9375 3.921875 
Q 80.375 -1.421875 72.703125 -1.421875 
Q 64.890625 -1.421875 60.34375 3.921875 
Q 55.8125 9.28125 55.8125 18.40625 
Q 55.8125 27.59375 60.375 32.9375 
Q 64.9375 38.28125 72.703125 38.28125 
z
M 22.3125 68.015625 
Q 18.109375 68.015625 15.6875 64.375 
Q 13.28125 60.75 13.28125 54.390625 
Q 13.28125 47.953125 15.671875 44.328125 
Q 18.0625 40.71875 22.3125 40.71875 
Q 26.5625 40.71875 28.96875 44.328125 
Q 31.390625 47.953125 31.390625 54.390625 
Q 31.390625 60.6875 28.953125 64.34375 
Q 26.515625 68.015625 22.3125 68.015625 
z
M 66.40625 74.21875 
L 74.21875 74.21875 
L 28.609375 -1.421875 
L 20.796875 -1.421875 
z
M 22.3125 74.21875 
Q 30.03125 74.21875 34.609375 68.875 
Q 39.203125 63.53125 39.203125 54.390625 
Q 39.203125 45.171875 34.640625 39.84375 
Q 30.078125 34.515625 22.3125 34.515625 
Q 14.546875 34.515625 10.03125 39.859375 
Q 5.515625 45.21875 5.515625 54.390625 
Q 5.515625 63.484375 10.046875 68.84375 
Q 14.59375 74.21875 22.3125 74.21875 
z
" id="DejaVuSans-37"/>
     <path id="DejaVuSans-32"/>
     <path d="M 54.890625 33.015625 
L 54.890625 0 
L 45.90625 0 
L 45.90625 32.71875 
Q 45.90625 40.484375 42.875 44.328125 
Q 39.84375 48.1875 33.796875 48.1875 
Q 26.515625 48.1875 22.3125 43.546875 
Q 18.109375 38.921875 18.109375 30.90625 
L 18.109375 0 
L 9.078125 0 
L 9.078125 75.984375 
L 18.109375 75.984375 
L 18.109375 46.1875 
Q 21.34375 51.125 25.703125 53.5625 
Q 30.078125 56 35.796875 56 
Q 45.21875 56 50.046875 50.171875 
Q 54.890625 44.34375 54.890625 33.015625 
z
" id="DejaVuSans-104"/>
    </defs>
    <g transform="translate(289.495313 16.318125)scale(0.12 -0.12)">
     <use xlink:href="#DejaVuSans-49"/>
     <use x="63.623047" xlink:href="#DejaVuSans-48"/>
     <use x="127.246094" xlink:href="#DejaVuSans-48"/>
     <use x="190.869141" xlink:href="#DejaVuSans-37"/>
     <use x="285.888672" xlink:href="#DejaVuSans-32"/>
     <use x="317.675781" xlink:href="#DejaVuSans-115"/>
     <use x="369.775391" xlink:href="#DejaVuSans-116"/>
     <use x="408.984375" xlink:href="#DejaVuSans-97"/>
     <use x="470.263672" xlink:href="#DejaVuSans-99"/>
     <use x="525.244141" xlink:href="#DejaVuSans-107"/>
     <use x="583.107422" xlink:href="#DejaVuSans-101"/>
     <use x="644.630859" xlink:href="#DejaVuSans-100"/>
     <use x="708.107422" xlink:href="#DejaVuSans-32"/>
     <use x="739.894531" xlink:href="#DejaVuSans-97"/>
     <use x="801.173828" xlink:href="#DejaVuSans-114"/>
     <use x="842.255859" xlink:href="#DejaVuSans-101"/>
     <use x="903.779297" xlink:href="#DejaVuSans-97"/>
     <use x="965.058594" xlink:href="#DejaVuSans-32"/>
     <use x="996.845703" xlink:href="#DejaVuSans-99"/>
     <use x="1051.826172" xlink:href="#DejaVuSans-104"/>
     <use x="1115.205078" xlink:href="#DejaVuSans-97"/>
     <use x="1176.484375" xlink:href="#DejaVuSans-114"/>
     <use x="1217.597656" xlink:href="#DejaVuSans-116"/>
    </g>
   </g>
   <g id="legend_1">
    <g id="patch_7">
     <path d="M 711.703125 123.386875 
L 841.509375 123.386875 
Q 843.509375 123.386875 843.509375 121.386875 
L 843.509375 34.318125 
Q 843.509375 32.318125 841.509375 32.318125 
L 711.703125 32.318125 
Q 709.703125 32.318125 709.703125 34.318125 
L 709.703125 121.386875 
Q 709.703125 123.386875 711.703125 123.386875 
z
" style="fill:#ffffff;opacity:0.8;stroke:#cccccc;stroke-linejoin:miter;"/>
    </g>
    <g id="patch_8">
     <path d="M 713.703125 43.916562 
L 733.703125 43.916562 
L 733.703125 36.916562 
L 713.703125 36.916562 
z
" style="fill:#349e35;"/>
    </g>
    <g id="text_40">
     <!-- Correct -->
     <defs>
      <path d="M 64.40625 67.28125 
L 64.40625 56.890625 
Q 59.421875 61.53125 53.78125 63.8125 
Q 48.140625 66.109375 41.796875 66.109375 
Q 29.296875 66.109375 22.65625 58.46875 
Q 16.015625 50.828125 16.015625 36.375 
Q 16.015625 21.96875 22.65625 14.328125 
Q 29.296875 6.6875 41.796875 6.6875 
Q 48.140625 6.6875 53.78125 8.984375 
Q 59.421875 11.28125 64.40625 15.921875 
L 64.40625 5.609375 
Q 59.234375 2.09375 53.4375 0.328125 
Q 47.65625 -1.421875 41.21875 -1.421875 
Q 24.65625 -1.421875 15.125 8.703125 
Q 5.609375 18.84375 5.609375 36.375 
Q 5.609375 53.953125 15.125 64.078125 
Q 24.65625 74.21875 41.21875 74.21875 
Q 47.75 74.21875 53.53125 72.484375 
Q 59.328125 70.75 64.40625 67.28125 
z
" id="DejaVuSans-67"/>
     </defs>
     <g transform="translate(741.703125 43.916562)scale(0.1 -0.1)">
      <use xlink:href="#DejaVuSans-67"/>
      <use x="69.824219" xlink:href="#DejaVuSans-111"/>
      <use x="131.005859" xlink:href="#DejaVuSans-114"/>
      <use x="172.103516" xlink:href="#DejaVuSans-114"/>
      <use x="213.185547" xlink:href="#DejaVuSans-101"/>
      <use x="274.708984" xlink:href="#DejaVuSans-99"/>
      <use x="329.689453" xlink:href="#DejaVuSans-116"/>
     </g>
    </g>
    <g id="patch_9">
     <path d="M 713.703125 58.594688 
L 733.703125 58.594688 
L 733.703125 51.594688 
L 713.703125 51.594688 
z
" style="fill:#98dd8b;"/>
    </g>
    <g id="text_41">
     <!-- Correct (wR) -->
     <defs>
      <path d="M 31 75.875 
Q 24.46875 64.65625 21.28125 53.65625 
Q 18.109375 42.671875 18.109375 31.390625 
Q 18.109375 20.125 21.3125 9.0625 
Q 24.515625 -2 31 -13.1875 
L 23.1875 -13.1875 
Q 15.875 -1.703125 12.234375 9.375 
Q 8.59375 20.453125 8.59375 31.390625 
Q 8.59375 42.28125 12.203125 53.3125 
Q 15.828125 64.359375 23.1875 75.875 
z
" id="DejaVuSans-40"/>
      <path d="M 44.390625 34.1875 
Q 47.5625 33.109375 50.5625 29.59375 
Q 53.5625 26.078125 56.59375 19.921875 
L 66.609375 0 
L 56 0 
L 46.6875 18.703125 
Q 43.0625 26.03125 39.671875 28.421875 
Q 36.28125 30.8125 30.421875 30.8125 
L 19.671875 30.8125 
L 19.671875 0 
L 9.8125 0 
L 9.8125 72.90625 
L 32.078125 72.90625 
Q 44.578125 72.90625 50.734375 67.671875 
Q 56.890625 62.453125 56.890625 51.90625 
Q 56.890625 45.015625 53.6875 40.46875 
Q 50.484375 35.9375 44.390625 34.1875 
z
M 19.671875 64.796875 
L 19.671875 38.921875 
L 32.078125 38.921875 
Q 39.203125 38.921875 42.84375 42.21875 
Q 46.484375 45.515625 46.484375 51.90625 
Q 46.484375 58.296875 42.84375 61.546875 
Q 39.203125 64.796875 32.078125 64.796875 
z
" id="DejaVuSans-82"/>
      <path d="M 8.015625 75.875 
L 15.828125 75.875 
Q 23.140625 64.359375 26.78125 53.3125 
Q 30.421875 42.28125 30.421875 31.390625 
Q 30.421875 20.453125 26.78125 9.375 
Q 23.140625 -1.703125 15.828125 -13.1875 
L 8.015625 -13.1875 
Q 14.5 -2 17.703125 9.0625 
Q 20.90625 20.125 20.90625 31.390625 
Q 20.90625 42.671875 17.703125 53.65625 
Q 14.5 64.65625 8.015625 75.875 
z
" id="DejaVuSans-41"/>
     </defs>
     <g transform="translate(741.703125 58.594688)scale(0.1 -0.1)">
      <use xlink:href="#DejaVuSans-67"/>
      <use x="69.824219" xlink:href="#DejaVuSans-111"/>
      <use x="131.005859" xlink:href="#DejaVuSans-114"/>
      <use x="172.103516" xlink:href="#DejaVuSans-114"/>
      <use x="213.185547" xlink:href="#DejaVuSans-101"/>
      <use x="274.708984" xlink:href="#DejaVuSans-99"/>
      <use x="329.689453" xlink:href="#DejaVuSans-116"/>
      <use x="368.898438" xlink:href="#DejaVuSans-32"/>
      <use x="400.685547" xlink:href="#DejaVuSans-40"/>
      <use x="439.699219" xlink:href="#DejaVuSans-119"/>
      <use x="521.486328" xlink:href="#DejaVuSans-82"/>
      <use x="590.96875" xlink:href="#DejaVuSans-41"/>
     </g>
    </g>
    <g id="patch_10">
     <path d="M 713.703125 73.272812 
L 733.703125 73.272812 
L 733.703125 66.272812 
L 713.703125 66.272812 
z
" style="fill:#df802e;"/>
    </g>
    <g id="text_42">
     <!-- Undetermined -->
     <defs>
      <path d="M 8.6875 72.90625 
L 18.609375 72.90625 
L 18.609375 28.609375 
Q 18.609375 16.890625 22.84375 11.734375 
Q 27.09375 6.59375 36.625 6.59375 
Q 46.09375 6.59375 50.34375 11.734375 
Q 54.59375 16.890625 54.59375 28.609375 
L 54.59375 72.90625 
L 64.5 72.90625 
L 64.5 27.390625 
Q 64.5 13.140625 57.4375 5.859375 
Q 50.390625 -1.421875 36.625 -1.421875 
Q 22.796875 -1.421875 15.734375 5.859375 
Q 8.6875 13.140625 8.6875 27.390625 
z
" id="DejaVuSans-85"/>
     </defs>
     <g transform="translate(741.703125 73.272812)scale(0.1 -0.1)">
      <use xlink:href="#DejaVuSans-85"/>
      <use x="73.193359" xlink:href="#DejaVuSans-110"/>
      <use x="136.572266" xlink:href="#DejaVuSans-100"/>
      <use x="200.048828" xlink:href="#DejaVuSans-101"/>
      <use x="261.572266" xlink:href="#DejaVuSans-116"/>
      <use x="300.78125" xlink:href="#DejaVuSans-101"/>
      <use x="362.304688" xlink:href="#DejaVuSans-114"/>
      <use x="403.402344" xlink:href="#DejaVuSans-109"/>
      <use x="500.814453" xlink:href="#DejaVuSans-105"/>
      <use x="528.597656" xlink:href="#DejaVuSans-110"/>
      <use x="591.976562" xlink:href="#DejaVuSans-101"/>
      <use x="653.5" xlink:href="#DejaVuSans-100"/>
     </g>
    </g>
    <g id="patch_11">
     <path d="M 713.703125 87.950938 
L 733.703125 87.950938 
L 733.703125 80.950938 
L 713.703125 80.950938 
z
" style="fill:#feba7c;"/>
    </g>
    <g id="text_43">
     <!-- Undetermined (wR) -->
     <g transform="translate(741.703125 87.950938)scale(0.1 -0.1)">
      <use xlink:href="#DejaVuSans-85"/>
      <use x="73.193359" xlink:href="#DejaVuSans-110"/>
      <use x="136.572266" xlink:href="#DejaVuSans-100"/>
      <use x="200.048828" xlink:href="#DejaVuSans-101"/>
      <use x="261.572266" xlink:href="#DejaVuSans-116"/>
      <use x="300.78125" xlink:href="#DejaVuSans-101"/>
      <use x="362.304688" xlink:href="#DejaVuSans-114"/>
      <use x="403.402344" xlink:href="#DejaVuSans-109"/>
      <use x="500.814453" xlink:href="#DejaVuSans-105"/>
      <use x="528.597656" xlink:href="#DejaVuSans-110"/>
      <use x="591.976562" xlink:href="#DejaVuSans-101"/>
      <use x="653.5" xlink:href="#DejaVuSans-100"/>
      <use x="716.976562" xlink:href="#DejaVuSans-32"/>
      <use x="748.763672" xlink:href="#DejaVuSans-40"/>
      <use x="787.777344" xlink:href="#DejaVuSans-119"/>
      <use x="869.564453" xlink:href="#DejaVuSans-82"/>
      <use x="939.046875" xlink:href="#DejaVuSans-41"/>
     </g>
    </g>
    <g id="patch_12">
     <path d="M 713.703125 102.629062 
L 733.703125 102.629062 
L 733.703125 95.629062 
L 713.703125 95.629062 
z
" style="fill:#d33134;"/>
    </g>
    <g id="text_44">
     <!-- Wrong -->
     <defs>
      <path d="M 3.328125 72.90625 
L 13.28125 72.90625 
L 28.609375 11.28125 
L 43.890625 72.90625 
L 54.984375 72.90625 
L 70.3125 11.28125 
L 85.59375 72.90625 
L 95.609375 72.90625 
L 77.296875 0 
L 64.890625 0 
L 49.515625 63.28125 
L 33.984375 0 
L 21.578125 0 
z
" id="DejaVuSans-87"/>
     </defs>
     <g transform="translate(741.703125 102.629062)scale(0.1 -0.1)">
      <use xlink:href="#DejaVuSans-87"/>
      <use x="98.814453" xlink:href="#DejaVuSans-114"/>
      <use x="139.896484" xlink:href="#DejaVuSans-111"/>
      <use x="201.078125" xlink:href="#DejaVuSans-110"/>
      <use x="264.457031" xlink:href="#DejaVuSans-103"/>
     </g>
    </g>
    <g id="patch_13">
     <path d="M 713.703125 117.307187 
L 733.703125 117.307187 
L 733.703125 110.307187 
L 713.703125 110.307187 
z
" style="fill:#fe9897;"/>
    </g>
    <g id="text_45">
     <!-- Wrong (wR) -->
     <g transform="translate(741.703125 117.307187)scale(0.1 -0.1)">
      <use xlink:href="#DejaVuSans-87"/>
      <use x="98.814453" xlink:href="#DejaVuSans-114"/>
      <use x="139.896484" xlink:href="#DejaVuSans-111"/>
      <use x="201.078125" xlink:href="#DejaVuSans-110"/>
      <use x="264.457031" xlink:href="#DejaVuSans-103"/>
      <use x="327.933594" xlink:href="#DejaVuSans-32"/>
      <use x="359.720703" xlink:href="#DejaVuSans-40"/>
      <use x="398.734375" xlink:href="#DejaVuSans-119"/>
      <use x="480.521484" xlink:href="#DejaVuSans-82"/>
      <use x="550.003906" xlink:href="#DejaVuSans-41"/>
     </g>
    </g>
   </g>
  </g>
 </g>
 <defs>
  <clipPath id="p8bbb56455a">
   <rect height="332.64" width="669.6" x="30.103125" y="22.318125"/>
  </clipPath>
 </defs>
</svg>
