<?xml version="1.0" encoding="utf-8" standalone="no"?>
<!DOCTYPE svg PUBLIC "-//W3C//DTD SVG 1.1//EN"
  "http://www.w3.org/Graphics/SVG/1.1/DTD/svg11.dtd">
<!-- Created with matplotlib (http://matplotlib.org/) -->
<svg height="324.17625pt" version="1.1" viewBox="0 0 1163.803125 324.17625" width="1163.803125pt" xmlns="http://www.w3.org/2000/svg" xmlns:xlink="http://www.w3.org/1999/xlink">
 <defs>
  <style type="text/css">
*{stroke-linecap:butt;stroke-linejoin:round;}
  </style>
 </defs>
 <g id="figure_1">
  <g id="patch_1">
   <path d="M 0 324.17625 
L 1163.803125 324.17625 
L 1163.803125 0 
L 0 0 
z
" style="fill:#ffffff;"/>
  </g>
  <g id="axes_1">
   <g id="patch_2">
    <path d="M 163.651562 286.62 
L 1063.412812 286.62 
L 1063.412812 10.7 
L 163.651562 10.7 
z
" style="fill:#ffffff;"/>
   </g>
   <g id="patch_3">
    <path clip-path="url(#p202295bb58)" d="M 979.136252 94.185436 
L 1020.567039 94.185436 
L 1020.567039 73.915831 
L 979.136252 73.915831 
z
" style="fill:#1e90ff;"/>
   </g>
   <g id="patch_4">
    <path clip-path="url(#p202295bb58)" d="M 431.412094 68.84843 
L 431.758711 68.84843 
L 431.758711 48.578825 
L 431.412094 48.578825 
z
" style="fill:#1e90ff;"/>
   </g>
   <g id="patch_5">
    <path clip-path="url(#p202295bb58)" d="M 163.651562 43.511423 
L 176.197067 43.511423 
L 176.197067 23.241818 
L 163.651562 23.241818 
z
" style="fill:#1e90ff;"/>
   </g>
   <g id="patch_6">
    <path clip-path="url(#p202295bb58)" d="M 979.136252 94.185436 
L 1020.567039 94.185436 
L 1020.567039 73.915831 
L 979.136252 73.915831 
z
" style="fill:#1e90ff;opacity:0.5;"/>
   </g>
   <g id="patch_7">
    <path clip-path="url(#p202295bb58)" d="M 431.412094 68.84843 
L 439.981249 68.84843 
L 439.981249 48.578825 
L 431.412094 48.578825 
z
" style="fill:#1e90ff;opacity:0.5;"/>
   </g>
   <g id="patch_8">
    <path clip-path="url(#p202295bb58)" d="M 163.651562 43.511423 
L 176.197067 43.511423 
L 176.197067 23.241818 
L 163.651562 23.241818 
z
" style="fill:#1e90ff;opacity:0.5;"/>
   </g>
   <g id="patch_9">
    <path clip-path="url(#p202295bb58)" d="M 163.651562 122.056143 
L 172.220717 122.056143 
L 172.220717 96.719137 
L 163.651562 96.719137 
z
" style="fill:#ff0000;opacity:0.22;"/>
   </g>
   <g id="patch_10">
    <path clip-path="url(#p202295bb58)" d="M 163.651562 122.056143 
L 169.07711 122.056143 
L 169.07711 96.719137 
L 163.651562 96.719137 
z
" style="fill:#ff0000;opacity:0.66;"/>
   </g>
   <g id="patch_11">
    <path clip-path="url(#p202295bb58)" d="M 163.654972 115.721892 
L 175.407082 115.721892 
L 175.407082 103.053388 
L 163.654972 103.053388 
z
" style="fill:#008000;opacity:0.33;"/>
   </g>
   <g id="patch_12">
    <path clip-path="url(#p202295bb58)" d="M 169.07711 147.39315 
L 177.646264 147.39315 
L 177.646264 122.056143 
L 169.07711 122.056143 
z
" style="fill:#bfbf00;opacity:0.22;"/>
   </g>
   <g id="patch_13">
    <path clip-path="url(#p202295bb58)" d="M 169.07711 147.39315 
L 175.295959 147.39315 
L 175.295959 122.056143 
L 169.07711 122.056143 
z
" style="fill:#bfbf00;opacity:0.66;"/>
   </g>
   <g id="patch_14">
    <path clip-path="url(#p202295bb58)" d="M 431.005727 115.721892 
L 439.574882 115.721892 
L 439.574882 103.053388 
L 431.005727 103.053388 
z
" style="fill:#008000;opacity:0.11;"/>
   </g>
   <g id="patch_15">
    <path clip-path="url(#p202295bb58)" d="M 431.005727 115.721892 
L 431.022576 115.721892 
L 431.022576 103.053388 
L 431.005727 103.053388 
z
" style="fill:#008000;opacity:0.33;"/>
   </g>
   <g id="patch_16">
    <path clip-path="url(#p202295bb58)" d="M 978.824908 172.730156 
L 992.167233 172.730156 
L 992.167233 147.39315 
L 978.824908 147.39315 
z
" style="fill:#ff0000;opacity:0.66;"/>
   </g>
   <g id="patch_17">
    <path clip-path="url(#p202295bb58)" d="M 978.831728 166.395904 
L 1019.873046 166.395904 
L 1019.873046 153.727401 
L 978.831728 153.727401 
z
" style="fill:#008000;opacity:0.33;"/>
   </g>
   <g id="patch_18">
    <path clip-path="url(#p202295bb58)" d="M 992.167233 198.067163 
L 1000.736388 198.067163 
L 1000.736388 172.730156 
L 992.167233 172.730156 
z
" style="fill:#ff0000;opacity:0.22;"/>
   </g>
   <g id="patch_19">
    <path clip-path="url(#p202295bb58)" d="M 992.167233 198.067163 
L 997.559082 198.067163 
L 997.559082 172.730156 
L 992.167233 172.730156 
z
" style="fill:#ff0000;opacity:0.66;"/>
   </g>
   <g id="patch_20">
    <path clip-path="url(#p202295bb58)" d="M 997.559082 223.404169 
L 1006.128237 223.404169 
L 1006.128237 198.067163 
L 997.559082 198.067163 
z
" style="fill:#ff0000;opacity:0.22;"/>
   </g>
   <g id="patch_21">
    <path clip-path="url(#p202295bb58)" d="M 997.559082 223.404169 
L 1002.749146 223.404169 
L 1002.749146 198.067163 
L 997.559082 198.067163 
z
" style="fill:#ff0000;opacity:0.66;"/>
   </g>
   <g id="patch_22">
    <path clip-path="url(#p202295bb58)" d="M 1002.749146 248.741175 
L 1011.3183 248.741175 
L 1011.3183 223.404169 
L 1002.749146 223.404169 
z
" style="fill:#bfbf00;opacity:0.22;"/>
   </g>
   <g id="patch_23">
    <path clip-path="url(#p202295bb58)" d="M 1002.749146 248.741175 
L 1008.240283 248.741175 
L 1008.240283 223.404169 
L 1002.749146 223.404169 
z
" style="fill:#bfbf00;opacity:0.66;"/>
   </g>
   <g id="patch_24">
    <path clip-path="url(#p202295bb58)" d="M 1008.240283 274.078182 
L 1019.756909 274.078182 
L 1019.756909 248.741175 
L 1008.240283 248.741175 
z
" style="fill:#bfbf00;opacity:0.66;"/>
   </g>
   <g id="matplotlib.axis_1">
    <g id="xtick_1">
     <g id="line2d_1">
      <defs>
       <path d="M 0 0 
L 0 3.5 
" id="m60824264b2" style="stroke:#000000;stroke-width:0.8;"/>
      </defs>
      <g>
       <use style="stroke:#000000;stroke-width:0.8;" x="163.651562" xlink:href="#m60824264b2" y="286.62"/>
      </g>
     </g>
     <g id="text_1">
      <!-- 0.0 -->
      <defs>
       <path d="M 31.78125 66.40625 
Q 24.171875 66.40625 20.328125 58.90625 
Q 16.5 51.421875 16.5 36.375 
Q 16.5 21.390625 20.328125 13.890625 
Q 24.171875 6.390625 31.78125 6.390625 
Q 39.453125 6.390625 43.28125 13.890625 
Q 47.125 21.390625 47.125 36.375 
Q 47.125 51.421875 43.28125 58.90625 
Q 39.453125 66.40625 31.78125 66.40625 
z
M 31.78125 74.21875 
Q 44.046875 74.21875 50.515625 64.515625 
Q 56.984375 54.828125 56.984375 36.375 
Q 56.984375 17.96875 50.515625 8.265625 
Q 44.046875 -1.421875 31.78125 -1.421875 
Q 19.53125 -1.421875 13.0625 8.265625 
Q 6.59375 17.96875 6.59375 36.375 
Q 6.59375 54.828125 13.0625 64.515625 
Q 19.53125 74.21875 31.78125 74.21875 
z
" id="DejaVuSans-30"/>
       <path d="M 10.6875 12.40625 
L 21 12.40625 
L 21 0 
L 10.6875 0 
z
" id="DejaVuSans-2e"/>
      </defs>
      <g transform="translate(155.7 301.218437)scale(0.1 -0.1)">
       <use xlink:href="#DejaVuSans-30"/>
       <use x="63.623047" xlink:href="#DejaVuSans-2e"/>
       <use x="95.410156" xlink:href="#DejaVuSans-30"/>
      </g>
     </g>
    </g>
    <g id="xtick_2">
     <g id="line2d_2">
      <g>
       <use style="stroke:#000000;stroke-width:0.8;" x="331.912079" xlink:href="#m60824264b2" y="286.62"/>
      </g>
     </g>
     <g id="text_2">
      <!-- 0.2 -->
      <defs>
       <path d="M 19.1875 8.296875 
L 53.609375 8.296875 
L 53.609375 0 
L 7.328125 0 
L 7.328125 8.296875 
Q 12.9375 14.109375 22.625 23.890625 
Q 32.328125 33.6875 34.8125 36.53125 
Q 39.546875 41.84375 41.421875 45.53125 
Q 43.3125 49.21875 43.3125 52.78125 
Q 43.3125 58.59375 39.234375 62.25 
Q 35.15625 65.921875 28.609375 65.921875 
Q 23.96875 65.921875 18.8125 64.3125 
Q 13.671875 62.703125 7.8125 59.421875 
L 7.8125 69.390625 
Q 13.765625 71.78125 18.9375 73 
Q 24.125 74.21875 28.421875 74.21875 
Q 39.75 74.21875 46.484375 68.546875 
Q 53.21875 62.890625 53.21875 53.421875 
Q 53.21875 48.921875 51.53125 44.890625 
Q 49.859375 40.875 45.40625 35.40625 
Q 44.1875 33.984375 37.640625 27.21875 
Q 31.109375 20.453125 19.1875 8.296875 
z
" id="DejaVuSans-32"/>
      </defs>
      <g transform="translate(323.960517 301.218437)scale(0.1 -0.1)">
       <use xlink:href="#DejaVuSans-30"/>
       <use x="63.623047" xlink:href="#DejaVuSans-2e"/>
       <use x="95.410156" xlink:href="#DejaVuSans-32"/>
      </g>
     </g>
    </g>
    <g id="xtick_3">
     <g id="line2d_3">
      <g>
       <use style="stroke:#000000;stroke-width:0.8;" x="500.172596" xlink:href="#m60824264b2" y="286.62"/>
      </g>
     </g>
     <g id="text_3">
      <!-- 0.4 -->
      <defs>
       <path d="M 37.796875 64.3125 
L 12.890625 25.390625 
L 37.796875 25.390625 
z
M 35.203125 72.90625 
L 47.609375 72.90625 
L 47.609375 25.390625 
L 58.015625 25.390625 
L 58.015625 17.1875 
L 47.609375 17.1875 
L 47.609375 0 
L 37.796875 0 
L 37.796875 17.1875 
L 4.890625 17.1875 
L 4.890625 26.703125 
z
" id="DejaVuSans-34"/>
      </defs>
      <g transform="translate(492.221033 301.218437)scale(0.1 -0.1)">
       <use xlink:href="#DejaVuSans-30"/>
       <use x="63.623047" xlink:href="#DejaVuSans-2e"/>
       <use x="95.410156" xlink:href="#DejaVuSans-34"/>
      </g>
     </g>
    </g>
    <g id="xtick_4">
     <g id="line2d_4">
      <g>
       <use style="stroke:#000000;stroke-width:0.8;" x="668.433112" xlink:href="#m60824264b2" y="286.62"/>
      </g>
     </g>
     <g id="text_4">
      <!-- 0.6 -->
      <defs>
       <path d="M 33.015625 40.375 
Q 26.375 40.375 22.484375 35.828125 
Q 18.609375 31.296875 18.609375 23.390625 
Q 18.609375 15.53125 22.484375 10.953125 
Q 26.375 6.390625 33.015625 6.390625 
Q 39.65625 6.390625 43.53125 10.953125 
Q 47.40625 15.53125 47.40625 23.390625 
Q 47.40625 31.296875 43.53125 35.828125 
Q 39.65625 40.375 33.015625 40.375 
z
M 52.59375 71.296875 
L 52.59375 62.3125 
Q 48.875 64.0625 45.09375 64.984375 
Q 41.3125 65.921875 37.59375 65.921875 
Q 27.828125 65.921875 22.671875 59.328125 
Q 17.53125 52.734375 16.796875 39.40625 
Q 19.671875 43.65625 24.015625 45.921875 
Q 28.375 48.1875 33.59375 48.1875 
Q 44.578125 48.1875 50.953125 41.515625 
Q 57.328125 34.859375 57.328125 23.390625 
Q 57.328125 12.15625 50.6875 5.359375 
Q 44.046875 -1.421875 33.015625 -1.421875 
Q 20.359375 -1.421875 13.671875 8.265625 
Q 6.984375 17.96875 6.984375 36.375 
Q 6.984375 53.65625 15.1875 63.9375 
Q 23.390625 74.21875 37.203125 74.21875 
Q 40.921875 74.21875 44.703125 73.484375 
Q 48.484375 72.75 52.59375 71.296875 
z
" id="DejaVuSans-36"/>
      </defs>
      <g transform="translate(660.48155 301.218437)scale(0.1 -0.1)">
       <use xlink:href="#DejaVuSans-30"/>
       <use x="63.623047" xlink:href="#DejaVuSans-2e"/>
       <use x="95.410156" xlink:href="#DejaVuSans-36"/>
      </g>
     </g>
    </g>
    <g id="xtick_5">
     <g id="line2d_5">
      <g>
       <use style="stroke:#000000;stroke-width:0.8;" x="836.693629" xlink:href="#m60824264b2" y="286.62"/>
      </g>
     </g>
     <g id="text_5">
      <!-- 0.8 -->
      <defs>
       <path d="M 31.78125 34.625 
Q 24.75 34.625 20.71875 30.859375 
Q 16.703125 27.09375 16.703125 20.515625 
Q 16.703125 13.921875 20.71875 10.15625 
Q 24.75 6.390625 31.78125 6.390625 
Q 38.8125 6.390625 42.859375 10.171875 
Q 46.921875 13.96875 46.921875 20.515625 
Q 46.921875 27.09375 42.890625 30.859375 
Q 38.875 34.625 31.78125 34.625 
z
M 21.921875 38.8125 
Q 15.578125 40.375 12.03125 44.71875 
Q 8.5 49.078125 8.5 55.328125 
Q 8.5 64.0625 14.71875 69.140625 
Q 20.953125 74.21875 31.78125 74.21875 
Q 42.671875 74.21875 48.875 69.140625 
Q 55.078125 64.0625 55.078125 55.328125 
Q 55.078125 49.078125 51.53125 44.71875 
Q 48 40.375 41.703125 38.8125 
Q 48.828125 37.15625 52.796875 32.3125 
Q 56.78125 27.484375 56.78125 20.515625 
Q 56.78125 9.90625 50.3125 4.234375 
Q 43.84375 -1.421875 31.78125 -1.421875 
Q 19.734375 -1.421875 13.25 4.234375 
Q 6.78125 9.90625 6.78125 20.515625 
Q 6.78125 27.484375 10.78125 32.3125 
Q 14.796875 37.15625 21.921875 38.8125 
z
M 18.3125 54.390625 
Q 18.3125 48.734375 21.84375 45.5625 
Q 25.390625 42.390625 31.78125 42.390625 
Q 38.140625 42.390625 41.71875 45.5625 
Q 45.3125 48.734375 45.3125 54.390625 
Q 45.3125 60.0625 41.71875 63.234375 
Q 38.140625 66.40625 31.78125 66.40625 
Q 25.390625 66.40625 21.84375 63.234375 
Q 18.3125 60.0625 18.3125 54.390625 
z
" id="DejaVuSans-38"/>
      </defs>
      <g transform="translate(828.742066 301.218437)scale(0.1 -0.1)">
       <use xlink:href="#DejaVuSans-30"/>
       <use x="63.623047" xlink:href="#DejaVuSans-2e"/>
       <use x="95.410156" xlink:href="#DejaVuSans-38"/>
      </g>
     </g>
    </g>
    <g id="xtick_6">
     <g id="line2d_6">
      <g>
       <use style="stroke:#000000;stroke-width:0.8;" x="1004.954145" xlink:href="#m60824264b2" y="286.62"/>
      </g>
     </g>
     <g id="text_6">
      <!-- 1.0 -->
      <defs>
       <path d="M 12.40625 8.296875 
L 28.515625 8.296875 
L 28.515625 63.921875 
L 10.984375 60.40625 
L 10.984375 69.390625 
L 28.421875 72.90625 
L 38.28125 72.90625 
L 38.28125 8.296875 
L 54.390625 8.296875 
L 54.390625 0 
L 12.40625 0 
z
" id="DejaVuSans-31"/>
      </defs>
      <g transform="translate(997.002583 301.218437)scale(0.1 -0.1)">
       <use xlink:href="#DejaVuSans-31"/>
       <use x="63.623047" xlink:href="#DejaVuSans-2e"/>
       <use x="95.410156" xlink:href="#DejaVuSans-30"/>
      </g>
     </g>
    </g>
    <g id="text_7">
     <!-- Time in seconds -->
     <defs>
      <path d="M -0.296875 72.90625 
L 61.375 72.90625 
L 61.375 64.59375 
L 35.5 64.59375 
L 35.5 0 
L 25.59375 0 
L 25.59375 64.59375 
L -0.296875 64.59375 
z
" id="DejaVuSans-54"/>
      <path d="M 9.421875 54.6875 
L 18.40625 54.6875 
L 18.40625 0 
L 9.421875 0 
z
M 9.421875 75.984375 
L 18.40625 75.984375 
L 18.40625 64.59375 
L 9.421875 64.59375 
z
" id="DejaVuSans-69"/>
      <path d="M 52 44.1875 
Q 55.375 50.25 60.0625 53.125 
Q 64.75 56 71.09375 56 
Q 79.640625 56 84.28125 50.015625 
Q 88.921875 44.046875 88.921875 33.015625 
L 88.921875 0 
L 79.890625 0 
L 79.890625 32.71875 
Q 79.890625 40.578125 77.09375 44.375 
Q 74.3125 48.1875 68.609375 48.1875 
Q 61.625 48.1875 57.5625 43.546875 
Q 53.515625 38.921875 53.515625 30.90625 
L 53.515625 0 
L 44.484375 0 
L 44.484375 32.71875 
Q 44.484375 40.625 41.703125 44.40625 
Q 38.921875 48.1875 33.109375 48.1875 
Q 26.21875 48.1875 22.15625 43.53125 
Q 18.109375 38.875 18.109375 30.90625 
L 18.109375 0 
L 9.078125 0 
L 9.078125 54.6875 
L 18.109375 54.6875 
L 18.109375 46.1875 
Q 21.1875 51.21875 25.484375 53.609375 
Q 29.78125 56 35.6875 56 
Q 41.65625 56 45.828125 52.96875 
Q 50 49.953125 52 44.1875 
z
" id="DejaVuSans-6d"/>
      <path d="M 56.203125 29.59375 
L 56.203125 25.203125 
L 14.890625 25.203125 
Q 15.484375 15.921875 20.484375 11.0625 
Q 25.484375 6.203125 34.421875 6.203125 
Q 39.59375 6.203125 44.453125 7.46875 
Q 49.3125 8.734375 54.109375 11.28125 
L 54.109375 2.78125 
Q 49.265625 0.734375 44.1875 -0.34375 
Q 39.109375 -1.421875 33.890625 -1.421875 
Q 20.796875 -1.421875 13.15625 6.1875 
Q 5.515625 13.8125 5.515625 26.8125 
Q 5.515625 40.234375 12.765625 48.109375 
Q 20.015625 56 32.328125 56 
Q 43.359375 56 49.78125 48.890625 
Q 56.203125 41.796875 56.203125 29.59375 
z
M 47.21875 32.234375 
Q 47.125 39.59375 43.09375 43.984375 
Q 39.0625 48.390625 32.421875 48.390625 
Q 24.90625 48.390625 20.390625 44.140625 
Q 15.875 39.890625 15.1875 32.171875 
z
" id="DejaVuSans-65"/>
      <path id="DejaVuSans-20"/>
      <path d="M 54.890625 33.015625 
L 54.890625 0 
L 45.90625 0 
L 45.90625 32.71875 
Q 45.90625 40.484375 42.875 44.328125 
Q 39.84375 48.1875 33.796875 48.1875 
Q 26.515625 48.1875 22.3125 43.546875 
Q 18.109375 38.921875 18.109375 30.90625 
L 18.109375 0 
L 9.078125 0 
L 9.078125 54.6875 
L 18.109375 54.6875 
L 18.109375 46.1875 
Q 21.34375 51.125 25.703125 53.5625 
Q 30.078125 56 35.796875 56 
Q 45.21875 56 50.046875 50.171875 
Q 54.890625 44.34375 54.890625 33.015625 
z
" id="DejaVuSans-6e"/>
      <path d="M 44.28125 53.078125 
L 44.28125 44.578125 
Q 40.484375 46.53125 36.375 47.5 
Q 32.28125 48.484375 27.875 48.484375 
Q 21.1875 48.484375 17.84375 46.4375 
Q 14.5 44.390625 14.5 40.28125 
Q 14.5 37.15625 16.890625 35.375 
Q 19.28125 33.59375 26.515625 31.984375 
L 29.59375 31.296875 
Q 39.15625 29.25 43.1875 25.515625 
Q 47.21875 21.78125 47.21875 15.09375 
Q 47.21875 7.46875 41.1875 3.015625 
Q 35.15625 -1.421875 24.609375 -1.421875 
Q 20.21875 -1.421875 15.453125 -0.5625 
Q 10.6875 0.296875 5.421875 2 
L 5.421875 11.28125 
Q 10.40625 8.6875 15.234375 7.390625 
Q 20.0625 6.109375 24.8125 6.109375 
Q 31.15625 6.109375 34.5625 8.28125 
Q 37.984375 10.453125 37.984375 14.40625 
Q 37.984375 18.0625 35.515625 20.015625 
Q 33.0625 21.96875 24.703125 23.78125 
L 21.578125 24.515625 
Q 13.234375 26.265625 9.515625 29.90625 
Q 5.8125 33.546875 5.8125 39.890625 
Q 5.8125 47.609375 11.28125 51.796875 
Q 16.75 56 26.8125 56 
Q 31.78125 56 36.171875 55.265625 
Q 40.578125 54.546875 44.28125 53.078125 
z
" id="DejaVuSans-73"/>
      <path d="M 48.78125 52.59375 
L 48.78125 44.1875 
Q 44.96875 46.296875 41.140625 47.34375 
Q 37.3125 48.390625 33.40625 48.390625 
Q 24.65625 48.390625 19.8125 42.84375 
Q 14.984375 37.3125 14.984375 27.296875 
Q 14.984375 17.28125 19.8125 11.734375 
Q 24.65625 6.203125 33.40625 6.203125 
Q 37.3125 6.203125 41.140625 7.25 
Q 44.96875 8.296875 48.78125 10.40625 
L 48.78125 2.09375 
Q 45.015625 0.34375 40.984375 -0.53125 
Q 36.96875 -1.421875 32.421875 -1.421875 
Q 20.0625 -1.421875 12.78125 6.34375 
Q 5.515625 14.109375 5.515625 27.296875 
Q 5.515625 40.671875 12.859375 48.328125 
Q 20.21875 56 33.015625 56 
Q 37.15625 56 41.109375 55.140625 
Q 45.0625 54.296875 48.78125 52.59375 
z
" id="DejaVuSans-63"/>
      <path d="M 30.609375 48.390625 
Q 23.390625 48.390625 19.1875 42.75 
Q 14.984375 37.109375 14.984375 27.296875 
Q 14.984375 17.484375 19.15625 11.84375 
Q 23.34375 6.203125 30.609375 6.203125 
Q 37.796875 6.203125 41.984375 11.859375 
Q 46.1875 17.53125 46.1875 27.296875 
Q 46.1875 37.015625 41.984375 42.703125 
Q 37.796875 48.390625 30.609375 48.390625 
z
M 30.609375 56 
Q 42.328125 56 49.015625 48.375 
Q 55.71875 40.765625 55.71875 27.296875 
Q 55.71875 13.875 49.015625 6.21875 
Q 42.328125 -1.421875 30.609375 -1.421875 
Q 18.84375 -1.421875 12.171875 6.21875 
Q 5.515625 13.875 5.515625 27.296875 
Q 5.515625 40.765625 12.171875 48.375 
Q 18.84375 56 30.609375 56 
z
" id="DejaVuSans-6f"/>
      <path d="M 45.40625 46.390625 
L 45.40625 75.984375 
L 54.390625 75.984375 
L 54.390625 0 
L 45.40625 0 
L 45.40625 8.203125 
Q 42.578125 3.328125 38.25 0.953125 
Q 33.9375 -1.421875 27.875 -1.421875 
Q 17.96875 -1.421875 11.734375 6.484375 
Q 5.515625 14.40625 5.515625 27.296875 
Q 5.515625 40.1875 11.734375 48.09375 
Q 17.96875 56 27.875 56 
Q 33.9375 56 38.25 53.625 
Q 42.578125 51.265625 45.40625 46.390625 
z
M 14.796875 27.296875 
Q 14.796875 17.390625 18.875 11.75 
Q 22.953125 6.109375 30.078125 6.109375 
Q 37.203125 6.109375 41.296875 11.75 
Q 45.40625 17.390625 45.40625 27.296875 
Q 45.40625 37.203125 41.296875 42.84375 
Q 37.203125 48.484375 30.078125 48.484375 
Q 22.953125 48.484375 18.875 42.84375 
Q 14.796875 37.203125 14.796875 27.296875 
z
" id="DejaVuSans-64"/>
     </defs>
     <g transform="translate(572.97125 314.896562)scale(0.1 -0.1)">
      <use xlink:href="#DejaVuSans-54"/>
      <use x="61.037109" xlink:href="#DejaVuSans-69"/>
      <use x="88.820312" xlink:href="#DejaVuSans-6d"/>
      <use x="186.232422" xlink:href="#DejaVuSans-65"/>
      <use x="247.755859" xlink:href="#DejaVuSans-20"/>
      <use x="279.542969" xlink:href="#DejaVuSans-69"/>
      <use x="307.326172" xlink:href="#DejaVuSans-6e"/>
      <use x="370.705078" xlink:href="#DejaVuSans-20"/>
      <use x="402.492188" xlink:href="#DejaVuSans-73"/>
      <use x="454.591797" xlink:href="#DejaVuSans-65"/>
      <use x="516.115234" xlink:href="#DejaVuSans-63"/>
      <use x="571.095703" xlink:href="#DejaVuSans-6f"/>
      <use x="632.277344" xlink:href="#DejaVuSans-6e"/>
      <use x="695.65625" xlink:href="#DejaVuSans-64"/>
      <use x="759.132812" xlink:href="#DejaVuSans-73"/>
     </g>
    </g>
   </g>
   <g id="matplotlib.axis_2">
    <g id="ytick_1">
     <g id="line2d_7">
      <defs>
       <path d="M 0 0 
L -3.5 0 
" id="m9c742e11d1" style="stroke:#000000;stroke-width:0.8;"/>
      </defs>
      <g>
       <use style="stroke:#000000;stroke-width:0.8;" x="163.651562" xlink:href="#m9c742e11d1" y="84.050634"/>
      </g>
     </g>
     <g id="text_8">
      <!-- www.romwe.com (49.246 ms) -->
      <defs>
       <path d="M 4.203125 54.6875 
L 13.1875 54.6875 
L 24.421875 12.015625 
L 35.59375 54.6875 
L 46.1875 54.6875 
L 57.421875 12.015625 
L 68.609375 54.6875 
L 77.59375 54.6875 
L 63.28125 0 
L 52.6875 0 
L 40.921875 44.828125 
L 29.109375 0 
L 18.5 0 
z
" id="DejaVuSans-77"/>
       <path d="M 41.109375 46.296875 
Q 39.59375 47.171875 37.8125 47.578125 
Q 36.03125 48 33.890625 48 
Q 26.265625 48 22.1875 43.046875 
Q 18.109375 38.09375 18.109375 28.8125 
L 18.109375 0 
L 9.078125 0 
L 9.078125 54.6875 
L 18.109375 54.6875 
L 18.109375 46.1875 
Q 20.953125 51.171875 25.484375 53.578125 
Q 30.03125 56 36.53125 56 
Q 37.453125 56 38.578125 55.875 
Q 39.703125 55.765625 41.0625 55.515625 
z
" id="DejaVuSans-72"/>
       <path d="M 31 75.875 
Q 24.46875 64.65625 21.28125 53.65625 
Q 18.109375 42.671875 18.109375 31.390625 
Q 18.109375 20.125 21.3125 9.0625 
Q 24.515625 -2 31 -13.1875 
L 23.1875 -13.1875 
Q 15.875 -1.703125 12.234375 9.375 
Q 8.59375 20.453125 8.59375 31.390625 
Q 8.59375 42.28125 12.203125 53.3125 
Q 15.828125 64.359375 23.1875 75.875 
z
" id="DejaVuSans-28"/>
       <path d="M 10.984375 1.515625 
L 10.984375 10.5 
Q 14.703125 8.734375 18.5 7.8125 
Q 22.3125 6.890625 25.984375 6.890625 
Q 35.75 6.890625 40.890625 13.453125 
Q 46.046875 20.015625 46.78125 33.40625 
Q 43.953125 29.203125 39.59375 26.953125 
Q 35.25 24.703125 29.984375 24.703125 
Q 19.046875 24.703125 12.671875 31.3125 
Q 6.296875 37.9375 6.296875 49.421875 
Q 6.296875 60.640625 12.9375 67.421875 
Q 19.578125 74.21875 30.609375 74.21875 
Q 43.265625 74.21875 49.921875 64.515625 
Q 56.59375 54.828125 56.59375 36.375 
Q 56.59375 19.140625 48.40625 8.859375 
Q 40.234375 -1.421875 26.421875 -1.421875 
Q 22.703125 -1.421875 18.890625 -0.6875 
Q 15.09375 0.046875 10.984375 1.515625 
z
M 30.609375 32.421875 
Q 37.25 32.421875 41.125 36.953125 
Q 45.015625 41.5 45.015625 49.421875 
Q 45.015625 57.28125 41.125 61.84375 
Q 37.25 66.40625 30.609375 66.40625 
Q 23.96875 66.40625 20.09375 61.84375 
Q 16.21875 57.28125 16.21875 49.421875 
Q 16.21875 41.5 20.09375 36.953125 
Q 23.96875 32.421875 30.609375 32.421875 
z
" id="DejaVuSans-39"/>
       <path id="DejaVuSans-2009"/>
       <path d="M 8.015625 75.875 
L 15.828125 75.875 
Q 23.140625 64.359375 26.78125 53.3125 
Q 30.421875 42.28125 30.421875 31.390625 
Q 30.421875 20.453125 26.78125 9.375 
Q 23.140625 -1.703125 15.828125 -13.1875 
L 8.015625 -13.1875 
Q 14.5 -2 17.703125 9.0625 
Q 20.90625 20.125 20.90625 31.390625 
Q 20.90625 42.671875 17.703125 53.65625 
Q 14.5 64.65625 8.015625 75.875 
z
" id="DejaVuSans-29"/>
      </defs>
      <g transform="translate(7.2 87.849852)scale(0.1 -0.1)">
       <use xlink:href="#DejaVuSans-77"/>
       <use x="81.787109" xlink:href="#DejaVuSans-77"/>
       <use x="163.574219" xlink:href="#DejaVuSans-77"/>
       <use x="245.220703" xlink:href="#DejaVuSans-2e"/>
       <use x="277.007812" xlink:href="#DejaVuSans-72"/>
       <use x="318.089844" xlink:href="#DejaVuSans-6f"/>
       <use x="379.271484" xlink:href="#DejaVuSans-6d"/>
       <use x="476.683594" xlink:href="#DejaVuSans-77"/>
       <use x="558.470703" xlink:href="#DejaVuSans-65"/>
       <use x="619.994141" xlink:href="#DejaVuSans-2e"/>
       <use x="651.78125" xlink:href="#DejaVuSans-63"/>
       <use x="706.761719" xlink:href="#DejaVuSans-6f"/>
       <use x="767.943359" xlink:href="#DejaVuSans-6d"/>
       <use x="865.355469" xlink:href="#DejaVuSans-20"/>
       <use x="897.142578" xlink:href="#DejaVuSans-28"/>
       <use x="936.15625" xlink:href="#DejaVuSans-34"/>
       <use x="999.779297" xlink:href="#DejaVuSans-39"/>
       <use x="1063.402344" xlink:href="#DejaVuSans-2e"/>
       <use x="1095.189453" xlink:href="#DejaVuSans-32"/>
       <use x="1158.8125" xlink:href="#DejaVuSans-34"/>
       <use x="1222.435547" xlink:href="#DejaVuSans-36"/>
       <use x="1286.058594" xlink:href="#DejaVuSans-2009"/>
       <use x="1306.029297" xlink:href="#DejaVuSans-6d"/>
       <use x="1403.441406" xlink:href="#DejaVuSans-73"/>
       <use x="1455.541016" xlink:href="#DejaVuSans-29"/>
      </g>
     </g>
    </g>
    <g id="ytick_2">
     <g id="line2d_8">
      <g>
       <use style="stroke:#000000;stroke-width:0.8;" x="163.651562" xlink:href="#m9c742e11d1" y="58.713627"/>
      </g>
     </g>
     <g id="text_9">
      <!-- romwe.com (0.412 ms) -->
      <g transform="translate(41.260937 62.512846)scale(0.1 -0.1)">
       <use xlink:href="#DejaVuSans-72"/>
       <use x="41.082031" xlink:href="#DejaVuSans-6f"/>
       <use x="102.263672" xlink:href="#DejaVuSans-6d"/>
       <use x="199.675781" xlink:href="#DejaVuSans-77"/>
       <use x="281.462891" xlink:href="#DejaVuSans-65"/>
       <use x="342.986328" xlink:href="#DejaVuSans-2e"/>
       <use x="374.773438" xlink:href="#DejaVuSans-63"/>
       <use x="429.753906" xlink:href="#DejaVuSans-6f"/>
       <use x="490.935547" xlink:href="#DejaVuSans-6d"/>
       <use x="588.347656" xlink:href="#DejaVuSans-20"/>
       <use x="620.134766" xlink:href="#DejaVuSans-28"/>
       <use x="659.148438" xlink:href="#DejaVuSans-30"/>
       <use x="722.771484" xlink:href="#DejaVuSans-2e"/>
       <use x="754.558594" xlink:href="#DejaVuSans-34"/>
       <use x="818.181641" xlink:href="#DejaVuSans-31"/>
       <use x="881.804688" xlink:href="#DejaVuSans-32"/>
       <use x="945.427734" xlink:href="#DejaVuSans-2009"/>
       <use x="965.398438" xlink:href="#DejaVuSans-6d"/>
       <use x="1062.810547" xlink:href="#DejaVuSans-73"/>
       <use x="1114.910156" xlink:href="#DejaVuSans-29"/>
      </g>
     </g>
    </g>
    <g id="ytick_3">
     <g id="line2d_9">
      <g>
       <use style="stroke:#000000;stroke-width:0.8;" x="163.651562" xlink:href="#m9c742e11d1" y="33.376621"/>
      </g>
     </g>
     <g id="text_10">
      <!-- romwe.com (14.912 ms) -->
      <g transform="translate(34.898437 37.17584)scale(0.1 -0.1)">
       <use xlink:href="#DejaVuSans-72"/>
       <use x="41.082031" xlink:href="#DejaVuSans-6f"/>
       <use x="102.263672" xlink:href="#DejaVuSans-6d"/>
       <use x="199.675781" xlink:href="#DejaVuSans-77"/>
       <use x="281.462891" xlink:href="#DejaVuSans-65"/>
       <use x="342.986328" xlink:href="#DejaVuSans-2e"/>
       <use x="374.773438" xlink:href="#DejaVuSans-63"/>
       <use x="429.753906" xlink:href="#DejaVuSans-6f"/>
       <use x="490.935547" xlink:href="#DejaVuSans-6d"/>
       <use x="588.347656" xlink:href="#DejaVuSans-20"/>
       <use x="620.134766" xlink:href="#DejaVuSans-28"/>
       <use x="659.148438" xlink:href="#DejaVuSans-31"/>
       <use x="722.771484" xlink:href="#DejaVuSans-34"/>
       <use x="786.394531" xlink:href="#DejaVuSans-2e"/>
       <use x="818.181641" xlink:href="#DejaVuSans-39"/>
       <use x="881.804688" xlink:href="#DejaVuSans-31"/>
       <use x="945.427734" xlink:href="#DejaVuSans-32"/>
       <use x="1009.050781" xlink:href="#DejaVuSans-2009"/>
       <use x="1029.021484" xlink:href="#DejaVuSans-6d"/>
       <use x="1126.433594" xlink:href="#DejaVuSans-73"/>
       <use x="1178.533203" xlink:href="#DejaVuSans-29"/>
      </g>
     </g>
    </g>
    <g id="ytick_4">
     <g id="line2d_10">
      <g>
       <use style="stroke:#000000;stroke-width:0.8;" x="163.651562" xlink:href="#m9c742e11d1" y="109.38764"/>
      </g>
     </g>
     <g id="text_11">
      <!-- romwe.com. (A) -->
      <defs>
       <path d="M 34.1875 63.1875 
L 20.796875 26.90625 
L 47.609375 26.90625 
z
M 28.609375 72.90625 
L 39.796875 72.90625 
L 67.578125 0 
L 57.328125 0 
L 50.6875 18.703125 
L 17.828125 18.703125 
L 11.1875 0 
L 0.78125 0 
z
" id="DejaVuSans-41"/>
      </defs>
      <g transform="translate(76.817187 113.186859)scale(0.1 -0.1)">
       <use xlink:href="#DejaVuSans-72"/>
       <use x="41.082031" xlink:href="#DejaVuSans-6f"/>
       <use x="102.263672" xlink:href="#DejaVuSans-6d"/>
       <use x="199.675781" xlink:href="#DejaVuSans-77"/>
       <use x="281.462891" xlink:href="#DejaVuSans-65"/>
       <use x="342.986328" xlink:href="#DejaVuSans-2e"/>
       <use x="374.773438" xlink:href="#DejaVuSans-63"/>
       <use x="429.753906" xlink:href="#DejaVuSans-6f"/>
       <use x="490.935547" xlink:href="#DejaVuSans-6d"/>
       <use x="588.347656" xlink:href="#DejaVuSans-2e"/>
       <use x="620.134766" xlink:href="#DejaVuSans-20"/>
       <use x="651.921875" xlink:href="#DejaVuSans-28"/>
       <use x="690.935547" xlink:href="#DejaVuSans-41"/>
       <use x="759.34375" xlink:href="#DejaVuSans-29"/>
      </g>
     </g>
    </g>
    <g id="ytick_5">
     <g id="line2d_11">
      <g>
       <use style="stroke:#000000;stroke-width:0.8;" x="163.651562" xlink:href="#m9c742e11d1" y="134.724646"/>
      </g>
     </g>
     <g id="text_12">
      <!-- romwe.com. (DS) -->
      <defs>
       <path d="M 19.671875 64.796875 
L 19.671875 8.109375 
L 31.59375 8.109375 
Q 46.6875 8.109375 53.6875 14.9375 
Q 60.6875 21.78125 60.6875 36.53125 
Q 60.6875 51.171875 53.6875 57.984375 
Q 46.6875 64.796875 31.59375 64.796875 
z
M 9.8125 72.90625 
L 30.078125 72.90625 
Q 51.265625 72.90625 61.171875 64.09375 
Q 71.09375 55.28125 71.09375 36.53125 
Q 71.09375 17.671875 61.125 8.828125 
Q 51.171875 0 30.078125 0 
L 9.8125 0 
z
" id="DejaVuSans-44"/>
       <path d="M 53.515625 70.515625 
L 53.515625 60.890625 
Q 47.90625 63.578125 42.921875 64.890625 
Q 37.9375 66.21875 33.296875 66.21875 
Q 25.25 66.21875 20.875 63.09375 
Q 16.5 59.96875 16.5 54.203125 
Q 16.5 49.359375 19.40625 46.890625 
Q 22.3125 44.4375 30.421875 42.921875 
L 36.375 41.703125 
Q 47.40625 39.59375 52.65625 34.296875 
Q 57.90625 29 57.90625 20.125 
Q 57.90625 9.515625 50.796875 4.046875 
Q 43.703125 -1.421875 29.984375 -1.421875 
Q 24.8125 -1.421875 18.96875 -0.25 
Q 13.140625 0.921875 6.890625 3.21875 
L 6.890625 13.375 
Q 12.890625 10.015625 18.65625 8.296875 
Q 24.421875 6.59375 29.984375 6.59375 
Q 38.421875 6.59375 43.015625 9.90625 
Q 47.609375 13.234375 47.609375 19.390625 
Q 47.609375 24.75 44.3125 27.78125 
Q 41.015625 30.8125 33.5 32.328125 
L 27.484375 33.5 
Q 16.453125 35.6875 11.515625 40.375 
Q 6.59375 45.0625 6.59375 53.421875 
Q 6.59375 63.09375 13.40625 68.65625 
Q 20.21875 74.21875 32.171875 74.21875 
Q 37.3125 74.21875 42.625 73.28125 
Q 47.953125 72.359375 53.515625 70.515625 
z
" id="DejaVuSans-53"/>
      </defs>
      <g transform="translate(69.609375 138.523865)scale(0.1 -0.1)">
       <use xlink:href="#DejaVuSans-72"/>
       <use x="41.082031" xlink:href="#DejaVuSans-6f"/>
       <use x="102.263672" xlink:href="#DejaVuSans-6d"/>
       <use x="199.675781" xlink:href="#DejaVuSans-77"/>
       <use x="281.462891" xlink:href="#DejaVuSans-65"/>
       <use x="342.986328" xlink:href="#DejaVuSans-2e"/>
       <use x="374.773438" xlink:href="#DejaVuSans-63"/>
       <use x="429.753906" xlink:href="#DejaVuSans-6f"/>
       <use x="490.935547" xlink:href="#DejaVuSans-6d"/>
       <use x="588.347656" xlink:href="#DejaVuSans-2e"/>
       <use x="620.134766" xlink:href="#DejaVuSans-20"/>
       <use x="651.921875" xlink:href="#DejaVuSans-28"/>
       <use x="690.935547" xlink:href="#DejaVuSans-44"/>
       <use x="767.9375" xlink:href="#DejaVuSans-53"/>
       <use x="831.414062" xlink:href="#DejaVuSans-29"/>
      </g>
     </g>
    </g>
    <g id="ytick_6">
     <g id="line2d_12">
      <g>
       <use style="stroke:#000000;stroke-width:0.8;" x="163.651562" xlink:href="#m9c742e11d1" y="160.061653"/>
      </g>
     </g>
     <g id="text_13">
      <!-- www.romwe.com. (A) -->
      <g transform="translate(49.11875 163.860872)scale(0.1 -0.1)">
       <use xlink:href="#DejaVuSans-77"/>
       <use x="81.787109" xlink:href="#DejaVuSans-77"/>
       <use x="163.574219" xlink:href="#DejaVuSans-77"/>
       <use x="245.220703" xlink:href="#DejaVuSans-2e"/>
       <use x="277.007812" xlink:href="#DejaVuSans-72"/>
       <use x="318.089844" xlink:href="#DejaVuSans-6f"/>
       <use x="379.271484" xlink:href="#DejaVuSans-6d"/>
       <use x="476.683594" xlink:href="#DejaVuSans-77"/>
       <use x="558.470703" xlink:href="#DejaVuSans-65"/>
       <use x="619.994141" xlink:href="#DejaVuSans-2e"/>
       <use x="651.78125" xlink:href="#DejaVuSans-63"/>
       <use x="706.761719" xlink:href="#DejaVuSans-6f"/>
       <use x="767.943359" xlink:href="#DejaVuSans-6d"/>
       <use x="865.355469" xlink:href="#DejaVuSans-2e"/>
       <use x="897.142578" xlink:href="#DejaVuSans-20"/>
       <use x="928.929688" xlink:href="#DejaVuSans-28"/>
       <use x="967.943359" xlink:href="#DejaVuSans-41"/>
       <use x="1036.351562" xlink:href="#DejaVuSans-29"/>
      </g>
     </g>
    </g>
    <g id="ytick_7">
     <g id="line2d_13">
      <g>
       <use style="stroke:#000000;stroke-width:0.8;" x="163.651562" xlink:href="#m9c742e11d1" y="185.398659"/>
      </g>
     </g>
     <g id="text_14">
      <!-- romwe.com.edgekey.net. (A) -->
      <defs>
       <path d="M 45.40625 27.984375 
Q 45.40625 37.75 41.375 43.109375 
Q 37.359375 48.484375 30.078125 48.484375 
Q 22.859375 48.484375 18.828125 43.109375 
Q 14.796875 37.75 14.796875 27.984375 
Q 14.796875 18.265625 18.828125 12.890625 
Q 22.859375 7.515625 30.078125 7.515625 
Q 37.359375 7.515625 41.375 12.890625 
Q 45.40625 18.265625 45.40625 27.984375 
z
M 54.390625 6.78125 
Q 54.390625 -7.171875 48.1875 -13.984375 
Q 42 -20.796875 29.203125 -20.796875 
Q 24.46875 -20.796875 20.265625 -20.09375 
Q 16.0625 -19.390625 12.109375 -17.921875 
L 12.109375 -9.1875 
Q 16.0625 -11.328125 19.921875 -12.34375 
Q 23.78125 -13.375 27.78125 -13.375 
Q 36.625 -13.375 41.015625 -8.765625 
Q 45.40625 -4.15625 45.40625 5.171875 
L 45.40625 9.625 
Q 42.625 4.78125 38.28125 2.390625 
Q 33.9375 0 27.875 0 
Q 17.828125 0 11.671875 7.65625 
Q 5.515625 15.328125 5.515625 27.984375 
Q 5.515625 40.671875 11.671875 48.328125 
Q 17.828125 56 27.875 56 
Q 33.9375 56 38.28125 53.609375 
Q 42.625 51.21875 45.40625 46.390625 
L 45.40625 54.6875 
L 54.390625 54.6875 
z
" id="DejaVuSans-67"/>
       <path d="M 9.078125 75.984375 
L 18.109375 75.984375 
L 18.109375 31.109375 
L 44.921875 54.6875 
L 56.390625 54.6875 
L 27.390625 29.109375 
L 57.625 0 
L 45.90625 0 
L 18.109375 26.703125 
L 18.109375 0 
L 9.078125 0 
z
" id="DejaVuSans-6b"/>
       <path d="M 32.171875 -5.078125 
Q 28.375 -14.84375 24.75 -17.8125 
Q 21.140625 -20.796875 15.09375 -20.796875 
L 7.90625 -20.796875 
L 7.90625 -13.28125 
L 13.1875 -13.28125 
Q 16.890625 -13.28125 18.9375 -11.515625 
Q 21 -9.765625 23.484375 -3.21875 
L 25.09375 0.875 
L 2.984375 54.6875 
L 12.5 54.6875 
L 29.59375 11.921875 
L 46.6875 54.6875 
L 56.203125 54.6875 
z
" id="DejaVuSans-79"/>
       <path d="M 18.3125 70.21875 
L 18.3125 54.6875 
L 36.8125 54.6875 
L 36.8125 47.703125 
L 18.3125 47.703125 
L 18.3125 18.015625 
Q 18.3125 11.328125 20.140625 9.421875 
Q 21.96875 7.515625 27.59375 7.515625 
L 36.8125 7.515625 
L 36.8125 0 
L 27.59375 0 
Q 17.1875 0 13.234375 3.875 
Q 9.28125 7.765625 9.28125 18.015625 
L 9.28125 47.703125 
L 2.6875 47.703125 
L 2.6875 54.6875 
L 9.28125 54.6875 
L 9.28125 70.21875 
z
" id="DejaVuSans-74"/>
      </defs>
      <g transform="translate(11.210937 189.197878)scale(0.1 -0.1)">
       <use xlink:href="#DejaVuSans-72"/>
       <use x="41.082031" xlink:href="#DejaVuSans-6f"/>
       <use x="102.263672" xlink:href="#DejaVuSans-6d"/>
       <use x="199.675781" xlink:href="#DejaVuSans-77"/>
       <use x="281.462891" xlink:href="#DejaVuSans-65"/>
       <use x="342.986328" xlink:href="#DejaVuSans-2e"/>
       <use x="374.773438" xlink:href="#DejaVuSans-63"/>
       <use x="429.753906" xlink:href="#DejaVuSans-6f"/>
       <use x="490.935547" xlink:href="#DejaVuSans-6d"/>
       <use x="588.347656" xlink:href="#DejaVuSans-2e"/>
       <use x="620.134766" xlink:href="#DejaVuSans-65"/>
       <use x="681.658203" xlink:href="#DejaVuSans-64"/>
       <use x="745.134766" xlink:href="#DejaVuSans-67"/>
       <use x="808.611328" xlink:href="#DejaVuSans-65"/>
       <use x="870.134766" xlink:href="#DejaVuSans-6b"/>
       <use x="927.998047" xlink:href="#DejaVuSans-65"/>
       <use x="989.521484" xlink:href="#DejaVuSans-79"/>
       <use x="1048.482422" xlink:href="#DejaVuSans-2e"/>
       <use x="1080.269531" xlink:href="#DejaVuSans-6e"/>
       <use x="1143.648438" xlink:href="#DejaVuSans-65"/>
       <use x="1205.171875" xlink:href="#DejaVuSans-74"/>
       <use x="1244.380859" xlink:href="#DejaVuSans-2e"/>
       <use x="1276.167969" xlink:href="#DejaVuSans-20"/>
       <use x="1307.955078" xlink:href="#DejaVuSans-28"/>
       <use x="1346.96875" xlink:href="#DejaVuSans-41"/>
       <use x="1415.376953" xlink:href="#DejaVuSans-29"/>
      </g>
     </g>
    </g>
    <g id="ytick_8">
     <g id="line2d_14">
      <g>
       <use style="stroke:#000000;stroke-width:0.8;" x="163.651562" xlink:href="#m9c742e11d1" y="210.735666"/>
      </g>
     </g>
     <g id="text_15">
      <!-- e5160.b.akamaiedge.net. (A) -->
      <defs>
       <path d="M 10.796875 72.90625 
L 49.515625 72.90625 
L 49.515625 64.59375 
L 19.828125 64.59375 
L 19.828125 46.734375 
Q 21.96875 47.46875 24.109375 47.828125 
Q 26.265625 48.1875 28.421875 48.1875 
Q 40.625 48.1875 47.75 41.5 
Q 54.890625 34.8125 54.890625 23.390625 
Q 54.890625 11.625 47.5625 5.09375 
Q 40.234375 -1.421875 26.90625 -1.421875 
Q 22.3125 -1.421875 17.546875 -0.640625 
Q 12.796875 0.140625 7.71875 1.703125 
L 7.71875 11.625 
Q 12.109375 9.234375 16.796875 8.0625 
Q 21.484375 6.890625 26.703125 6.890625 
Q 35.15625 6.890625 40.078125 11.328125 
Q 45.015625 15.765625 45.015625 23.390625 
Q 45.015625 31 40.078125 35.4375 
Q 35.15625 39.890625 26.703125 39.890625 
Q 22.75 39.890625 18.8125 39.015625 
Q 14.890625 38.140625 10.796875 36.28125 
z
" id="DejaVuSans-35"/>
       <path d="M 48.6875 27.296875 
Q 48.6875 37.203125 44.609375 42.84375 
Q 40.53125 48.484375 33.40625 48.484375 
Q 26.265625 48.484375 22.1875 42.84375 
Q 18.109375 37.203125 18.109375 27.296875 
Q 18.109375 17.390625 22.1875 11.75 
Q 26.265625 6.109375 33.40625 6.109375 
Q 40.53125 6.109375 44.609375 11.75 
Q 48.6875 17.390625 48.6875 27.296875 
z
M 18.109375 46.390625 
Q 20.953125 51.265625 25.265625 53.625 
Q 29.59375 56 35.59375 56 
Q 45.5625 56 51.78125 48.09375 
Q 58.015625 40.1875 58.015625 27.296875 
Q 58.015625 14.40625 51.78125 6.484375 
Q 45.5625 -1.421875 35.59375 -1.421875 
Q 29.59375 -1.421875 25.265625 0.953125 
Q 20.953125 3.328125 18.109375 8.203125 
L 18.109375 0 
L 9.078125 0 
L 9.078125 75.984375 
L 18.109375 75.984375 
z
" id="DejaVuSans-62"/>
       <path d="M 34.28125 27.484375 
Q 23.390625 27.484375 19.1875 25 
Q 14.984375 22.515625 14.984375 16.5 
Q 14.984375 11.71875 18.140625 8.90625 
Q 21.296875 6.109375 26.703125 6.109375 
Q 34.1875 6.109375 38.703125 11.40625 
Q 43.21875 16.703125 43.21875 25.484375 
L 43.21875 27.484375 
z
M 52.203125 31.203125 
L 52.203125 0 
L 43.21875 0 
L 43.21875 8.296875 
Q 40.140625 3.328125 35.546875 0.953125 
Q 30.953125 -1.421875 24.3125 -1.421875 
Q 15.921875 -1.421875 10.953125 3.296875 
Q 6 8.015625 6 15.921875 
Q 6 25.140625 12.171875 29.828125 
Q 18.359375 34.515625 30.609375 34.515625 
L 43.21875 34.515625 
L 43.21875 35.40625 
Q 43.21875 41.609375 39.140625 45 
Q 35.0625 48.390625 27.6875 48.390625 
Q 23 48.390625 18.546875 47.265625 
Q 14.109375 46.140625 10.015625 43.890625 
L 10.015625 52.203125 
Q 14.9375 54.109375 19.578125 55.046875 
Q 24.21875 56 28.609375 56 
Q 40.484375 56 46.34375 49.84375 
Q 52.203125 43.703125 52.203125 31.203125 
z
" id="DejaVuSans-61"/>
      </defs>
      <g transform="translate(10.059375 214.534884)scale(0.1 -0.1)">
       <use xlink:href="#DejaVuSans-65"/>
       <use x="61.523438" xlink:href="#DejaVuSans-35"/>
       <use x="125.146484" xlink:href="#DejaVuSans-31"/>
       <use x="188.769531" xlink:href="#DejaVuSans-36"/>
       <use x="252.392578" xlink:href="#DejaVuSans-30"/>
       <use x="316.015625" xlink:href="#DejaVuSans-2e"/>
       <use x="347.802734" xlink:href="#DejaVuSans-62"/>
       <use x="411.279297" xlink:href="#DejaVuSans-2e"/>
       <use x="443.066406" xlink:href="#DejaVuSans-61"/>
       <use x="504.345703" xlink:href="#DejaVuSans-6b"/>
       <use x="562.240234" xlink:href="#DejaVuSans-61"/>
       <use x="623.519531" xlink:href="#DejaVuSans-6d"/>
       <use x="720.931641" xlink:href="#DejaVuSans-61"/>
       <use x="782.210938" xlink:href="#DejaVuSans-69"/>
       <use x="809.994141" xlink:href="#DejaVuSans-65"/>
       <use x="871.517578" xlink:href="#DejaVuSans-64"/>
       <use x="934.994141" xlink:href="#DejaVuSans-67"/>
       <use x="998.470703" xlink:href="#DejaVuSans-65"/>
       <use x="1059.994141" xlink:href="#DejaVuSans-2e"/>
       <use x="1091.78125" xlink:href="#DejaVuSans-6e"/>
       <use x="1155.160156" xlink:href="#DejaVuSans-65"/>
       <use x="1216.683594" xlink:href="#DejaVuSans-74"/>
       <use x="1255.892578" xlink:href="#DejaVuSans-2e"/>
       <use x="1287.679688" xlink:href="#DejaVuSans-20"/>
       <use x="1319.466797" xlink:href="#DejaVuSans-28"/>
       <use x="1358.480469" xlink:href="#DejaVuSans-41"/>
       <use x="1426.888672" xlink:href="#DejaVuSans-29"/>
      </g>
     </g>
    </g>
    <g id="ytick_9">
     <g id="line2d_15">
      <g>
       <use style="stroke:#000000;stroke-width:0.8;" x="163.651562" xlink:href="#m9c742e11d1" y="236.072672"/>
      </g>
     </g>
     <g id="text_16">
      <!-- edgekey.net. (DS) -->
      <g transform="translate(66.015625 239.871891)scale(0.1 -0.1)">
       <use xlink:href="#DejaVuSans-65"/>
       <use x="61.523438" xlink:href="#DejaVuSans-64"/>
       <use x="125" xlink:href="#DejaVuSans-67"/>
       <use x="188.476562" xlink:href="#DejaVuSans-65"/>
       <use x="250" xlink:href="#DejaVuSans-6b"/>
       <use x="307.863281" xlink:href="#DejaVuSans-65"/>
       <use x="369.386719" xlink:href="#DejaVuSans-79"/>
       <use x="428.347656" xlink:href="#DejaVuSans-2e"/>
       <use x="460.134766" xlink:href="#DejaVuSans-6e"/>
       <use x="523.513672" xlink:href="#DejaVuSans-65"/>
       <use x="585.037109" xlink:href="#DejaVuSans-74"/>
       <use x="624.246094" xlink:href="#DejaVuSans-2e"/>
       <use x="656.033203" xlink:href="#DejaVuSans-20"/>
       <use x="687.820312" xlink:href="#DejaVuSans-28"/>
       <use x="726.833984" xlink:href="#DejaVuSans-44"/>
       <use x="803.835938" xlink:href="#DejaVuSans-53"/>
       <use x="867.3125" xlink:href="#DejaVuSans-29"/>
      </g>
     </g>
    </g>
    <g id="ytick_10">
     <g id="line2d_16">
      <g>
       <use style="stroke:#000000;stroke-width:0.8;" x="163.651562" xlink:href="#m9c742e11d1" y="261.409679"/>
      </g>
     </g>
     <g id="text_17">
      <!-- akamaiedge.net. (DS) -->
      <g transform="translate(47.159375 265.208897)scale(0.1 -0.1)">
       <use xlink:href="#DejaVuSans-61"/>
       <use x="61.279297" xlink:href="#DejaVuSans-6b"/>
       <use x="119.173828" xlink:href="#DejaVuSans-61"/>
       <use x="180.453125" xlink:href="#DejaVuSans-6d"/>
       <use x="277.865234" xlink:href="#DejaVuSans-61"/>
       <use x="339.144531" xlink:href="#DejaVuSans-69"/>
       <use x="366.927734" xlink:href="#DejaVuSans-65"/>
       <use x="428.451172" xlink:href="#DejaVuSans-64"/>
       <use x="491.927734" xlink:href="#DejaVuSans-67"/>
       <use x="555.404297" xlink:href="#DejaVuSans-65"/>
       <use x="616.927734" xlink:href="#DejaVuSans-2e"/>
       <use x="648.714844" xlink:href="#DejaVuSans-6e"/>
       <use x="712.09375" xlink:href="#DejaVuSans-65"/>
       <use x="773.617188" xlink:href="#DejaVuSans-74"/>
       <use x="812.826172" xlink:href="#DejaVuSans-2e"/>
       <use x="844.613281" xlink:href="#DejaVuSans-20"/>
       <use x="876.400391" xlink:href="#DejaVuSans-28"/>
       <use x="915.414062" xlink:href="#DejaVuSans-44"/>
       <use x="992.416016" xlink:href="#DejaVuSans-53"/>
       <use x="1055.892578" xlink:href="#DejaVuSans-29"/>
      </g>
     </g>
    </g>
   </g>
   <g id="line2d_17">
    <path clip-path="url(#p202295bb58)" d="M 163.738214 122.056143 
L 163.738214 96.719137 
" style="fill:none;stroke:#000000;stroke-linecap:square;stroke-width:0.5;"/>
   </g>
   <g id="line2d_18">
    <path clip-path="url(#p202295bb58)" d="M 169.192444 147.39315 
L 169.192444 122.056143 
" style="fill:none;stroke:#000000;stroke-linecap:square;stroke-width:0.5;"/>
   </g>
   <g id="line2d_19">
    <path clip-path="url(#p202295bb58)" d="M 979.052168 172.730156 
L 979.052168 147.39315 
" style="fill:none;stroke:#000000;stroke-linecap:square;stroke-width:0.5;"/>
   </g>
   <g id="line2d_20">
    <path clip-path="url(#p202295bb58)" d="M 992.288384 198.067163 
L 992.288384 172.730156 
" style="fill:none;stroke:#000000;stroke-linecap:square;stroke-width:0.5;"/>
   </g>
   <g id="line2d_21">
    <path clip-path="url(#p202295bb58)" d="M 997.664989 223.404169 
L 997.664989 198.067163 
" style="fill:none;stroke:#000000;stroke-linecap:square;stroke-width:0.5;"/>
   </g>
   <g id="line2d_22">
    <path clip-path="url(#p202295bb58)" d="M 1002.877719 248.741175 
L 1002.877719 223.404169 
" style="fill:none;stroke:#000000;stroke-linecap:square;stroke-width:0.5;"/>
   </g>
   <g id="line2d_23">
    <path clip-path="url(#p202295bb58)" d="M 1008.405964 274.078182 
L 1008.405964 248.741175 
" style="fill:none;stroke:#000000;stroke-linecap:square;stroke-width:0.5;"/>
   </g>
   <g id="patch_25">
    <path d="M 163.651562 286.62 
L 163.651562 10.7 
" style="fill:none;stroke:#000000;stroke-linecap:square;stroke-linejoin:miter;stroke-width:0.8;"/>
   </g>
   <g id="patch_26">
    <path d="M 1063.412812 286.62 
L 1063.412812 10.7 
" style="fill:none;stroke:#000000;stroke-linecap:square;stroke-linejoin:miter;stroke-width:0.8;"/>
   </g>
   <g id="patch_27">
    <path d="M 163.651562 286.62 
L 1063.412812 286.62 
" style="fill:none;stroke:#000000;stroke-linecap:square;stroke-linejoin:miter;stroke-width:0.8;"/>
   </g>
   <g id="patch_28">
    <path d="M 163.651562 10.7 
L 1063.412812 10.7 
" style="fill:none;stroke:#000000;stroke-linecap:square;stroke-linejoin:miter;stroke-width:0.8;"/>
   </g>
   <g id="text_18">
    <!--  -->
    <g transform="translate(169.07711 106.640609)scale(0.1 -0.1)"/>
    <!-- ⏱ 6.449 ms -->
    <defs>
     <path d="M 88.875 60.890625 
L 83.015625 55.078125 
Q 80.171875 58.59375 76.65625 61.421875 
L 82.46875 67.28125 
Q 85.9375 64.359375 88.875 60.890625 
z
M 57.328125 68.796875 
Q 53.8125 69.4375 50 69.4375 
Q 46.1875 69.4375 42.671875 68.796875 
L 42.671875 76.703125 
Q 46.234375 77.25 50 77.25 
Q 53.765625 77.25 57.328125 76.703125 
z
M 89.0625 28.421875 
Q 89.0625 12.3125 77.578125 0.828125 
Q 66.109375 -10.640625 50 -10.640625 
Q 33.890625 -10.640625 22.40625 0.828125 
Q 10.9375 12.3125 10.9375 28.421875 
Q 10.9375 44.53125 22.40625 56 
Q 33.890625 67.484375 50 67.484375 
Q 66.109375 67.484375 77.578125 56 
Q 89.0625 44.53125 89.0625 28.421875 
z
M 83.59375 28.421875 
Q 83.59375 42.28125 73.734375 52.140625 
Q 63.875 62.015625 50 62.015625 
Q 36.140625 62.015625 26.265625 52.140625 
Q 16.40625 42.28125 16.40625 28.421875 
Q 16.40625 14.546875 26.265625 4.6875 
Q 36.140625 -5.171875 50 -5.171875 
Q 63.875 -5.171875 73.734375 4.6875 
Q 83.59375 14.546875 83.59375 28.421875 
z
M 67 54.109375 
L 65.09375 51.21875 
Q 63.484375 52.296875 62.203125 52.9375 
L 63.71875 55.953125 
Q 65.671875 54.984375 67 54.109375 
z
M 77.546875 42.140625 
L 74.515625 40.625 
Q 73.875 41.9375 72.796875 43.5 
L 75.6875 45.40625 
Q 76.5625 44.09375 77.546875 42.140625 
z
M 80.8125 27.4375 
Q 80.8125 27.640625 80.765625 26.515625 
L 77.34375 26.765625 
Q 77.4375 28.421875 77.34375 30.078125 
L 80.765625 30.328125 
Q 80.8125 29.203125 80.8125 29.390625 
z
M 54.15625 51.171875 
L 51.90625 51.171875 
L 51.90625 23 
L 48.09375 23 
L 48.09375 51.171875 
L 45.84375 51.171875 
L 50 59.46875 
z
M 37.796875 52.9375 
Q 36.46875 52.296875 34.90625 51.21875 
L 33.015625 54.109375 
Q 34.328125 54.984375 36.28125 55.953125 
z
M 77.546875 14.703125 
Q 76.5625 12.75 75.6875 11.421875 
L 72.796875 13.328125 
Q 73.875 14.890625 74.515625 16.21875 
z
M 27.203125 43.5 
Q 26.125 41.9375 25.484375 40.625 
L 22.46875 42.140625 
Q 23.4375 44.09375 24.3125 45.40625 
z
M 67 2.734375 
Q 65.671875 1.859375 63.71875 0.875 
L 62.203125 3.90625 
Q 63.53125 4.546875 65.09375 5.609375 
z
M 22.65625 26.765625 
L 19.234375 26.515625 
Q 19.1875 27.546875 19.1875 27.390625 
L 19.1875 29.390625 
Q 19.1875 29.203125 19.234375 30.328125 
L 22.65625 30.078125 
Q 22.5625 28.421875 22.65625 26.765625 
z
M 51.90625 -2.34375 
Q 50.78125 -2.390625 50.984375 -2.390625 
L 49.03125 -2.390625 
Q 49.21875 -2.390625 48.09375 -2.34375 
L 48.34375 1.078125 
Q 50 0.984375 51.65625 1.078125 
z
M 27.203125 13.328125 
L 24.3125 11.421875 
Q 23.4375 12.75 22.46875 14.703125 
L 25.484375 16.21875 
Q 26.125 14.890625 27.203125 13.328125 
z
M 37.796875 3.90625 
L 36.28125 0.875 
Q 34.328125 1.859375 33.015625 2.734375 
L 34.90625 5.609375 
Q 36.46875 4.546875 37.796875 3.90625 
z
" id="Symbola-23f1"/>
     <path id="Symbola-202f"/>
     <path d="M 46.140625 20.75 
Q 46.140625 11.46875 40.375 4.78125 
Q 34.328125 -2.203125 25.203125 -2.203125 
Q 13.375 -2.203125 7.953125 9.859375 
Q 3.90625 18.796875 3.90625 32.234375 
Q 3.90625 42.234375 7.5625 50.53125 
Q 11.71875 59.859375 19.53125 64.546875 
Q 24.953125 67.78125 30.71875 67.78125 
Q 36.1875 67.78125 39.703125 65.140625 
Q 43.65625 62.15625 43.65625 56.890625 
Q 43.65625 54.734375 42.359375 53.3125 
Q 41.0625 51.90625 38.96875 51.90625 
Q 36.96875 51.90625 35.625 53.265625 
Q 34.28125 54.640625 34.28125 56.640625 
Q 34.28125 61.421875 39.84375 61.1875 
Q 37.0625 65.328125 30.90625 65.328125 
Q 26.953125 65.328125 23.34375 63.03125 
Q 13.09375 56.546875 13.09375 33.40625 
Q 17.1875 43.453125 25.78125 43.453125 
Q 34.71875 43.453125 40.578125 36.46875 
Q 46.140625 29.890625 46.140625 20.75 
z
M 37.015625 18.109375 
L 37.015625 23.1875 
Q 37.015625 31 35.15625 34.8125 
Q 32.078125 41.109375 25.734375 41.109375 
Q 19.390625 41.109375 16.015625 34.90625 
Q 13.234375 29.890625 13.234375 23 
Q 13.234375 12.9375 15.09375 8.25 
Q 16.359375 4.984375 19 2.875 
Q 21.875 0.59375 25.203125 0.59375 
Q 32.03125 0.59375 35.25 7.234375 
Q 37.015625 10.84375 37.015625 18.109375 
z
" id="Symbola-36"/>
     <path d="M 17.828125 5.328125 
Q 17.828125 3.125 16.265625 1.5625 
Q 14.703125 0 12.5 0 
Q 10.296875 0 8.734375 1.5625 
Q 7.171875 3.125 7.171875 5.328125 
Q 7.171875 7.46875 8.734375 9.03125 
Q 10.296875 10.59375 12.5 10.59375 
Q 14.703125 10.59375 16.265625 9.03125 
Q 17.828125 7.46875 17.828125 5.328125 
z
" id="Symbola-2e"/>
     <path d="M 47.515625 16.84375 
L 37.359375 16.84375 
L 37.359375 7.28125 
Q 37.359375 5.8125 37.796875 4.9375 
Q 38.71875 3.078125 47.265625 3.125 
L 47.265625 0 
Q 43.21875 0.296875 40.328125 0.296875 
L 26.421875 0.296875 
Q 23.6875 0.296875 19.625 0 
L 19.625 3.125 
Q 21.921875 3.078125 22.75 3.078125 
Q 28.125 3.078125 29.109375 4.9375 
Q 29.546875 5.765625 29.546875 7.28125 
L 29.546875 16.84375 
L 2.4375 16.84375 
L 2.4375 19.96875 
L 33.6875 67.71875 
Q 34.46875 68.953125 35.75 68.953125 
Q 36.96875 68.953125 37.25 68.109375 
Q 37.359375 67.828125 37.359375 66.265625 
L 37.359375 19.96875 
L 47.515625 19.96875 
z
M 30.125 19.96875 
L 30.125 57.90625 
L 5.28125 19.96875 
z
" id="Symbola-34"/>
     <path d="M 46.09375 33.546875 
Q 46.09375 25.046875 43.890625 18.265625 
Q 41.15625 9.8125 35.359375 4.203125 
Q 28.765625 -2.203125 20.5625 -2.203125 
Q 14.703125 -2.203125 10.890625 0.296875 
Q 6.390625 3.171875 6.390625 8.734375 
Q 6.390625 13.625 11.03125 13.625 
Q 13.03125 13.625 14.390625 12.28125 
Q 15.765625 10.9375 15.765625 8.9375 
Q 15.765625 6.78125 14.171875 5.40625 
Q 12.59375 4.046875 10.453125 4.296875 
Q 13.578125 0.59375 20.453125 0.59375 
Q 24.21875 0.59375 27.6875 2.875 
Q 33.546875 6.734375 35.640625 16.265625 
Q 36.96875 22.125 36.96875 32.375 
Q 32.953125 22.171875 24.21875 22.171875 
Q 15.28125 22.171875 9.421875 29.15625 
Q 3.859375 35.796875 3.859375 44.875 
Q 3.859375 54.734375 10.359375 61.421875 
Q 16.5 67.78125 25.34375 67.78125 
Q 30.328125 67.78125 34.46875 65.1875 
Q 46.09375 57.953125 46.09375 33.546875 
z
M 36.765625 42.875 
Q 36.765625 52.734375 35.109375 57.171875 
Q 32.078125 65.328125 25.34375 65.328125 
Q 18.609375 65.328125 15.140625 58.890625 
Q 13.03125 54.984375 13.03125 46.828125 
L 13.03125 42.625 
Q 13.03125 34.765625 14.84375 31 
Q 17.96875 24.5625 24.359375 24.5625 
Q 30.71875 24.5625 34.078125 30.859375 
Q 36.765625 35.890625 36.765625 42.875 
z
" id="Symbola-39"/>
     <path d="M 84.125 0 
Q 74.46875 0.296875 72.515625 0.296875 
Q 70.5625 0.296875 60.59375 0 
L 60.59375 3.21875 
Q 61.859375 3.171875 62.703125 3.171875 
Q 66.15625 3.171875 67.1875 3.8125 
Q 68.75 4.734375 68.75 7.90625 
L 68.75 32.28125 
Q 68.75 43.890625 61.078125 43.890625 
Q 54.734375 43.890625 50.6875 38.578125 
Q 46.96875 33.6875 46.96875 27.15625 
L 46.96875 7.5625 
Q 46.96875 5.671875 47.5625 4.640625 
Q 48.578125 2.9375 55.125 3.21875 
L 55.125 0 
Q 45.453125 0.296875 43.3125 0.296875 
Q 41.609375 0.296875 31.59375 0 
L 31.59375 3.21875 
Q 32.859375 3.171875 33.6875 3.171875 
Q 37.15625 3.171875 38.1875 3.8125 
Q 39.75 4.734375 39.75 7.90625 
L 39.75 32.28125 
Q 39.75 43.890625 32.03125 43.890625 
Q 25.6875 43.890625 21.625 38.578125 
Q 17.921875 33.6875 17.921875 27.15625 
L 17.921875 7.765625 
Q 17.921875 5.46875 18.453125 4.640625 
Q 19.53125 2.875 25.984375 3.21875 
L 25.984375 0 
Q 16.3125 0.296875 14.3125 0.296875 
Q 12.59375 0.296875 2.59375 0 
L 2.59375 3.21875 
Q 3.859375 3.171875 4.6875 3.171875 
Q 8.109375 3.171875 9.1875 3.8125 
Q 10.6875 4.734375 10.6875 7.90625 
L 10.6875 35.9375 
Q 10.6875 40.1875 8.546875 41.265625 
Q 7.328125 41.84375 2.59375 41.75 
L 2.59375 45.0625 
L 17.28125 46.1875 
L 17.28125 35.203125 
Q 22.21875 46.1875 32.71875 46.1875 
Q 44.96875 46.1875 46.578125 35.9375 
Q 48.6875 40.578125 52.765625 43.375 
Q 56.84375 46.1875 61.8125 46.1875 
Q 69.53125 46.1875 72.953125 42.046875 
Q 76.03125 38.28125 76.03125 30.375 
Q 76.03125 29.6875 76.03125 28.328125 
Q 75.984375 27 75.984375 26.3125 
L 75.984375 6.34375 
Q 75.984375 2.78125 84.125 3.21875 
z
" id="Symbola-6d"/>
     <path d="M 36.71875 13.375 
Q 36.71875 6.25 31.734375 2.34375 
Q 27.25 -1.171875 19.921875 -1.171875 
Q 13.09375 -1.171875 8.34375 3.375 
Q 4.59375 -1.171875 3.65625 -1.171875 
Q 2.59375 -1.171875 2.59375 0.4375 
L 2.59375 16.15625 
Q 2.59375 17.71875 3.90625 17.71875 
Q 4.9375 17.71875 5.375 16.015625 
Q 7.171875 8.890625 9.859375 5.5625 
Q 13.421875 1.171875 19.921875 1.171875 
Q 24.953125 1.171875 28.078125 3.375 
Q 31.6875 5.90625 31.6875 10.6875 
Q 31.6875 17.875 20.796875 20.21875 
Q 14.546875 21.578125 13.578125 21.828125 
Q 9.578125 23.046875 7.03125 25.09375 
Q 2.59375 28.765625 2.59375 34.03125 
Q 2.59375 40.578125 7.859375 44 
Q 12.359375 46.875 19.234375 46.875 
Q 25 46.875 29.046875 43.890625 
Q 31.984375 46.875 32.953125 46.875 
Q 34.125 46.875 34.125 45.265625 
L 34.125 32.859375 
Q 34.125 31.15625 32.71875 31.15625 
Q 31.59375 31.15625 31.203125 33.25 
Q 31.0625 34.71875 30.90625 36.1875 
Q 30.125 40.4375 26.8125 42.71875 
Q 23.734375 44.875 19.234375 44.875 
Q 14.65625 44.875 11.53125 43.21875 
Q 7.5625 41.109375 7.5625 36.921875 
Q 7.5625 32.71875 12.15625 30.5625 
Q 14.5 29.5 20.40625 28.328125 
Q 28.71875 26.703125 32.28125 23.34375 
Q 36.71875 19.140625 36.71875 13.375 
z
" id="Symbola-73"/>
    </defs>
    <g transform="translate(169.07711 117.364359)scale(0.1 -0.1)">
     <use xlink:href="#Symbola-23f1"/>
     <use x="100" xlink:href="#Symbola-202f"/>
     <use x="112.5" xlink:href="#Symbola-36"/>
     <use x="162.5" xlink:href="#Symbola-2e"/>
     <use x="187.5" xlink:href="#Symbola-34"/>
     <use x="237.5" xlink:href="#Symbola-34"/>
     <use x="287.5" xlink:href="#Symbola-39"/>
     <use x="337.5" xlink:href="#Symbola-202f"/>
     <use x="350" xlink:href="#Symbola-6d"/>
     <use x="436.669922" xlink:href="#Symbola-73"/>
    </g>
   </g>
   <g id="text_19">
    <!--  𝚫 0.0 ms  -->
    <defs>
     <path id="Symbola-20"/>
     <path d="M 55.328125 0 
L 2.875 0 
L 25.6875 64.984375 
Q 26.3125 66.796875 28.8125 66.796875 
Q 32.03125 66.796875 32.671875 64.984375 
z
M 36.96875 11.96875 
L 24.90625 46.34375 
L 12.890625 11.96875 
z
" id="Symbola-1d6ab"/>
     <path d="M 46.390625 32.515625 
Q 46.390625 17.4375 42.578125 9.625 
Q 36.8125 -2.203125 24.90625 -2.203125 
Q 13.875 -2.203125 8.109375 8.015625 
Q 3.5625 16.015625 3.5625 32.515625 
Q 3.5625 47.90625 7.28125 55.71875 
Q 12.984375 67.78125 25 67.78125 
Q 36.625 67.78125 42.328125 56.453125 
Q 46.390625 48.390625 46.390625 32.515625 
z
M 37.9375 27.546875 
L 37.9375 40.234375 
Q 37.9375 50.78125 36.140625 56.296875 
Q 33.15625 65.578125 24.90625 65.578125 
Q 16.703125 65.578125 13.71875 56.25 
Q 11.921875 50.6875 11.921875 40.1875 
Q 11.921875 38.1875 11.96875 34.234375 
Q 11.96875 30.28125 11.96875 28.328125 
Q 11.96875 16.65625 13.578125 10.75 
Q 16.453125 0 24.90625 0 
Q 33.296875 0 36.28125 10.359375 
Q 37.9375 16.21875 37.9375 27.546875 
z
" id="Symbola-30"/>
    </defs>
    <g transform="translate(175.295959 131.977615)scale(0.1 -0.1)">
     <use xlink:href="#Symbola-20"/>
     <use x="25" xlink:href="#Symbola-1d6ab"/>
     <use x="83.203125" xlink:href="#Symbola-202f"/>
     <use x="95.703125" xlink:href="#Symbola-30"/>
     <use x="145.703125" xlink:href="#Symbola-2e"/>
     <use x="170.703125" xlink:href="#Symbola-30"/>
     <use x="220.703125" xlink:href="#Symbola-202f"/>
     <use x="233.203125" xlink:href="#Symbola-6d"/>
     <use x="319.873047" xlink:href="#Symbola-73"/>
     <use x="359.130859" xlink:href="#Symbola-20"/>
    </g>
    <!-- ⏱ 7.392 ms -->
    <defs>
     <path d="M 46.828125 64.84375 
Q 46.828125 63.28125 45.90625 61.96875 
L 32.078125 42.671875 
Q 27.484375 36.28125 25.828125 25.296875 
Q 24.703125 17.921875 24.703125 3.375 
Q 24.703125 -2.203125 20.015625 -2.203125 
Q 15.375 -2.203125 15.375 3.375 
Q 15.375 22.125 27.875 41.65625 
Q 31.6875 46.96875 39.203125 57.71875 
L 14.84375 57.71875 
Q 9.125 57.71875 8.203125 57.125 
Q 7.078125 56.390625 5.671875 47.859375 
L 3.125 47.859375 
L 6.5 68.84375 
L 9.03125 68.84375 
Q 9.125 67.875 9.71875 67.234375 
Q 11.234375 65.578125 22.078125 65.578125 
L 46.828125 65.578125 
z
" id="Symbola-37"/>
     <path d="M 46.09375 17.390625 
Q 46.09375 8.984375 39.40625 3.21875 
Q 33.015625 -2.203125 24.46875 -2.203125 
Q 16.75 -2.203125 10.6875 1.8125 
Q 3.859375 6.34375 3.859375 13.71875 
Q 3.859375 16.3125 5.421875 17.96875 
Q 6.984375 19.625 9.578125 19.625 
Q 12.015625 19.625 13.640625 17.984375 
Q 15.28125 16.359375 15.28125 13.921875 
Q 15.28125 11.421875 13.59375 9.859375 
Q 11.921875 8.296875 9.46875 8.296875 
Q 8.984375 8.296875 8.5 8.34375 
Q 10.75 4.59375 15.28125 2.484375 
Q 19.4375 0.59375 24.125 0.59375 
Q 30.21875 0.59375 33.25 6.25 
Q 35.59375 10.6875 35.59375 17.390625 
Q 35.59375 24.46875 33.109375 28.8125 
Q 30.03125 34.328125 23.484375 34.328125 
L 18.21875 34.328125 
Q 16.609375 34.328125 16.609375 35.453125 
Q 16.609375 36.53125 18.953125 36.8125 
Q 20.5625 36.859375 22.125 36.96875 
Q 28.171875 37.359375 31.15625 42.234375 
Q 33.984375 46.828125 33.984375 53.859375 
Q 33.984375 58.84375 31.640625 61.921875 
Q 29.046875 65.328125 24.21875 65.328125 
Q 14.75 65.328125 10.640625 58.984375 
Q 16.9375 59.078125 16.9375 53.859375 
Q 16.9375 51.609375 15.5 50.140625 
Q 14.0625 48.6875 11.8125 48.6875 
Q 9.46875 48.6875 8.03125 50.125 
Q 6.59375 51.5625 6.59375 53.90625 
Q 6.59375 60.359375 12.59375 64.3125 
Q 17.875 67.78125 24.65625 67.78125 
Q 31.59375 67.78125 37.0625 64.3125 
Q 43.40625 60.296875 43.40625 53.765625 
Q 43.40625 47.609375 39.15625 42.578125 
Q 35.203125 37.84375 29.109375 35.84375 
Q 36.1875 34.421875 40.96875 29.546875 
Q 46.09375 24.3125 46.09375 17.390625 
z
" id="Symbola-33"/>
     <path d="M 45.265625 17.671875 
L 42.484375 0 
L 4.6875 0 
L 4.6875 0.875 
Q 4.6875 2.484375 5.859375 3.8125 
L 25.390625 25.53125 
Q 36.03125 37.40625 36.03125 48.046875 
Q 36.03125 54.828125 32.671875 59.46875 
Q 28.953125 64.65625 22.40625 64.65625 
Q 17.671875 64.65625 13.953125 61.765625 
Q 10.25 58.890625 8.640625 54.296875 
Q 8.984375 54.390625 9.46875 54.390625 
Q 15.375 54.390625 15.375 49.078125 
Q 15.375 46.828125 13.859375 45.265625 
Q 12.359375 43.703125 10.109375 43.703125 
Q 4.6875 43.703125 4.6875 49.359375 
Q 4.6875 57.03125 10.34375 62.40625 
Q 16.015625 67.78125 23.734375 67.78125 
Q 32.765625 67.78125 38.875 62.5 
Q 45.265625 56.9375 45.265625 48.046875 
Q 45.265625 42.28125 41.5 36.921875 
Q 39.359375 33.84375 33.453125 28.078125 
L 12.546875 7.8125 
L 32.859375 7.8125 
Q 39.5 7.8125 40.46875 8.609375 
Q 41.453125 9.421875 42.71875 17.671875 
z
" id="Symbola-32"/>
    </defs>
    <g transform="translate(175.295959 142.701365)scale(0.1 -0.1)">
     <use xlink:href="#Symbola-23f1"/>
     <use x="100" xlink:href="#Symbola-202f"/>
     <use x="112.5" xlink:href="#Symbola-37"/>
     <use x="162.5" xlink:href="#Symbola-2e"/>
     <use x="187.5" xlink:href="#Symbola-33"/>
     <use x="237.5" xlink:href="#Symbola-39"/>
     <use x="287.5" xlink:href="#Symbola-32"/>
     <use x="337.5" xlink:href="#Symbola-202f"/>
     <use x="350" xlink:href="#Symbola-6d"/>
     <use x="436.669922" xlink:href="#Symbola-73"/>
    </g>
   </g>
   <g id="text_20">
    <!--  𝚫 955.101 ms  -->
    <defs>
     <path d="M 45.265625 20.515625 
Q 45.265625 11.234375 38.796875 4.515625 
Q 32.328125 -2.203125 23.09375 -2.203125 
Q 15.53125 -2.203125 10.109375 3.3125 
Q 4.6875 8.84375 4.6875 16.40625 
Q 4.6875 21.828125 9.625 21.828125 
Q 11.765625 21.828125 13.25 20.40625 
Q 14.75 19 14.75 16.84375 
Q 14.75 14.703125 13.25 13.25 
Q 11.765625 11.8125 9.625 11.8125 
Q 8.734375 11.8125 7.953125 12.0625 
Q 9.375 7.125 13.59375 3.859375 
Q 17.828125 0.59375 22.90625 0.59375 
Q 29.984375 0.59375 33.84375 7.234375 
Q 36.234375 11.375 36.234375 21.1875 
Q 36.234375 29.890625 34.421875 33.984375 
Q 31.546875 40.53125 25.734375 40.53125 
Q 21.390625 40.53125 17.921875 38.421875 
Q 15.71875 37.109375 13.53125 34.515625 
Q 11.671875 32.421875 11.28125 32.421875 
Q 9.859375 32.421875 9.859375 34.421875 
L 9.859375 66.0625 
Q 9.859375 67.71875 10.84375 67.71875 
Q 11.28125 67.71875 12.109375 67.4375 
Q 20.21875 64.5 25.6875 64.5 
Q 32.28125 64.5 39.453125 67.53125 
Q 40.046875 67.78125 40.328125 67.78125 
Q 41.3125 67.78125 41.3125 66.65625 
Q 41.3125 65.875 39.546875 63.921875 
Q 32.515625 56.0625 21.6875 56.0625 
Q 17.484375 56.0625 13.09375 57.375 
L 13.09375 37.59375 
Q 18.40625 42.78125 25.984375 42.78125 
Q 34.46875 42.78125 40.09375 35.75 
Q 45.265625 29.25 45.265625 20.515625 
z
" id="Symbola-35"/>
     <path d="M 41.796875 0 
Q 38.328125 0.296875 35.15625 0.296875 
L 15.4375 0.296875 
Q 12.3125 0.296875 8.84375 0 
L 8.84375 3.125 
Q 9.421875 3.125 10.671875 3.078125 
Q 11.921875 3.03125 12.546875 3.03125 
Q 20.015625 3.03125 21.09375 5.125 
Q 21.53125 6 21.53125 7.71875 
L 21.53125 60.796875 
Q 16.21875 58.15625 8.25 58.15625 
L 8.25 61.28125 
Q 20.453125 61.28125 26.765625 67.78125 
L 27.25 67.78125 
Q 28.65625 67.78125 28.953125 67.09375 
Q 29.109375 66.796875 29.109375 65.1875 
L 29.109375 7.515625 
Q 29.109375 5.90625 29.5 5.078125 
Q 30.21875 3.46875 35.203125 3.125 
Q 35.890625 3.078125 41.796875 3.125 
z
" id="Symbola-31"/>
    </defs>
    <g transform="translate(992.167233 157.314622)scale(0.1 -0.1)">
     <use xlink:href="#Symbola-20"/>
     <use x="25" xlink:href="#Symbola-1d6ab"/>
     <use x="83.203125" xlink:href="#Symbola-202f"/>
     <use x="95.703125" xlink:href="#Symbola-39"/>
     <use x="145.703125" xlink:href="#Symbola-35"/>
     <use x="195.703125" xlink:href="#Symbola-35"/>
     <use x="245.703125" xlink:href="#Symbola-2e"/>
     <use x="270.703125" xlink:href="#Symbola-31"/>
     <use x="320.703125" xlink:href="#Symbola-30"/>
     <use x="370.703125" xlink:href="#Symbola-31"/>
     <use x="420.703125" xlink:href="#Symbola-202f"/>
     <use x="433.203125" xlink:href="#Symbola-6d"/>
     <use x="519.873047" xlink:href="#Symbola-73"/>
     <use x="559.130859" xlink:href="#Symbola-20"/>
    </g>
    <!-- ⏱ 15.859 ms -->
    <defs>
     <path d="M 46.09375 17.046875 
Q 46.09375 8.734375 39.546875 3.125 
Q 33.34375 -2.203125 24.90625 -2.203125 
Q 16.703125 -2.203125 10.59375 2.390625 
Q 3.859375 7.46875 3.859375 15.375 
Q 3.859375 26.859375 18.5625 34.125 
Q 15.875 35.6875 11.03125 39.59375 
Q 6.59375 44.4375 6.59375 50.828125 
Q 6.59375 58.109375 12.25 63.03125 
Q 17.671875 67.78125 25.046875 67.78125 
Q 32.171875 67.78125 37.5 63.8125 
Q 43.40625 59.46875 43.40625 52.640625 
Q 43.40625 43.171875 31.0625 36.859375 
Q 35.59375 34.125 36.375 33.59375 
Q 39.3125 31.640625 41.109375 29.640625 
Q 46.09375 24.125 46.09375 17.046875 
z
M 38.921875 52.640625 
Q 38.921875 58.109375 34.578125 61.8125 
Q 30.46875 65.328125 24.90625 65.328125 
Q 19.78125 65.328125 15.671875 62.703125 
Q 11.03125 59.671875 11.03125 54.78125 
Q 11.03125 50.34375 16.21875 46.578125 
Q 17.671875 45.515625 28.765625 38.375 
Q 38.921875 44.234375 38.921875 52.640625 
z
M 41.0625 13.484375 
Q 41.0625 17.1875 38.765625 20.0625 
Q 37.15625 22.078125 33.390625 24.640625 
Q 29.640625 27.203125 20.84375 32.515625 
Q 8.9375 25.984375 8.9375 15.375 
Q 8.9375 9.03125 13.875 4.6875 
Q 18.609375 0.59375 25.046875 0.59375 
Q 31.0625 0.59375 35.796875 3.953125 
Q 41.0625 7.71875 41.0625 13.484375 
z
" id="Symbola-38"/>
    </defs>
    <g transform="translate(992.167233 168.038372)scale(0.1 -0.1)">
     <use xlink:href="#Symbola-23f1"/>
     <use x="100" xlink:href="#Symbola-202f"/>
     <use x="112.5" xlink:href="#Symbola-31"/>
     <use x="162.5" xlink:href="#Symbola-35"/>
     <use x="212.5" xlink:href="#Symbola-2e"/>
     <use x="237.5" xlink:href="#Symbola-38"/>
     <use x="287.5" xlink:href="#Symbola-35"/>
     <use x="337.5" xlink:href="#Symbola-39"/>
     <use x="387.5" xlink:href="#Symbola-202f"/>
     <use x="400" xlink:href="#Symbola-6d"/>
     <use x="486.669922" xlink:href="#Symbola-73"/>
    </g>
   </g>
   <g id="text_21">
    <!--  𝚫 0.0 ms  -->
    <g transform="translate(997.559082 182.651628)scale(0.1 -0.1)">
     <use xlink:href="#Symbola-20"/>
     <use x="25" xlink:href="#Symbola-1d6ab"/>
     <use x="83.203125" xlink:href="#Symbola-202f"/>
     <use x="95.703125" xlink:href="#Symbola-30"/>
     <use x="145.703125" xlink:href="#Symbola-2e"/>
     <use x="170.703125" xlink:href="#Symbola-30"/>
     <use x="220.703125" xlink:href="#Symbola-202f"/>
     <use x="233.203125" xlink:href="#Symbola-6d"/>
     <use x="319.873047" xlink:href="#Symbola-73"/>
     <use x="359.130859" xlink:href="#Symbola-20"/>
    </g>
    <!-- ⏱ 6.409 ms -->
    <g transform="translate(997.559082 193.375378)scale(0.1 -0.1)">
     <use xlink:href="#Symbola-23f1"/>
     <use x="100" xlink:href="#Symbola-202f"/>
     <use x="112.5" xlink:href="#Symbola-36"/>
     <use x="162.5" xlink:href="#Symbola-2e"/>
     <use x="187.5" xlink:href="#Symbola-34"/>
     <use x="237.5" xlink:href="#Symbola-30"/>
     <use x="287.5" xlink:href="#Symbola-39"/>
     <use x="337.5" xlink:href="#Symbola-202f"/>
     <use x="350" xlink:href="#Symbola-6d"/>
     <use x="436.669922" xlink:href="#Symbola-73"/>
    </g>
   </g>
   <g id="text_22">
    <!--  𝚫 0.0 ms  -->
    <g transform="translate(1002.749146 207.988634)scale(0.1 -0.1)">
     <use xlink:href="#Symbola-20"/>
     <use x="25" xlink:href="#Symbola-1d6ab"/>
     <use x="83.203125" xlink:href="#Symbola-202f"/>
     <use x="95.703125" xlink:href="#Symbola-30"/>
     <use x="145.703125" xlink:href="#Symbola-2e"/>
     <use x="170.703125" xlink:href="#Symbola-30"/>
     <use x="220.703125" xlink:href="#Symbola-202f"/>
     <use x="233.203125" xlink:href="#Symbola-6d"/>
     <use x="319.873047" xlink:href="#Symbola-73"/>
     <use x="359.130859" xlink:href="#Symbola-20"/>
    </g>
    <!-- ⏱ 6.169 ms -->
    <g transform="translate(1002.749146 218.712384)scale(0.1 -0.1)">
     <use xlink:href="#Symbola-23f1"/>
     <use x="100" xlink:href="#Symbola-202f"/>
     <use x="112.5" xlink:href="#Symbola-36"/>
     <use x="162.5" xlink:href="#Symbola-2e"/>
     <use x="187.5" xlink:href="#Symbola-31"/>
     <use x="237.5" xlink:href="#Symbola-36"/>
     <use x="287.5" xlink:href="#Symbola-39"/>
     <use x="337.5" xlink:href="#Symbola-202f"/>
     <use x="350" xlink:href="#Symbola-6d"/>
     <use x="436.669922" xlink:href="#Symbola-73"/>
    </g>
   </g>
   <g id="text_23">
    <!--  𝚫 0.0 ms  -->
    <g transform="translate(1008.240283 233.325641)scale(0.1 -0.1)">
     <use xlink:href="#Symbola-20"/>
     <use x="25" xlink:href="#Symbola-1d6ab"/>
     <use x="83.203125" xlink:href="#Symbola-202f"/>
     <use x="95.703125" xlink:href="#Symbola-30"/>
     <use x="145.703125" xlink:href="#Symbola-2e"/>
     <use x="170.703125" xlink:href="#Symbola-30"/>
     <use x="220.703125" xlink:href="#Symbola-202f"/>
     <use x="233.203125" xlink:href="#Symbola-6d"/>
     <use x="319.873047" xlink:href="#Symbola-73"/>
     <use x="359.130859" xlink:href="#Symbola-20"/>
    </g>
    <!-- ⏱ 6.527 ms -->
    <g transform="translate(1008.240283 244.049391)scale(0.1 -0.1)">
     <use xlink:href="#Symbola-23f1"/>
     <use x="100" xlink:href="#Symbola-202f"/>
     <use x="112.5" xlink:href="#Symbola-36"/>
     <use x="162.5" xlink:href="#Symbola-2e"/>
     <use x="187.5" xlink:href="#Symbola-35"/>
     <use x="237.5" xlink:href="#Symbola-32"/>
     <use x="287.5" xlink:href="#Symbola-37"/>
     <use x="337.5" xlink:href="#Symbola-202f"/>
     <use x="350" xlink:href="#Symbola-6d"/>
     <use x="436.669922" xlink:href="#Symbola-73"/>
    </g>
   </g>
   <g id="text_24">
    <!--  𝚫 0.0 ms  -->
    <g transform="translate(1019.756909 258.662647)scale(0.1 -0.1)">
     <use xlink:href="#Symbola-20"/>
     <use x="25" xlink:href="#Symbola-1d6ab"/>
     <use x="83.203125" xlink:href="#Symbola-202f"/>
     <use x="95.703125" xlink:href="#Symbola-30"/>
     <use x="145.703125" xlink:href="#Symbola-2e"/>
     <use x="170.703125" xlink:href="#Symbola-30"/>
     <use x="220.703125" xlink:href="#Symbola-202f"/>
     <use x="233.203125" xlink:href="#Symbola-6d"/>
     <use x="319.873047" xlink:href="#Symbola-73"/>
     <use x="359.130859" xlink:href="#Symbola-20"/>
    </g>
    <!-- ⏱ 13.689 ms -->
    <g transform="translate(1019.756909 269.386397)scale(0.1 -0.1)">
     <use xlink:href="#Symbola-23f1"/>
     <use x="100" xlink:href="#Symbola-202f"/>
     <use x="112.5" xlink:href="#Symbola-31"/>
     <use x="162.5" xlink:href="#Symbola-33"/>
     <use x="212.5" xlink:href="#Symbola-2e"/>
     <use x="237.5" xlink:href="#Symbola-36"/>
     <use x="287.5" xlink:href="#Symbola-38"/>
     <use x="337.5" xlink:href="#Symbola-39"/>
     <use x="387.5" xlink:href="#Symbola-202f"/>
     <use x="400" xlink:href="#Symbola-6d"/>
     <use x="486.669922" xlink:href="#Symbola-73"/>
    </g>
   </g>
  </g>
  <g id="legend_1">
   <g id="patch_29">
    <path d="M 1083.732812 95.330625 
L 1154.603125 95.330625 
Q 1156.603125 95.330625 1156.603125 93.330625 
L 1156.603125 20.94 
Q 1156.603125 18.94 1154.603125 18.94 
L 1083.732812 18.94 
Q 1081.732812 18.94 1081.732812 20.94 
L 1081.732812 93.330625 
Q 1081.732812 95.330625 1083.732812 95.330625 
z
" style="fill:#ffffff;opacity:0.8;stroke:#cccccc;stroke-linejoin:miter;"/>
   </g>
   <g id="line2d_24">
    <path d="M 1085.732812 27.038437 
L 1105.732812 27.038437 
" style="fill:none;stroke:#ff0000;stroke-linecap:square;stroke-width:4;"/>
   </g>
   <g id="line2d_25"/>
   <g id="text_25">
    <!-- 1 Pkt -->
    <defs>
     <path d="M 19.671875 64.796875 
L 19.671875 37.40625 
L 32.078125 37.40625 
Q 38.96875 37.40625 42.71875 40.96875 
Q 46.484375 44.53125 46.484375 51.125 
Q 46.484375 57.671875 42.71875 61.234375 
Q 38.96875 64.796875 32.078125 64.796875 
z
M 9.8125 72.90625 
L 32.078125 72.90625 
Q 44.34375 72.90625 50.609375 67.359375 
Q 56.890625 61.8125 56.890625 51.125 
Q 56.890625 40.328125 50.609375 34.8125 
Q 44.34375 29.296875 32.078125 29.296875 
L 19.671875 29.296875 
L 19.671875 0 
L 9.8125 0 
z
" id="DejaVuSans-50"/>
    </defs>
    <g transform="translate(1113.732812 30.538437)scale(0.1 -0.1)">
     <use xlink:href="#DejaVuSans-31"/>
     <use x="63.623047" xlink:href="#DejaVuSans-20"/>
     <use x="95.410156" xlink:href="#DejaVuSans-50"/>
     <use x="155.712891" xlink:href="#DejaVuSans-6b"/>
     <use x="213.623047" xlink:href="#DejaVuSans-74"/>
    </g>
   </g>
   <g id="line2d_26">
    <path d="M 1085.732812 41.716562 
L 1105.732812 41.716562 
" style="fill:none;stroke:#bfbf00;stroke-linecap:square;stroke-width:4;"/>
   </g>
   <g id="line2d_27"/>
   <g id="text_26">
    <!-- 2 Pkts -->
    <g transform="translate(1113.732812 45.216562)scale(0.1 -0.1)">
     <use xlink:href="#DejaVuSans-32"/>
     <use x="63.623047" xlink:href="#DejaVuSans-20"/>
     <use x="95.410156" xlink:href="#DejaVuSans-50"/>
     <use x="155.712891" xlink:href="#DejaVuSans-6b"/>
     <use x="213.623047" xlink:href="#DejaVuSans-74"/>
     <use x="252.832031" xlink:href="#DejaVuSans-73"/>
    </g>
   </g>
   <g id="line2d_28">
    <path d="M 1085.732812 56.394687 
L 1105.732812 56.394687 
" style="fill:none;stroke:#bf00bf;stroke-linecap:square;stroke-width:4;"/>
   </g>
   <g id="line2d_29"/>
   <g id="text_27">
    <!-- 3 Pkts -->
    <defs>
     <path d="M 40.578125 39.3125 
Q 47.65625 37.796875 51.625 33 
Q 55.609375 28.21875 55.609375 21.1875 
Q 55.609375 10.40625 48.1875 4.484375 
Q 40.765625 -1.421875 27.09375 -1.421875 
Q 22.515625 -1.421875 17.65625 -0.515625 
Q 12.796875 0.390625 7.625 2.203125 
L 7.625 11.71875 
Q 11.71875 9.328125 16.59375 8.109375 
Q 21.484375 6.890625 26.8125 6.890625 
Q 36.078125 6.890625 40.9375 10.546875 
Q 45.796875 14.203125 45.796875 21.1875 
Q 45.796875 27.640625 41.28125 31.265625 
Q 36.765625 34.90625 28.71875 34.90625 
L 20.21875 34.90625 
L 20.21875 43.015625 
L 29.109375 43.015625 
Q 36.375 43.015625 40.234375 45.921875 
Q 44.09375 48.828125 44.09375 54.296875 
Q 44.09375 59.90625 40.109375 62.90625 
Q 36.140625 65.921875 28.71875 65.921875 
Q 24.65625 65.921875 20.015625 65.03125 
Q 15.375 64.15625 9.8125 62.3125 
L 9.8125 71.09375 
Q 15.4375 72.65625 20.34375 73.4375 
Q 25.25 74.21875 29.59375 74.21875 
Q 40.828125 74.21875 47.359375 69.109375 
Q 53.90625 64.015625 53.90625 55.328125 
Q 53.90625 49.265625 50.4375 45.09375 
Q 46.96875 40.921875 40.578125 39.3125 
z
" id="DejaVuSans-33"/>
    </defs>
    <g transform="translate(1113.732812 59.894687)scale(0.1 -0.1)">
     <use xlink:href="#DejaVuSans-33"/>
     <use x="63.623047" xlink:href="#DejaVuSans-20"/>
     <use x="95.410156" xlink:href="#DejaVuSans-50"/>
     <use x="155.712891" xlink:href="#DejaVuSans-6b"/>
     <use x="213.623047" xlink:href="#DejaVuSans-74"/>
     <use x="252.832031" xlink:href="#DejaVuSans-73"/>
    </g>
   </g>
   <g id="line2d_30">
    <path d="M 1085.732812 71.072812 
L 1105.732812 71.072812 
" style="fill:none;stroke:#0000ff;stroke-linecap:square;stroke-width:4;"/>
   </g>
   <g id="line2d_31"/>
   <g id="text_28">
    <!-- 4 Pkts -->
    <g transform="translate(1113.732812 74.572812)scale(0.1 -0.1)">
     <use xlink:href="#DejaVuSans-34"/>
     <use x="63.623047" xlink:href="#DejaVuSans-20"/>
     <use x="95.410156" xlink:href="#DejaVuSans-50"/>
     <use x="155.712891" xlink:href="#DejaVuSans-6b"/>
     <use x="213.623047" xlink:href="#DejaVuSans-74"/>
     <use x="252.832031" xlink:href="#DejaVuSans-73"/>
    </g>
   </g>
   <g id="line2d_32">
    <path d="M 1085.732812 85.750937 
L 1105.732812 85.750937 
" style="fill:none;stroke:#000000;stroke-linecap:square;stroke-width:4;"/>
   </g>
   <g id="line2d_33"/>
   <g id="text_29">
    <!-- 5+ Pkts -->
    <defs>
     <path d="M 46 62.703125 
L 46 35.5 
L 73.1875 35.5 
L 73.1875 27.203125 
L 46 27.203125 
L 46 0 
L 37.796875 0 
L 37.796875 27.203125 
L 10.59375 27.203125 
L 10.59375 35.5 
L 37.796875 35.5 
L 37.796875 62.703125 
z
" id="DejaVuSans-2b"/>
    </defs>
    <g transform="translate(1113.732812 89.250937)scale(0.1 -0.1)">
     <use xlink:href="#DejaVuSans-35"/>
     <use x="63.623047" xlink:href="#DejaVuSans-2b"/>
     <use x="147.412109" xlink:href="#DejaVuSans-20"/>
     <use x="179.199219" xlink:href="#DejaVuSans-50"/>
     <use x="239.501953" xlink:href="#DejaVuSans-6b"/>
     <use x="297.412109" xlink:href="#DejaVuSans-74"/>
     <use x="336.621094" xlink:href="#DejaVuSans-73"/>
    </g>
   </g>
  </g>
 </g>
 <defs>
  <clipPath id="p202295bb58">
   <rect height="275.92" width="899.76125" x="163.651562" y="10.7"/>
  </clipPath>
 </defs>
</svg>
